<svg width="334" height="247" viewBox="0 0 334 247" fill="none" xmlns="http://www.w3.org/2000/svg">
<g filter="url(#filter0_d_21_238)">
<rect y="1" width="39.1831" height="61.4765" fill="#373A3C"/>
</g>
<path d="M8.11744 33.9839L8.46944 31.9999H7.01344L7.20544 30.8319H8.67744L9.36544 26.8319H7.90944L8.10144 25.6639H9.57344L9.92544 23.6799H11.2054L10.8534 25.6639H13.9894L14.3414 23.6799H15.6214L15.2694 25.6639H16.7414L16.5494 26.8319H15.0614L14.3734 30.8319H15.8294L15.6374 31.9999H14.1654L13.8134 33.9839H12.5334L12.8854 31.9999H9.74944L9.39744 33.9839H8.11744ZM9.95744 30.8319H13.0934L13.7814 26.8319H10.6454L9.95744 30.8319Z" fill="#ECEEEF"/>
<g filter="url(#filter1_d_21_238)">
<rect x="39.1831" y="1" width="97.9578" height="61.4765" fill="#373A3C"/>
</g>
<path d="M51.6241 31.1775C51.2828 31.9349 50.9361 32.5695 50.5841 33.0815C50.2428 33.5829 49.8375 33.9615 49.3681 34.2175C48.8988 34.4629 48.3015 34.5855 47.5761 34.5855C47.2775 34.5855 46.9948 34.5642 46.7281 34.5215C46.4721 34.4789 46.2375 34.4202 46.0241 34.3455V32.9215C46.2375 33.0175 46.4668 33.0975 46.7121 33.1615C46.9575 33.2149 47.2135 33.2415 47.4801 33.2415C47.8748 33.2415 48.2108 33.1882 48.4881 33.0815C48.7761 32.9642 49.0268 32.7775 49.2401 32.5215C49.4641 32.2655 49.6721 31.9242 49.8641 31.4975L45.4641 23.0015H47.0481L50.2321 29.2895C50.2748 29.3642 50.3175 29.4549 50.3601 29.5615C50.4028 29.6575 50.4455 29.7589 50.4881 29.8655C50.5415 29.9722 50.5841 30.0735 50.6161 30.1695H50.6801C50.7121 30.0949 50.7441 30.0095 50.7761 29.9135C50.8188 29.8069 50.8561 29.7055 50.8881 29.6095C50.9308 29.5029 50.9681 29.4122 51.0001 29.3375L53.7521 23.0015H55.2721L51.6241 31.1775ZM59.76 34.5855C59.0027 34.5855 58.3254 34.4309 57.728 34.1215C57.1414 33.8122 56.6774 33.3322 56.336 32.6815C56.0054 32.0309 55.84 31.1989 55.84 30.1855C55.84 29.1295 56.016 28.2709 56.368 27.6095C56.72 26.9482 57.1947 26.4629 57.792 26.1535C58.4 25.8442 59.088 25.6895 59.856 25.6895C60.2934 25.6895 60.7147 25.7375 61.12 25.8335C61.5254 25.9189 61.856 26.0255 62.112 26.1535L61.68 27.3215C61.424 27.2255 61.1254 27.1349 60.784 27.0495C60.4427 26.9642 60.1227 26.9215 59.824 26.9215C59.248 26.9215 58.7734 27.0442 58.4 27.2895C58.0267 27.5349 57.7494 27.8975 57.568 28.3775C57.3867 28.8575 57.296 29.4549 57.296 30.1695C57.296 30.8522 57.3867 31.4335 57.568 31.9135C57.7494 32.3935 58.0214 32.7562 58.384 33.0015C58.7467 33.2469 59.2 33.3695 59.744 33.3695C60.2134 33.3695 60.624 33.3215 60.976 33.2255C61.3387 33.1295 61.6694 33.0122 61.968 32.8735V34.1215C61.68 34.2709 61.36 34.3829 61.008 34.4575C60.6667 34.5429 60.2507 34.5855 59.76 34.5855ZM70.5355 34.4255H69.1115V27.0175H66.5835C66.4769 28.3722 66.3435 29.5295 66.1835 30.4895C66.0235 31.4389 65.8209 32.2122 65.5755 32.8095C65.3302 33.4069 65.0369 33.8442 64.6955 34.1215C64.3542 34.3989 63.9542 34.5375 63.4955 34.5375C63.3569 34.5375 63.2182 34.5269 63.0795 34.5055C62.9515 34.4949 62.8449 34.4682 62.7595 34.4255V33.3695C62.8235 33.3909 62.8929 33.4069 62.9675 33.4175C63.0422 33.4282 63.1169 33.4335 63.1915 33.4335C63.4262 33.4335 63.6395 33.3375 63.8315 33.1455C64.0235 32.9535 64.1942 32.6602 64.3435 32.2655C64.5035 31.8709 64.6475 31.3749 64.7755 30.7775C64.9035 30.1695 65.0155 29.4549 65.1115 28.6335C65.2075 27.8122 65.2929 26.8842 65.3675 25.8495H70.5355V34.4255ZM71.9135 25.8495H73.4175L75.2735 30.7295C75.3802 31.0175 75.4762 31.2949 75.5615 31.5615C75.6575 31.8282 75.7429 32.0895 75.8175 32.3455C75.8922 32.5909 75.9509 32.8309 75.9935 33.0655H76.0575C76.1215 32.7989 76.2229 32.4522 76.3615 32.0255C76.5002 31.5882 76.6442 31.1509 76.7935 30.7135L78.5375 25.8495H80.0575L76.3615 35.6095C76.1589 36.1429 75.9189 36.6069 75.6415 37.0015C75.3749 37.4069 75.0442 37.7162 74.6495 37.9295C74.2655 38.1535 73.7962 38.2655 73.2415 38.2655C72.9855 38.2655 72.7615 38.2495 72.5695 38.2175C72.3775 38.1962 72.2122 38.1695 72.0735 38.1375V37.0175C72.1909 37.0389 72.3295 37.0602 72.4895 37.0815C72.6602 37.1029 72.8362 37.1135 73.0175 37.1135C73.3482 37.1135 73.6309 37.0495 73.8655 36.9215C74.1109 36.8042 74.3189 36.6282 74.4895 36.3935C74.6602 36.1695 74.8042 35.9029 74.9215 35.5935L75.3695 34.4575L71.9135 25.8495ZM86.6458 25.8495V27.0335H82.8218V34.4255H81.4138V25.8495H86.6458ZM91.5836 25.7055C92.629 25.7055 93.4023 25.9349 93.9036 26.3935C94.405 26.8522 94.6556 27.5829 94.6556 28.5855V34.4255H93.6316L93.3596 33.2095H93.2956C93.0503 33.5189 92.7943 33.7802 92.5276 33.9935C92.2716 34.1962 91.973 34.3455 91.6316 34.4415C91.301 34.5375 90.8956 34.5855 90.4156 34.5855C89.9036 34.5855 89.4396 34.4949 89.0236 34.3135C88.6183 34.1322 88.2983 33.8549 88.0636 33.4815C87.829 33.0975 87.7116 32.6175 87.7116 32.0415C87.7116 31.1882 88.0476 30.5322 88.7196 30.0735C89.3916 29.6042 90.4263 29.3482 91.8236 29.3055L93.2796 29.2575V28.7455C93.2796 28.0309 93.125 27.5349 92.8156 27.2575C92.5063 26.9802 92.069 26.8415 91.5036 26.8415C91.0556 26.8415 90.629 26.9109 90.2236 27.0495C89.8183 27.1775 89.4396 27.3269 89.0876 27.4975L88.6556 26.4415C89.029 26.2389 89.4716 26.0682 89.9836 25.9295C90.4956 25.7802 91.029 25.7055 91.5836 25.7055ZM91.9996 30.2815C90.933 30.3242 90.1916 30.4949 89.7756 30.7935C89.3703 31.0922 89.1676 31.5135 89.1676 32.0575C89.1676 32.5375 89.3116 32.8895 89.5996 33.1135C89.8983 33.3375 90.277 33.4495 90.7356 33.4495C91.461 33.4495 92.0636 33.2522 92.5436 32.8575C93.0236 32.4522 93.2636 31.8335 93.2636 31.0015V30.2335L91.9996 30.2815Z" fill="#ECEEEF"/>
<g filter="url(#filter2_d_21_238)">
<rect x="137.141" y="1" width="97.9578" height="61.4765" fill="#373A3C"/>
</g>
<path d="M149.86 16.1055C149.252 16.1055 148.703 16.2122 148.212 16.4255C147.722 16.6282 147.306 16.9322 146.964 17.3375C146.623 17.7322 146.362 18.2175 146.18 18.7935C145.999 19.3589 145.908 19.9989 145.908 20.7135C145.908 21.6522 146.052 22.4682 146.34 23.1615C146.639 23.8549 147.076 24.3882 147.652 24.7615C148.239 25.1349 148.97 25.3215 149.844 25.3215C150.346 25.3215 150.82 25.2789 151.268 25.1935C151.716 25.1082 152.154 25.0015 152.58 24.8735V26.1215C152.154 26.2815 151.711 26.3989 151.252 26.4735C150.804 26.5482 150.266 26.5855 149.636 26.5855C148.474 26.5855 147.503 26.3455 146.724 25.8655C145.946 25.3855 145.359 24.7029 144.964 23.8175C144.58 22.9322 144.388 21.8922 144.388 20.6975C144.388 19.8335 144.506 19.0442 144.74 18.3295C144.986 17.6149 145.338 16.9962 145.796 16.4735C146.266 15.9509 146.842 15.5509 147.524 15.2735C148.207 14.9855 148.991 14.8415 149.876 14.8415C150.463 14.8415 151.028 14.9002 151.572 15.0175C152.116 15.1349 152.602 15.3002 153.028 15.5135L152.452 16.7295C152.1 16.5695 151.706 16.4255 151.268 16.2975C150.842 16.1695 150.372 16.1055 149.86 16.1055ZM158.962 17.6895C160.018 17.6895 160.866 18.0575 161.506 18.7935C162.156 19.5295 162.482 20.6389 162.482 22.1215C162.482 23.0922 162.332 23.9135 162.034 24.5855C161.746 25.2469 161.335 25.7482 160.802 26.0895C160.279 26.4202 159.66 26.5855 158.946 26.5855C158.508 26.5855 158.119 26.5269 157.778 26.4095C157.436 26.2922 157.143 26.1429 156.898 25.9615C156.663 25.7695 156.46 25.5615 156.29 25.3375H156.194C156.215 25.5189 156.236 25.7482 156.258 26.0255C156.279 26.3029 156.29 26.5429 156.29 26.7455V30.2655H154.882V17.8495H156.034L156.226 19.0175H156.29C156.46 18.7722 156.663 18.5482 156.898 18.3455C157.143 18.1429 157.431 17.9829 157.762 17.8655C158.103 17.7482 158.503 17.6895 158.962 17.6895ZM158.706 18.8735C158.13 18.8735 157.666 18.9855 157.314 19.2095C156.962 19.4229 156.706 19.7482 156.546 20.1855C156.386 20.6229 156.3 21.1775 156.29 21.8495V22.1215C156.29 22.8255 156.364 23.4229 156.514 23.9135C156.663 24.4042 156.914 24.7775 157.266 25.0335C157.628 25.2895 158.119 25.4175 158.738 25.4175C159.26 25.4175 159.687 25.2735 160.018 24.9855C160.359 24.6975 160.61 24.3082 160.77 23.8175C160.94 23.3162 161.026 22.7455 161.026 22.1055C161.026 21.1242 160.834 20.3402 160.45 19.7535C160.076 19.1669 159.495 18.8735 158.706 18.8735ZM172.182 22.1215C172.182 22.8362 172.086 23.4709 171.894 24.0255C171.712 24.5695 171.446 25.0335 171.094 25.4175C170.752 25.8015 170.331 26.0949 169.83 26.2975C169.339 26.4895 168.79 26.5855 168.182 26.5855C167.616 26.5855 167.094 26.4895 166.614 26.2975C166.134 26.0949 165.718 25.8015 165.366 25.4175C165.014 25.0335 164.736 24.5695 164.534 24.0255C164.342 23.4709 164.246 22.8362 164.246 22.1215C164.246 21.1722 164.406 20.3722 164.726 19.7215C165.046 19.0602 165.504 18.5589 166.102 18.2175C166.699 17.8655 167.408 17.6895 168.23 17.6895C169.008 17.6895 169.691 17.8655 170.278 18.2175C170.875 18.5589 171.339 19.0602 171.67 19.7215C172.011 20.3722 172.182 21.1722 172.182 22.1215ZM165.702 22.1215C165.702 22.7935 165.787 23.3802 165.958 23.8815C166.139 24.3722 166.416 24.7509 166.79 25.0175C167.163 25.2842 167.638 25.4175 168.214 25.4175C168.79 25.4175 169.264 25.2842 169.638 25.0175C170.011 24.7509 170.283 24.3722 170.454 23.8815C170.635 23.3802 170.726 22.7935 170.726 22.1215C170.726 21.4389 170.635 20.8575 170.454 20.3775C170.272 19.8975 169.995 19.5295 169.622 19.2735C169.259 19.0069 168.784 18.8735 168.198 18.8735C167.323 18.8735 166.688 19.1615 166.294 19.7375C165.899 20.3135 165.702 21.1082 165.702 22.1215ZM179.485 17.8495H181.021L177.357 21.9775L181.325 26.4255H179.693L175.821 22.0735V26.4255H174.413V17.8495H175.821V22.0095L179.485 17.8495ZM184.21 23.0815C184.21 23.1775 184.204 23.3162 184.194 23.4975C184.194 23.6682 184.188 23.8549 184.178 24.0575C184.167 24.2495 184.156 24.4362 184.146 24.6175C184.135 24.7882 184.124 24.9269 184.114 25.0335L188.706 17.8495H190.434V26.4255H189.122V21.3695C189.122 21.1989 189.122 20.9749 189.122 20.6975C189.132 20.4202 189.143 20.1482 189.154 19.8815C189.164 19.6042 189.175 19.3962 189.186 19.2575L184.626 26.4255H182.882V17.8495H184.21V23.0815ZM148.852 41.6895C149.908 41.6895 150.756 42.0575 151.396 42.7935C152.047 43.5295 152.372 44.6389 152.372 46.1215C152.372 47.0922 152.223 47.9135 151.924 48.5855C151.636 49.2469 151.226 49.7482 150.692 50.0895C150.17 50.4202 149.551 50.5855 148.836 50.5855C148.399 50.5855 148.01 50.5269 147.668 50.4095C147.327 50.2922 147.034 50.1429 146.788 49.9615C146.554 49.7695 146.351 49.5615 146.18 49.3375H146.084C146.106 49.5189 146.127 49.7482 146.148 50.0255C146.17 50.3029 146.18 50.5429 146.18 50.7455V54.2655H144.772V41.8495H145.924L146.116 43.0175H146.18C146.351 42.7722 146.554 42.5482 146.788 42.3455C147.034 42.1429 147.322 41.9829 147.652 41.8655C147.994 41.7482 148.394 41.6895 148.852 41.6895ZM148.596 42.8735C148.02 42.8735 147.556 42.9855 147.204 43.2095C146.852 43.4229 146.596 43.7482 146.436 44.1855C146.276 44.6229 146.191 45.1775 146.18 45.8495V46.1215C146.18 46.8255 146.255 47.4229 146.404 47.9135C146.554 48.4042 146.804 48.7775 147.156 49.0335C147.519 49.2895 148.01 49.4175 148.628 49.4175C149.151 49.4175 149.578 49.2735 149.908 48.9855C150.25 48.6975 150.5 48.3082 150.66 47.8175C150.831 47.3162 150.916 46.7455 150.916 46.1055C150.916 45.1242 150.724 44.3402 150.34 43.7535C149.967 43.1669 149.386 42.8735 148.596 42.8735ZM157.864 41.7055C158.909 41.7055 159.683 41.9349 160.184 42.3935C160.685 42.8522 160.936 43.5829 160.936 44.5855V50.4255H159.912L159.64 49.2095H159.576C159.331 49.5189 159.075 49.7802 158.808 49.9935C158.552 50.1962 158.253 50.3455 157.912 50.4415C157.581 50.5375 157.176 50.5855 156.696 50.5855C156.184 50.5855 155.72 50.4949 155.304 50.3135C154.899 50.1322 154.579 49.8549 154.344 49.4815C154.109 49.0975 153.992 48.6175 153.992 48.0415C153.992 47.1882 154.328 46.5322 155 46.0735C155.672 45.6042 156.707 45.3482 158.104 45.3055L159.56 45.2575V44.7455C159.56 44.0309 159.405 43.5349 159.096 43.2575C158.787 42.9802 158.349 42.8415 157.784 42.8415C157.336 42.8415 156.909 42.9109 156.504 43.0495C156.099 43.1775 155.72 43.3269 155.368 43.4975L154.936 42.4415C155.309 42.2389 155.752 42.0682 156.264 41.9295C156.776 41.7802 157.309 41.7055 157.864 41.7055ZM158.28 46.2815C157.213 46.3242 156.472 46.4949 156.056 46.7935C155.651 47.0922 155.448 47.5135 155.448 48.0575C155.448 48.5375 155.592 48.8895 155.88 49.1135C156.179 49.3375 156.557 49.4495 157.016 49.4495C157.741 49.4495 158.344 49.2522 158.824 48.8575C159.304 48.4522 159.544 47.8335 159.544 47.0015V46.2335L158.28 46.2815ZM163.137 45.2735C163.137 44.0255 163.26 42.9642 163.505 42.0895C163.761 41.2042 164.15 40.5002 164.673 39.9775C165.206 39.4442 165.889 39.0869 166.721 38.9055C167.414 38.7562 168.092 38.6229 168.753 38.5055C169.414 38.3882 170.033 38.2815 170.609 38.1855L170.849 39.4175C170.572 39.4602 170.262 39.5135 169.921 39.5775C169.58 39.6309 169.233 39.6895 168.881 39.7535C168.529 39.8069 168.188 39.8655 167.857 39.9295C167.537 39.9829 167.254 40.0362 167.009 40.0895C166.657 40.1642 166.342 40.2922 166.065 40.4735C165.788 40.6442 165.548 40.8789 165.345 41.1775C165.153 41.4762 164.998 41.8442 164.881 42.2815C164.764 42.7189 164.694 43.2362 164.673 43.8335H164.769C164.918 43.6309 165.121 43.4229 165.377 43.2095C165.644 42.9962 165.958 42.8149 166.321 42.6655C166.694 42.5162 167.116 42.4415 167.585 42.4415C168.332 42.4415 168.95 42.6069 169.441 42.9375C169.942 43.2575 170.316 43.7055 170.561 44.2815C170.817 44.8575 170.945 45.5295 170.945 46.2975C170.945 47.2469 170.78 48.0415 170.449 48.6815C170.118 49.3215 169.66 49.8015 169.073 50.1215C168.486 50.4309 167.804 50.5855 167.025 50.5855C166.438 50.5855 165.905 50.4735 165.425 50.2495C164.945 50.0149 164.534 49.6735 164.193 49.2255C163.852 48.7775 163.59 48.2229 163.409 47.5615C163.228 46.9002 163.137 46.1375 163.137 45.2735ZM167.137 49.4175C167.606 49.4175 168.012 49.3215 168.353 49.1295C168.705 48.9375 168.977 48.6229 169.169 48.1855C169.361 47.7482 169.457 47.1669 169.457 46.4415C169.457 45.5669 169.292 44.8789 168.961 44.3775C168.641 43.8655 168.108 43.6095 167.361 43.6095C166.892 43.6095 166.465 43.7162 166.081 43.9295C165.697 44.1322 165.377 44.3669 165.121 44.6335C164.865 44.9002 164.684 45.1242 164.577 45.3055C164.577 45.8282 164.614 46.3349 164.689 46.8255C164.764 47.3162 164.892 47.7589 165.073 48.1535C165.265 48.5375 165.526 48.8469 165.857 49.0815C166.198 49.3055 166.625 49.4175 167.137 49.4175ZM180.619 46.1215C180.619 46.8362 180.523 47.4709 180.331 48.0255C180.15 48.5695 179.883 49.0335 179.531 49.4175C179.19 49.8015 178.768 50.0949 178.267 50.2975C177.776 50.4895 177.227 50.5855 176.619 50.5855C176.054 50.5855 175.531 50.4895 175.051 50.2975C174.571 50.0949 174.155 49.8015 173.803 49.4175C173.451 49.0335 173.174 48.5695 172.971 48.0255C172.779 47.4709 172.683 46.8362 172.683 46.1215C172.683 45.1722 172.843 44.3722 173.163 43.7215C173.483 43.0602 173.942 42.5589 174.539 42.2175C175.136 41.8655 175.846 41.6895 176.667 41.6895C177.446 41.6895 178.128 41.8655 178.715 42.2175C179.312 42.5589 179.776 43.0602 180.107 43.7215C180.448 44.3722 180.619 45.1722 180.619 46.1215ZM174.139 46.1215C174.139 46.7935 174.224 47.3802 174.395 47.8815C174.576 48.3722 174.854 48.7509 175.227 49.0175C175.6 49.2842 176.075 49.4175 176.651 49.4175C177.227 49.4175 177.702 49.2842 178.075 49.0175C178.448 48.7509 178.72 48.3722 178.891 47.8815C179.072 47.3802 179.163 46.7935 179.163 46.1215C179.163 45.4389 179.072 44.8575 178.891 44.3775C178.71 43.8975 178.432 43.5295 178.059 43.2735C177.696 43.0069 177.222 42.8735 176.635 42.8735C175.76 42.8735 175.126 43.1615 174.731 43.7375C174.336 44.3135 174.139 45.1082 174.139 46.1215ZM188.614 43.0335H185.814V50.4255H184.422V43.0335H181.654V41.8495H188.614V43.0335ZM190.304 50.4255V41.8495H191.712V45.3695H193.936C194.682 45.3695 195.296 45.4602 195.776 45.6415C196.256 45.8229 196.613 46.0949 196.848 46.4575C197.082 46.8095 197.2 47.2575 197.2 47.8015C197.2 48.3349 197.082 48.7989 196.848 49.1935C196.624 49.5882 196.266 49.8922 195.776 50.1055C195.296 50.3189 194.661 50.4255 193.872 50.4255H190.304ZM193.744 49.2895C194.352 49.2895 194.848 49.1882 195.232 48.9855C195.616 48.7722 195.808 48.4042 195.808 47.8815C195.808 47.3589 195.632 47.0069 195.28 46.8255C194.928 46.6335 194.421 46.5375 193.76 46.5375H191.712V49.2895H193.744ZM198.624 50.4255V41.8495H200.032V50.4255H198.624Z" fill="#ECEEEF"/>
<g filter="url(#filter3_d_21_238)">
<rect x="235.099" y="1" width="97.9578" height="61.4765" fill="#373A3C"/>
</g>
<path d="M266.266 33.1615V37.4335H264.89V34.4255H256.298V23.0015H257.738V33.1455H263.45V23.0015H264.874V33.1615H266.266ZM271.277 25.6895C272.013 25.6895 272.642 25.8495 273.165 26.1695C273.698 26.4895 274.104 26.9429 274.381 27.5295C274.669 28.1055 274.813 28.7829 274.813 29.5615V30.4095H268.941C268.962 31.3802 269.208 32.1215 269.677 32.6335C270.157 33.1349 270.824 33.3855 271.677 33.3855C272.221 33.3855 272.701 33.3375 273.117 33.2415C273.544 33.1349 273.981 32.9855 274.429 32.7935V34.0255C273.992 34.2175 273.56 34.3562 273.133 34.4415C272.706 34.5375 272.2 34.5855 271.613 34.5855C270.802 34.5855 270.082 34.4202 269.453 34.0895C268.834 33.7589 268.349 33.2682 267.997 32.6175C267.656 31.9562 267.485 31.1509 267.485 30.2015C267.485 29.2629 267.64 28.4575 267.949 27.7855C268.269 27.1135 268.712 26.5962 269.277 26.2335C269.853 25.8709 270.52 25.6895 271.277 25.6895ZM271.261 26.8415C270.589 26.8415 270.056 27.0602 269.661 27.4975C269.277 27.9242 269.048 28.5215 268.973 29.2895H273.341C273.341 28.7989 273.266 28.3722 273.117 28.0095C272.968 27.6469 272.738 27.3642 272.429 27.1615C272.13 26.9482 271.741 26.8415 271.261 26.8415ZM278.404 25.8495V29.4175H283.06V25.8495H284.468V34.4255H283.06V30.6015H278.404V34.4255H276.996V25.8495H278.404ZM290.432 25.7055C291.477 25.7055 292.251 25.9349 292.752 26.3935C293.253 26.8522 293.504 27.5829 293.504 28.5855V34.4255H292.48L292.208 33.2095H292.144C291.899 33.5189 291.643 33.7802 291.376 33.9935C291.12 34.1962 290.821 34.3455 290.48 34.4415C290.149 34.5375 289.744 34.5855 289.264 34.5855C288.752 34.5855 288.288 34.4949 287.872 34.3135C287.467 34.1322 287.147 33.8549 286.912 33.4815C286.677 33.0975 286.56 32.6175 286.56 32.0415C286.56 31.1882 286.896 30.5322 287.568 30.0735C288.24 29.6042 289.275 29.3482 290.672 29.3055L292.128 29.2575V28.7455C292.128 28.0309 291.973 27.5349 291.664 27.2575C291.355 26.9802 290.917 26.8415 290.352 26.8415C289.904 26.8415 289.477 26.9109 289.072 27.0495C288.667 27.1775 288.288 27.3269 287.936 27.4975L287.504 26.4415C287.877 26.2389 288.32 26.0682 288.832 25.9295C289.344 25.7802 289.877 25.7055 290.432 25.7055ZM290.848 30.2815C289.781 30.3242 289.04 30.4949 288.624 30.7935C288.219 31.0922 288.016 31.5135 288.016 32.0575C288.016 32.5375 288.16 32.8895 288.448 33.1135C288.747 33.3375 289.125 33.4495 289.584 33.4495C290.309 33.4495 290.912 33.2522 291.392 32.8575C291.872 32.4522 292.112 31.8335 292.112 31.0015V30.2335L290.848 30.2815Z" fill="#ECEEEF"/>
<g filter="url(#filter4_d_21_238)">
<rect y="62.4765" width="39.1831" height="61.4765" fill="white"/>
</g>
<path d="M8.18144 95.4604V94.1804H10.4694V86.1004L8.32544 87.7164L7.54144 86.6444L10.8534 84.2604H11.9094V94.1804H13.8134V95.4604H8.18144Z" fill="#373A3C"/>
<g filter="url(#filter5_d_21_238)">
<rect x="39.1831" y="62.4765" width="97.9578" height="61.4765" fill="white"/>
</g>
<path d="M54.5361 73.0015V83.1455H55.9921V87.4335H54.6161V84.4255H46.7601V87.4335H45.3841V83.1455H46.2641C46.6481 82.4842 47.0108 81.7429 47.3521 80.9215C47.7041 80.1002 48.0135 79.2415 48.2801 78.3455C48.5468 77.4389 48.7655 76.5322 48.9361 75.6255C49.1068 74.7189 49.2135 73.8442 49.2561 73.0015H54.5361ZM50.5201 74.2975C50.4775 74.9162 50.3708 75.6149 50.2001 76.3935C50.0401 77.1722 49.8321 77.9722 49.5761 78.7935C49.3308 79.6042 49.0535 80.3882 48.7441 81.1455C48.4455 81.9029 48.1255 82.5695 47.7841 83.1455H53.1121V74.2975H50.5201ZM61.0226 75.6895C61.7586 75.6895 62.388 75.8495 62.9106 76.1695C63.444 76.4895 63.8493 76.9429 64.1266 77.5295C64.4146 78.1055 64.5586 78.7829 64.5586 79.5615V80.4095H58.6866C58.708 81.3802 58.9533 82.1215 59.4226 82.6335C59.9026 83.1349 60.5693 83.3855 61.4226 83.3855C61.9666 83.3855 62.4466 83.3375 62.8626 83.2415C63.2893 83.1349 63.7266 82.9855 64.1746 82.7935V84.0255C63.7373 84.2175 63.3053 84.3562 62.8786 84.4415C62.452 84.5375 61.9453 84.5855 61.3586 84.5855C60.548 84.5855 59.828 84.4202 59.1986 84.0895C58.58 83.7589 58.0946 83.2682 57.7426 82.6175C57.4013 81.9562 57.2306 81.1509 57.2306 80.2015C57.2306 79.2629 57.3853 78.4575 57.6946 77.7855C58.0146 77.1135 58.4573 76.5962 59.0226 76.2335C59.5986 75.8709 60.2653 75.6895 61.0226 75.6895ZM61.0066 76.8415C60.3346 76.8415 59.8013 77.0602 59.4066 77.4975C59.0226 77.9242 58.7933 78.5215 58.7186 79.2895H63.0866C63.0866 78.7989 63.012 78.3722 62.8626 78.0095C62.7133 77.6469 62.484 77.3642 62.1746 77.1615C61.876 76.9482 61.4866 76.8415 61.0066 76.8415ZM66.2939 79.2735C66.2939 78.0255 66.4166 76.9642 66.6619 76.0895C66.9179 75.2042 67.3072 74.5002 67.8299 73.9775C68.3632 73.4442 69.0459 73.0869 69.8779 72.9055C70.5712 72.7562 71.2486 72.6229 71.9099 72.5055C72.5712 72.3882 73.1899 72.2815 73.7659 72.1855L74.0059 73.4175C73.7286 73.4602 73.4192 73.5135 73.0779 73.5775C72.7366 73.6309 72.3899 73.6895 72.0379 73.7535C71.6859 73.8069 71.3446 73.8655 71.0139 73.9295C70.6939 73.9829 70.4112 74.0362 70.1659 74.0895C69.8139 74.1642 69.4992 74.2922 69.2219 74.4735C68.9446 74.6442 68.7046 74.8789 68.5019 75.1775C68.3099 75.4762 68.1552 75.8442 68.0379 76.2815C67.9206 76.7189 67.8512 77.2362 67.8299 77.8335H67.9259C68.0752 77.6309 68.2779 77.4229 68.5339 77.2095C68.8006 76.9962 69.1152 76.8149 69.4779 76.6655C69.8512 76.5162 70.2726 76.4415 70.7419 76.4415C71.4886 76.4415 72.1072 76.6069 72.5979 76.9375C73.0992 77.2575 73.4726 77.7055 73.7179 78.2815C73.9739 78.8575 74.1019 79.5295 74.1019 80.2975C74.1019 81.2469 73.9366 82.0415 73.6059 82.6815C73.2752 83.3215 72.8166 83.8015 72.2299 84.1215C71.6432 84.4309 70.9606 84.5855 70.1819 84.5855C69.5952 84.5855 69.0619 84.4735 68.5819 84.2495C68.1019 84.0149 67.6912 83.6735 67.3499 83.2255C67.0086 82.7775 66.7472 82.2229 66.5659 81.5615C66.3846 80.9002 66.2939 80.1375 66.2939 79.2735ZM70.2939 83.4175C70.7632 83.4175 71.1686 83.3215 71.5099 83.1295C71.8619 82.9375 72.1339 82.6229 72.3259 82.1855C72.5179 81.7482 72.6139 81.1669 72.6139 80.4415C72.6139 79.5669 72.4486 78.8789 72.1179 78.3775C71.7979 77.8655 71.2646 77.6095 70.5179 77.6095C70.0486 77.6095 69.6219 77.7162 69.2379 77.9295C68.8539 78.1322 68.5339 78.3669 68.2779 78.6335C68.0219 78.9002 67.8406 79.1242 67.7339 79.3055C67.7339 79.8282 67.7712 80.3349 67.8459 80.8255C67.9206 81.3162 68.0486 81.7589 68.2299 82.1535C68.4219 82.5375 68.6832 82.8469 69.0139 83.0815C69.3552 83.3055 69.7819 83.4175 70.2939 83.4175ZM74.976 75.8495H76.48L78.336 80.7295C78.4427 81.0175 78.5387 81.2949 78.624 81.5615C78.72 81.8282 78.8054 82.0895 78.88 82.3455C78.9547 82.5909 79.0134 82.8309 79.056 83.0655H79.12C79.184 82.7989 79.2854 82.4522 79.424 82.0255C79.5627 81.5882 79.7067 81.1509 79.856 80.7135L81.6 75.8495H83.12L79.424 85.6095C79.2214 86.1429 78.9814 86.6069 78.704 87.0015C78.4374 87.4069 78.1067 87.7162 77.712 87.9295C77.328 88.1535 76.8587 88.2655 76.304 88.2655C76.048 88.2655 75.824 88.2495 75.632 88.2175C75.44 88.1962 75.2747 88.1695 75.136 88.1375V87.0175C75.2534 87.0389 75.392 87.0602 75.552 87.0815C75.7227 87.1029 75.8987 87.1135 76.08 87.1135C76.4107 87.1135 76.6934 87.0495 76.928 86.9215C77.1734 86.8042 77.3814 86.6282 77.552 86.3935C77.7227 86.1695 77.8667 85.9029 77.984 85.5935L78.432 84.4575L74.976 75.8495ZM87.9163 84.5855C87.1589 84.5855 86.4816 84.4309 85.8843 84.1215C85.2976 83.8122 84.8336 83.3322 84.4923 82.6815C84.1616 82.0309 83.9963 81.1989 83.9963 80.1855C83.9963 79.1295 84.1723 78.2709 84.5243 77.6095C84.8763 76.9482 85.3509 76.4629 85.9483 76.1535C86.5563 75.8442 87.2443 75.6895 88.0123 75.6895C88.4496 75.6895 88.8709 75.7375 89.2763 75.8335C89.6816 75.9189 90.0123 76.0255 90.2683 76.1535L89.8363 77.3215C89.5803 77.2255 89.2816 77.1349 88.9403 77.0495C88.5989 76.9642 88.2789 76.9215 87.9803 76.9215C87.4043 76.9215 86.9296 77.0442 86.5563 77.2895C86.1829 77.5349 85.9056 77.8975 85.7243 78.3775C85.5429 78.8575 85.4523 79.4549 85.4523 80.1695C85.4523 80.8522 85.5429 81.4335 85.7243 81.9135C85.9056 82.3935 86.1776 82.7562 86.5403 83.0015C86.9029 83.2469 87.3563 83.3695 87.9003 83.3695C88.3696 83.3695 88.7803 83.3215 89.1323 83.2255C89.4949 83.1295 89.8256 83.0122 90.1243 82.8735V84.1215C89.8363 84.2709 89.5163 84.3829 89.1643 84.4575C88.8229 84.5429 88.4069 84.5855 87.9163 84.5855ZM98.0838 77.0335H95.2838V84.4255H93.8918V77.0335H91.1238V75.8495H98.0838V77.0335ZM55.8481 99.8495V108.426H54.5841V102.954C54.5841 102.73 54.5895 102.495 54.6001 102.25C54.6215 102.004 54.6428 101.764 54.6641 101.53H54.6161L51.8161 108.426H50.6321L47.9121 101.53H47.8641C47.8855 101.764 47.8961 102.004 47.8961 102.25C47.9068 102.495 47.9121 102.746 47.9121 103.002V108.426H46.6481V99.8495H48.5201L51.2241 106.746L53.9761 99.8495H55.8481ZM67.7856 99.8495V108.426H66.5216V102.954C66.5216 102.73 66.527 102.495 66.5376 102.25C66.559 102.004 66.5803 101.764 66.6016 101.53H66.5536L63.7536 108.426H62.5696L59.8496 101.53H59.8016C59.823 101.764 59.8336 102.004 59.8336 102.25C59.8443 102.495 59.8496 102.746 59.8496 103.002V108.426H58.5856V99.8495H60.4576L63.1616 106.746L65.9136 99.8495H67.7856ZM74.6031 99.6895C75.6591 99.6895 76.5071 100.058 77.1471 100.794C77.7978 101.53 78.1231 102.639 78.1231 104.122C78.1231 105.092 77.9738 105.914 77.6751 106.586C77.3871 107.247 76.9765 107.748 76.4431 108.09C75.9205 108.42 75.3018 108.586 74.5871 108.586C74.1498 108.586 73.7605 108.527 73.4191 108.41C73.0778 108.292 72.7845 108.143 72.5391 107.962C72.3045 107.77 72.1018 107.562 71.9311 107.338H71.8351C71.8565 107.519 71.8778 107.748 71.8991 108.026C71.9205 108.303 71.9311 108.543 71.9311 108.746V112.266H70.5231V99.8495H71.6751L71.8671 101.018H71.9311C72.1018 100.772 72.3045 100.548 72.5391 100.346C72.7845 100.143 73.0725 99.9829 73.4031 99.8655C73.7445 99.7482 74.1445 99.6895 74.6031 99.6895ZM74.3471 100.874C73.7711 100.874 73.3071 100.986 72.9551 101.21C72.6031 101.423 72.3471 101.748 72.1871 102.186C72.0271 102.623 71.9418 103.178 71.9311 103.85V104.122C71.9311 104.826 72.0058 105.423 72.1551 105.914C72.3045 106.404 72.5551 106.778 72.9071 107.034C73.2698 107.29 73.7605 107.418 74.3791 107.418C74.9018 107.418 75.3285 107.274 75.6591 106.986C76.0005 106.698 76.2511 106.308 76.4111 105.818C76.5818 105.316 76.6671 104.746 76.6671 104.106C76.6671 103.124 76.4751 102.34 76.0911 101.754C75.7178 101.167 75.1365 100.874 74.3471 100.874Z" fill="#373A3C"/>
<g filter="url(#filter6_d_21_238)">
<rect x="137.141" y="62.4765" width="97.9578" height="61.4765" fill="white"/>
</g>
<path d="M145.716 95.4255V94.1455H148.004V86.0655L145.86 87.6815L145.076 86.6095L148.388 84.2255H149.444V94.1455H151.348V95.4255H145.716ZM155.086 90.5935V89.2815H160.526V90.5935H155.086ZM164.008 95.4255C163.976 95.2335 163.96 95.0362 163.96 94.8335C163.96 94.1402 164.077 93.5215 164.312 92.9775C164.557 92.4229 164.872 91.9215 165.256 91.4735C165.64 91.0149 166.045 90.5935 166.472 90.2095C166.909 89.8149 167.315 89.4415 167.688 89.0895C168.072 88.7269 168.387 88.3642 168.632 88.0015C168.877 87.6389 169 87.2602 169 86.8655C169 86.4175 168.835 86.0495 168.504 85.7615C168.173 85.4629 167.747 85.3135 167.224 85.3135C166.776 85.3135 166.365 85.4042 165.992 85.5855C165.629 85.7562 165.288 85.9909 164.968 86.2895L164.168 85.3135C164.595 84.9295 165.064 84.6202 165.576 84.3855C166.099 84.1509 166.701 84.0335 167.384 84.0335C168.013 84.0335 168.563 84.1562 169.032 84.4015C169.501 84.6362 169.864 84.9615 170.12 85.3775C170.387 85.7935 170.52 86.2575 170.52 86.7695C170.52 87.2815 170.408 87.7562 170.184 88.1935C169.96 88.6309 169.672 89.0415 169.32 89.4255C168.968 89.8095 168.589 90.1829 168.184 90.5455C167.779 90.8975 167.389 91.2602 167.016 91.6335C166.643 92.0069 166.323 92.3962 166.056 92.8015C165.8 93.2069 165.64 93.6442 165.576 94.1135H170.504V95.4255H164.008ZM184.719 86.8495V94.2415H185.967V98.4015H184.607V95.4255H178.639V98.4015H177.295V94.2415H177.983C178.473 93.5589 178.879 92.8175 179.199 92.0175C179.529 91.2069 179.775 90.3642 179.935 89.4895C180.105 88.6042 180.196 87.7242 180.207 86.8495H184.719ZM181.455 87.9535C181.412 88.6789 181.3 89.4309 181.119 90.2095C180.937 90.9775 180.703 91.7135 180.415 92.4175C180.137 93.1215 179.812 93.7295 179.439 94.2415H183.359V87.9535H181.455ZM189.055 86.8495V90.4175H193.711V86.8495H195.119V95.4255H193.711V91.6015H189.055V95.4255H187.647V86.8495H189.055ZM198.363 95.4255H196.731L199.179 91.8255C198.848 91.7402 198.528 91.6069 198.219 91.4255C197.91 91.2335 197.659 90.9722 197.467 90.6415C197.275 90.3002 197.179 89.8789 197.179 89.3775C197.179 88.5562 197.456 87.9322 198.011 87.5055C198.566 87.0682 199.302 86.8495 200.219 86.8495H204.059V95.4255H202.651V92.0175H200.571L198.363 95.4255ZM198.539 89.3935C198.539 89.8842 198.72 90.2522 199.083 90.4975C199.456 90.7322 199.974 90.8495 200.635 90.8495H202.651V88.0175H200.363C199.712 88.0175 199.243 88.1455 198.955 88.4015C198.678 88.6575 198.539 88.9882 198.539 89.3935Z" fill="#373A3C"/>
<g filter="url(#filter7_d_21_238)">
<rect x="235.099" y="62.4765" width="97.9578" height="61.4765" fill="white"/>
</g>
<path d="M244.913 95.6175C244.263 95.6175 243.703 95.5482 243.233 95.4095C242.764 95.2602 242.337 95.0522 241.953 94.7855L242.705 93.5535C243.004 93.7669 243.335 93.9482 243.697 94.0975C244.06 94.2362 244.471 94.3055 244.929 94.3055C245.644 94.3055 246.22 94.1029 246.657 93.6975C247.095 93.2815 247.313 92.7535 247.313 92.1135C247.313 91.4522 247.084 90.9135 246.625 90.4975C246.177 90.0709 245.532 89.8575 244.689 89.8575H242.705V84.2255H248.241V85.5215H244.065V88.5615H244.865C245.697 88.5615 246.407 88.7055 246.993 88.9935C247.591 89.2815 248.044 89.6815 248.353 90.1935C248.673 90.7055 248.833 91.2922 248.833 91.9535C248.833 92.6682 248.668 93.3029 248.337 93.8575C248.017 94.4015 247.564 94.8335 246.977 95.1535C246.391 95.4629 245.703 95.6175 244.913 95.6175ZM254.971 95.6175C253.723 95.6175 252.774 95.1109 252.123 94.0975C251.472 93.0735 251.147 91.6442 251.147 89.8095C251.147 87.9642 251.478 86.5402 252.139 85.5375C252.811 84.5349 253.766 84.0335 255.003 84.0335C256.251 84.0335 257.2 84.5402 257.851 85.5535C258.502 86.5669 258.827 87.9962 258.827 89.8415C258.827 91.6869 258.491 93.1109 257.819 94.1135C257.158 95.1162 256.208 95.6175 254.971 95.6175ZM254.987 94.3055C255.467 94.3055 255.878 94.1669 256.219 93.8895C256.571 93.6015 256.838 93.1322 257.019 92.4815C257.211 91.8309 257.307 90.9562 257.307 89.8575C257.307 88.3855 257.099 87.2655 256.683 86.4975C256.278 85.7295 255.712 85.3455 254.987 85.3455C254.507 85.3455 254.091 85.4895 253.739 85.7775C253.398 86.0549 253.131 86.5189 252.939 87.1695C252.758 87.8095 252.667 88.6842 252.667 89.7935C252.667 91.2655 252.87 92.3855 253.275 93.1535C253.691 93.9215 254.262 94.3055 254.987 94.3055ZM265.221 86.6895C266.277 86.6895 267.125 87.0575 267.765 87.7935C268.415 88.5295 268.741 89.6389 268.741 91.1215C268.741 92.0922 268.591 92.9135 268.293 93.5855C268.005 94.2469 267.594 94.7482 267.061 95.0895C266.538 95.4202 265.919 95.5855 265.205 95.5855C264.767 95.5855 264.378 95.5269 264.037 95.4095C263.695 95.2922 263.402 95.1429 263.157 94.9615C262.922 94.7695 262.719 94.5615 262.549 94.3375H262.453C262.474 94.5189 262.495 94.7482 262.517 95.0255C262.538 95.3029 262.549 95.5429 262.549 95.7455V99.2655H261.141V86.8495H262.293L262.485 88.0175H262.549C262.719 87.7722 262.922 87.5482 263.157 87.3455C263.402 87.1429 263.69 86.9829 264.021 86.8655C264.362 86.7482 264.762 86.6895 265.221 86.6895ZM264.965 87.8735C264.389 87.8735 263.925 87.9855 263.573 88.2095C263.221 88.4229 262.965 88.7482 262.805 89.1855C262.645 89.6229 262.559 90.1775 262.549 90.8495V91.1215C262.549 91.8255 262.623 92.4229 262.773 92.9135C262.922 93.4042 263.173 93.7775 263.525 94.0335C263.887 94.2895 264.378 94.4175 264.997 94.4175C265.519 94.4175 265.946 94.2735 266.277 93.9855C266.618 93.6975 266.869 93.3082 267.029 92.8175C267.199 92.3162 267.285 91.7455 267.285 91.1055C267.285 90.1242 267.093 89.3402 266.709 88.7535C266.335 88.1669 265.754 87.8735 264.965 87.8735ZM277.109 92.0815C277.109 92.1775 277.104 92.3162 277.093 92.4975C277.093 92.6682 277.088 92.8549 277.077 93.0575C277.067 93.2495 277.056 93.4362 277.045 93.6175C277.035 93.7882 277.024 93.9269 277.013 94.0335L281.605 86.8495H283.333V95.4255H282.021V90.3695C282.021 90.1989 282.021 89.9749 282.021 89.6975C282.032 89.4202 282.043 89.1482 282.053 88.8815C282.064 88.6042 282.075 88.3962 282.085 88.2575L277.525 95.4255H275.781V86.8495H277.109V92.0815ZM291.295 86.8495V88.0335H287.471V95.4255H286.063V86.8495H291.295ZM297.064 86.6895C298.12 86.6895 298.968 87.0575 299.608 87.7935C300.259 88.5295 300.584 89.6389 300.584 91.1215C300.584 92.0922 300.435 92.9135 300.136 93.5855C299.848 94.2469 299.438 94.7482 298.904 95.0895C298.382 95.4202 297.763 95.5855 297.048 95.5855C296.611 95.5855 296.222 95.5269 295.88 95.4095C295.539 95.2922 295.246 95.1429 295 94.9615C294.766 94.7695 294.563 94.5615 294.392 94.3375H294.296C294.318 94.5189 294.339 94.7482 294.36 95.0255C294.382 95.3029 294.392 95.5429 294.392 95.7455V99.2655H292.984V86.8495H294.136L294.328 88.0175H294.392C294.563 87.7722 294.766 87.5482 295 87.3455C295.246 87.1429 295.534 86.9829 295.864 86.8655C296.206 86.7482 296.606 86.6895 297.064 86.6895ZM296.808 87.8735C296.232 87.8735 295.768 87.9855 295.416 88.2095C295.064 88.4229 294.808 88.7482 294.648 89.1855C294.488 89.6229 294.403 90.1775 294.392 90.8495V91.1215C294.392 91.8255 294.467 92.4229 294.616 92.9135C294.766 93.4042 295.016 93.7775 295.368 94.0335C295.731 94.2895 296.222 94.4175 296.84 94.4175C297.363 94.4175 297.79 94.2735 298.12 93.9855C298.462 93.6975 298.712 93.3082 298.872 92.8175C299.043 92.3162 299.128 91.7455 299.128 91.1055C299.128 90.1242 298.936 89.3402 298.552 88.7535C298.179 88.1669 297.598 87.8735 296.808 87.8735ZM306.076 86.7055C307.122 86.7055 307.895 86.9349 308.396 87.3935C308.898 87.8522 309.148 88.5829 309.148 89.5855V95.4255H308.124L307.852 94.2095H307.788C307.543 94.5189 307.287 94.7802 307.02 94.9935C306.764 95.1962 306.466 95.3455 306.124 95.4415C305.794 95.5375 305.388 95.5855 304.908 95.5855C304.396 95.5855 303.932 95.4949 303.516 95.3135C303.111 95.1322 302.791 94.8549 302.556 94.4815C302.322 94.0975 302.204 93.6175 302.204 93.0415C302.204 92.1882 302.54 91.5322 303.212 91.0735C303.884 90.6042 304.919 90.3482 306.316 90.3055L307.772 90.2575V89.7455C307.772 89.0309 307.618 88.5349 307.308 88.2575C306.999 87.9802 306.562 87.8415 305.996 87.8415C305.548 87.8415 305.122 87.9109 304.716 88.0495C304.311 88.1775 303.932 88.3269 303.58 88.4975L303.148 87.4415C303.522 87.2389 303.964 87.0682 304.476 86.9295C304.988 86.7802 305.522 86.7055 306.076 86.7055ZM306.492 91.2815C305.426 91.3242 304.684 91.4949 304.268 91.7935C303.863 92.0922 303.66 92.5135 303.66 93.0575C303.66 93.5375 303.804 93.8895 304.092 94.1135C304.391 94.3375 304.77 94.4495 305.228 94.4495C305.954 94.4495 306.556 94.2522 307.036 93.8575C307.516 93.4522 307.756 92.8335 307.756 92.0015V91.2335L306.492 91.2815Z" fill="#373A3C"/>
<g filter="url(#filter8_d_21_238)">
<rect y="123.953" width="39.1831" height="61.4765" fill="white"/>
</g>
<path d="M7.28544 156.937C7.25344 156.745 7.23744 156.547 7.23744 156.345C7.23744 155.651 7.35477 155.033 7.58944 154.489C7.83477 153.934 8.14944 153.433 8.53344 152.985C8.91744 152.526 9.32277 152.105 9.74944 151.721C10.1868 151.326 10.5921 150.953 10.9654 150.601C11.3494 150.238 11.6641 149.875 11.9094 149.513C12.1548 149.15 12.2774 148.771 12.2774 148.377C12.2774 147.929 12.1121 147.561 11.7814 147.273C11.4508 146.974 11.0241 146.825 10.5014 146.825C10.0534 146.825 9.64277 146.915 9.26944 147.097C8.90677 147.267 8.56544 147.502 8.24544 147.801L7.44544 146.825C7.87211 146.441 8.34144 146.131 8.85344 145.897C9.37611 145.662 9.97878 145.545 10.6614 145.545C11.2908 145.545 11.8401 145.667 12.3094 145.913C12.7788 146.147 13.1414 146.473 13.3974 146.889C13.6641 147.305 13.7974 147.769 13.7974 148.281C13.7974 148.793 13.6854 149.267 13.4614 149.705C13.2374 150.142 12.9494 150.553 12.5974 150.937C12.2454 151.321 11.8668 151.694 11.4614 152.057C11.0561 152.409 10.6668 152.771 10.2934 153.145C9.92011 153.518 9.60011 153.907 9.33344 154.313C9.07744 154.718 8.91744 155.155 8.85344 155.625H13.7814V156.937H7.28544Z" fill="#373A3C"/>
<g filter="url(#filter9_d_21_238)">
<rect x="39.1831" y="123.953" width="97.9578" height="61.4765" fill="white"/>
</g>
<path d="M48.3166 151.698C48.3166 152.583 48.2046 153.388 47.9806 154.114C47.7566 154.828 47.4206 155.447 46.9726 155.97C46.5353 156.492 45.986 156.892 45.3246 157.17C44.674 157.447 43.9166 157.586 43.0526 157.586C42.1566 157.586 41.378 157.447 40.7166 157.17C40.0553 156.882 39.506 156.482 39.0686 155.97C38.6313 155.447 38.306 154.823 38.0926 154.098C37.8793 153.372 37.7726 152.567 37.7726 151.682C37.7726 150.508 37.9646 149.484 38.3486 148.61C38.7326 147.735 39.314 147.052 40.0926 146.562C40.882 146.071 41.874 145.826 43.0686 145.826C44.21 145.826 45.17 146.071 45.9486 146.562C46.7273 147.042 47.314 147.724 47.7086 148.61C48.114 149.484 48.3166 150.514 48.3166 151.698ZM39.2926 151.698C39.2926 152.658 39.426 153.484 39.6926 154.178C39.9593 154.871 40.37 155.404 40.9246 155.778C41.49 156.151 42.1993 156.338 43.0526 156.338C43.9166 156.338 44.6206 156.151 45.1646 155.778C45.7193 155.404 46.13 154.871 46.3966 154.178C46.6633 153.484 46.7966 152.658 46.7966 151.698C46.7966 150.258 46.498 149.132 45.9006 148.322C45.3033 147.5 44.3593 147.09 43.0686 147.09C42.2046 147.09 41.49 147.276 40.9246 147.65C40.37 148.012 39.9593 148.54 39.6926 149.234C39.426 149.916 39.2926 150.738 39.2926 151.698ZM56.5766 150.034H53.7766V157.426H52.3846V150.034H49.6166V148.85H56.5766V150.034ZM67.466 148.85V157.426H66.202V151.954C66.202 151.73 66.2073 151.495 66.218 151.25C66.2393 151.004 66.2607 150.764 66.282 150.53H66.234L63.434 157.426H62.25L59.53 150.53H59.482C59.5033 150.764 59.514 151.004 59.514 151.25C59.5247 151.495 59.53 151.746 59.53 152.002V157.426H58.266V148.85H60.138L62.842 155.746L65.594 148.85H67.466ZM70.2035 157.426V148.85H71.6115V152.37H73.8355C74.5822 152.37 75.1955 152.46 75.6755 152.642C76.1555 152.823 76.5128 153.095 76.7475 153.458C76.9822 153.81 77.0995 154.258 77.0995 154.802C77.0995 155.335 76.9822 155.799 76.7475 156.194C76.5235 156.588 76.1662 156.892 75.6755 157.106C75.1955 157.319 74.5608 157.426 73.7715 157.426H70.2035ZM73.6435 156.29C74.2515 156.29 74.7475 156.188 75.1315 155.986C75.5155 155.772 75.7075 155.404 75.7075 154.882C75.7075 154.359 75.5315 154.007 75.1795 153.826C74.8275 153.634 74.3208 153.538 73.6595 153.538H71.6115V156.29H73.6435ZM78.5235 157.426V148.85H79.9315V157.426H78.5235ZM89.5526 151.01C89.5526 151.543 89.3926 151.959 89.0726 152.258C88.7526 152.556 88.342 152.759 87.8406 152.866V152.93C88.374 153.004 88.838 153.196 89.2326 153.506C89.6273 153.804 89.8246 154.274 89.8246 154.914C89.8246 155.276 89.7553 155.612 89.6166 155.922C89.4886 156.231 89.286 156.498 89.0086 156.722C88.7313 156.946 88.374 157.122 87.9366 157.25C87.4993 157.367 86.9713 157.426 86.3526 157.426H82.6566V148.85H86.3366C86.9446 148.85 87.4886 148.919 87.9686 149.058C88.4593 149.186 88.8433 149.41 89.1206 149.73C89.4086 150.039 89.5526 150.466 89.5526 151.01ZM88.3686 154.914C88.3686 154.423 88.182 154.071 87.8086 153.858C87.4353 153.644 86.886 153.538 86.1606 153.538H84.0646V156.29H86.1926C86.8966 156.29 87.4353 156.188 87.8086 155.986C88.182 155.772 88.3686 155.415 88.3686 154.914ZM88.1286 151.186C88.1286 150.78 87.9793 150.487 87.6806 150.306C87.3926 150.114 86.918 150.018 86.2566 150.018H84.0646V152.37H86.0006C86.694 152.37 87.222 152.274 87.5846 152.082C87.9473 151.89 88.1286 151.591 88.1286 151.186ZM44.6846 181.426H43.2606V174.018H40.7326C40.626 175.372 40.4926 176.53 40.3326 177.49C40.1726 178.439 39.97 179.212 39.7246 179.81C39.4793 180.407 39.186 180.844 38.8446 181.122C38.5033 181.399 38.1033 181.538 37.6446 181.538C37.506 181.538 37.3673 181.527 37.2286 181.506C37.1006 181.495 36.994 181.468 36.9086 181.426V180.37C36.9726 180.391 37.042 180.407 37.1166 180.418C37.1913 180.428 37.266 180.434 37.3406 180.434C37.5753 180.434 37.7886 180.338 37.9806 180.146C38.1726 179.954 38.3433 179.66 38.4926 179.266C38.6526 178.871 38.7966 178.375 38.9246 177.778C39.0526 177.17 39.1646 176.455 39.2606 175.634C39.3566 174.812 39.442 173.884 39.5166 172.85H44.6846V181.426ZM54.6546 172.85V181.426H53.2466V174.05H48.8146V181.426H47.4066V172.85H54.6546Z" fill="#373A3C"/>
<g filter="url(#filter10_d_21_238)">
<rect x="137.141" y="123.953" width="97.9578" height="61.4765" fill="white"/>
</g>
<path d="M145.716 157.426V156.146H148.004V148.066L145.86 149.682L145.076 148.61L148.388 146.226H149.444V156.146H151.348V157.426H145.716ZM165.531 148.85V156.242H166.779V160.402H165.419V157.426H159.451V160.402H158.107V156.242H158.795C159.286 155.559 159.691 154.818 160.011 154.018C160.342 153.207 160.587 152.364 160.747 151.49C160.918 150.604 161.008 149.724 161.019 148.85H165.531ZM162.267 149.954C162.224 150.679 162.112 151.431 161.931 152.21C161.75 152.978 161.515 153.714 161.227 154.418C160.95 155.122 160.624 155.73 160.251 156.242H164.171V149.954H162.267ZM171.772 148.69C172.508 148.69 173.137 148.85 173.66 149.17C174.193 149.49 174.599 149.943 174.876 150.53C175.164 151.106 175.308 151.783 175.308 152.562V153.41H169.436C169.457 154.38 169.703 155.122 170.172 155.634C170.652 156.135 171.319 156.386 172.172 156.386C172.716 156.386 173.196 156.338 173.612 156.242C174.039 156.135 174.476 155.986 174.924 155.794V157.026C174.487 157.218 174.055 157.356 173.628 157.442C173.201 157.538 172.695 157.586 172.108 157.586C171.297 157.586 170.577 157.42 169.948 157.09C169.329 156.759 168.844 156.268 168.492 155.618C168.151 154.956 167.98 154.151 167.98 153.202C167.98 152.263 168.135 151.458 168.444 150.786C168.764 150.114 169.207 149.596 169.772 149.234C170.348 148.871 171.015 148.69 171.772 148.69ZM171.756 149.842C171.084 149.842 170.551 150.06 170.156 150.498C169.772 150.924 169.543 151.522 169.468 152.29H173.836C173.836 151.799 173.761 151.372 173.612 151.01C173.463 150.647 173.233 150.364 172.924 150.162C172.625 149.948 172.236 149.842 171.756 149.842ZM178.899 148.85V152.418H183.555V148.85H184.963V157.426H183.555V153.602H178.899V157.426H177.491V148.85H178.899ZM191.631 152.37C192.377 152.37 192.996 152.46 193.487 152.642C193.977 152.823 194.345 153.095 194.591 153.458C194.847 153.81 194.975 154.258 194.975 154.802C194.975 155.335 194.852 155.799 194.607 156.194C194.372 156.588 194.004 156.892 193.503 157.106C193.001 157.319 192.356 157.426 191.567 157.426H187.679V148.85H189.087V152.37H191.631ZM193.567 154.882C193.567 154.359 193.38 154.007 193.007 153.826C192.644 153.634 192.132 153.538 191.471 153.538H189.087V156.29H191.503C192.1 156.29 192.591 156.183 192.975 155.97C193.369 155.756 193.567 155.394 193.567 154.882Z" fill="#373A3C"/>
<g filter="url(#filter11_d_21_238)">
<rect x="235.099" y="123.953" width="97.9578" height="61.4765" fill="white"/>
</g>
<path d="M262.84 159.618C262.189 159.618 261.629 159.548 261.16 159.41C260.69 159.26 260.264 159.052 259.88 158.786L260.632 157.554C260.93 157.767 261.261 157.948 261.624 158.098C261.986 158.236 262.397 158.306 262.856 158.306C263.57 158.306 264.146 158.103 264.584 157.698C265.021 157.282 265.24 156.754 265.24 156.114C265.24 155.452 265.01 154.914 264.552 154.498C264.104 154.071 263.458 153.858 262.616 153.858H260.632V148.226H266.168V149.522H261.992V152.562H262.792C263.624 152.562 264.333 152.706 264.92 152.994C265.517 153.282 265.97 153.682 266.28 154.194C266.6 154.706 266.76 155.292 266.76 155.954C266.76 156.668 266.594 157.303 266.264 157.858C265.944 158.402 265.49 158.834 264.904 159.154C264.317 159.463 263.629 159.618 262.84 159.618ZM272.897 159.618C271.649 159.618 270.7 159.111 270.049 158.098C269.399 157.074 269.073 155.644 269.073 153.81C269.073 151.964 269.404 150.54 270.065 149.538C270.737 148.535 271.692 148.034 272.929 148.034C274.177 148.034 275.127 148.54 275.777 149.554C276.428 150.567 276.753 151.996 276.753 153.842C276.753 155.687 276.417 157.111 275.745 158.114C275.084 159.116 274.135 159.618 272.897 159.618ZM272.913 158.306C273.393 158.306 273.804 158.167 274.145 157.89C274.497 157.602 274.764 157.132 274.945 156.482C275.137 155.831 275.233 154.956 275.233 153.858C275.233 152.386 275.025 151.266 274.609 150.498C274.204 149.73 273.639 149.346 272.913 149.346C272.433 149.346 272.017 149.49 271.665 149.778C271.324 150.055 271.057 150.519 270.865 151.17C270.684 151.81 270.593 152.684 270.593 153.794C270.593 155.266 270.796 156.386 271.201 157.154C271.617 157.922 272.188 158.306 272.913 158.306ZM282.491 159.618C281.243 159.618 280.294 159.111 279.643 158.098C278.993 157.074 278.667 155.644 278.667 153.81C278.667 151.964 278.998 150.54 279.659 149.538C280.331 148.535 281.286 148.034 282.523 148.034C283.771 148.034 284.721 148.54 285.371 149.554C286.022 150.567 286.347 151.996 286.347 153.842C286.347 155.687 286.011 157.111 285.339 158.114C284.678 159.116 283.729 159.618 282.491 159.618ZM282.507 158.306C282.987 158.306 283.398 158.167 283.739 157.89C284.091 157.602 284.358 157.132 284.539 156.482C284.731 155.831 284.827 154.956 284.827 153.858C284.827 152.386 284.619 151.266 284.203 150.498C283.798 149.73 283.233 149.346 282.507 149.346C282.027 149.346 281.611 149.49 281.259 149.778C280.918 150.055 280.651 150.519 280.459 151.17C280.278 151.81 280.187 152.684 280.187 153.794C280.187 155.266 280.39 156.386 280.795 157.154C281.211 157.922 281.782 158.306 282.507 158.306ZM292.741 150.69C293.797 150.69 294.645 151.058 295.285 151.794C295.936 152.53 296.261 153.639 296.261 155.122C296.261 156.092 296.112 156.914 295.813 157.586C295.525 158.247 295.114 158.748 294.581 159.09C294.058 159.42 293.44 159.586 292.725 159.586C292.288 159.586 291.898 159.527 291.557 159.41C291.216 159.292 290.922 159.143 290.677 158.962C290.442 158.77 290.24 158.562 290.069 158.338H289.973C289.994 158.519 290.016 158.748 290.037 159.026C290.058 159.303 290.069 159.543 290.069 159.746V163.266H288.661V150.85H289.813L290.005 152.018H290.069C290.24 151.772 290.442 151.548 290.677 151.346C290.922 151.143 291.21 150.983 291.541 150.866C291.882 150.748 292.282 150.69 292.741 150.69ZM292.485 151.874C291.909 151.874 291.445 151.986 291.093 152.21C290.741 152.423 290.485 152.748 290.325 153.186C290.165 153.623 290.08 154.178 290.069 154.85V155.122C290.069 155.826 290.144 156.423 290.293 156.914C290.442 157.404 290.693 157.778 291.045 158.034C291.408 158.29 291.898 158.418 292.517 158.418C293.04 158.418 293.466 158.274 293.797 157.986C294.138 157.698 294.389 157.308 294.549 156.818C294.72 156.316 294.805 155.746 294.805 155.106C294.805 154.124 294.613 153.34 294.229 152.754C293.856 152.167 293.274 151.874 292.485 151.874Z" fill="#373A3C"/>
<g filter="url(#filter12_d_21_238)">
<rect y="185.429" width="39.1831" height="61.4765" fill="white"/>
</g>
<path d="M10.0214 218.605C9.32811 218.605 8.72544 218.515 8.21344 218.333C7.70144 218.141 7.26411 217.912 6.90144 217.645L7.55744 216.445C7.85611 216.669 8.20277 216.867 8.59744 217.037C8.99211 217.208 9.47211 217.293 10.0374 217.293C10.7414 217.293 11.2961 217.107 11.7014 216.733C12.1174 216.36 12.3254 215.896 12.3254 215.341C12.3254 214.947 12.2188 214.589 12.0054 214.269C11.7921 213.939 11.4614 213.672 11.0134 213.469C10.5761 213.267 10.0054 213.165 9.30144 213.165H8.40544V211.997H9.23744C9.86678 211.997 10.3841 211.901 10.7894 211.709C11.2054 211.517 11.5148 211.267 11.7174 210.957C11.9201 210.648 12.0214 210.323 12.0214 209.981C12.0214 209.48 11.8294 209.075 11.4454 208.765C11.0721 208.456 10.6081 208.301 10.0534 208.301C9.55211 208.301 9.10411 208.387 8.70944 208.557C8.32544 208.717 8.01077 208.899 7.76544 209.101L7.17344 207.965C7.49344 207.752 7.90411 207.544 8.40544 207.341C8.90677 207.128 9.49344 207.021 10.1654 207.021C10.8694 207.021 11.4668 207.149 11.9574 207.405C12.4481 207.661 12.8214 208.003 13.0774 208.429C13.3441 208.845 13.4774 209.299 13.4774 209.789C13.4774 210.419 13.3174 210.947 12.9974 211.373C12.6881 211.8 12.2454 212.152 11.6694 212.429C12.3414 212.685 12.8641 213.064 13.2374 213.565C13.6214 214.056 13.8134 214.632 13.8134 215.293C13.8134 215.848 13.6748 216.381 13.3974 216.893C13.1308 217.395 12.7148 217.805 12.1494 218.125C11.5948 218.445 10.8854 218.605 10.0214 218.605Z" fill="#373A3C"/>
<g filter="url(#filter13_d_21_238)">
<rect x="39.1831" y="185.429" width="97.9578" height="61.4765" fill="white"/>
</g>
<path d="M38.1546 206.426V196.43H45.6586V206.426H44.4126V197.536H39.4146V206.426H38.1546ZM54.7509 202.66C54.7509 203.285 54.6669 203.84 54.4989 204.326C54.3402 204.802 54.1069 205.208 53.7989 205.544C53.5002 205.88 53.1315 206.136 52.6929 206.314C52.2635 206.482 51.7829 206.566 51.2509 206.566C50.7562 206.566 50.2989 206.482 49.8789 206.314C49.4589 206.136 49.0949 205.88 48.7869 205.544C48.4789 205.208 48.2362 204.802 48.0589 204.326C47.8909 203.84 47.8069 203.285 47.8069 202.66C47.8069 201.829 47.9469 201.129 48.2269 200.56C48.5069 199.981 48.9082 199.542 49.4309 199.244C49.9535 198.936 50.5742 198.782 51.2929 198.782C51.9742 198.782 52.5715 198.936 53.0849 199.244C53.6075 199.542 54.0135 199.981 54.3029 200.56C54.6015 201.129 54.7509 201.829 54.7509 202.66ZM49.0809 202.66C49.0809 203.248 49.1555 203.761 49.3049 204.2C49.4635 204.629 49.7062 204.96 50.0329 205.194C50.3595 205.427 50.7749 205.544 51.2789 205.544C51.7829 205.544 52.1982 205.427 52.5249 205.194C52.8515 204.96 53.0895 204.629 53.2389 204.2C53.3975 203.761 53.4769 203.248 53.4769 202.66C53.4769 202.062 53.3975 201.554 53.2389 201.134C53.0802 200.714 52.8375 200.392 52.5109 200.168C52.1935 199.934 51.7782 199.818 51.2649 199.818C50.4995 199.818 49.9442 200.07 49.5989 200.574C49.2535 201.078 49.0809 201.773 49.0809 202.66ZM57.9354 198.922V202.044H62.0094V198.922H63.2414V206.426H62.0094V203.08H57.9354V206.426H56.7034V198.922H57.9354ZM66.7795 203.5C66.7795 203.584 66.7748 203.705 66.7655 203.864C66.7655 204.013 66.7608 204.176 66.7515 204.354C66.7422 204.522 66.7328 204.685 66.7235 204.844C66.7142 204.993 66.7048 205.114 66.6955 205.208L70.7135 198.922H72.2255V206.426H71.0775V202.002C71.0775 201.852 71.0775 201.656 71.0775 201.414C71.0868 201.171 71.0962 200.933 71.1055 200.7C71.1148 200.457 71.1242 200.275 71.1335 200.154L67.1435 206.426H65.6175V198.922H66.7795V203.5ZM76.5876 198.782C77.1569 198.782 77.6516 198.861 78.0716 199.02C78.4916 199.169 78.8183 199.393 79.0516 199.692C79.2849 199.981 79.4016 200.336 79.4016 200.756C79.4016 201.213 79.2756 201.577 79.0236 201.848C78.7716 202.109 78.4263 202.3 77.9876 202.422V202.478C78.2863 202.562 78.5616 202.678 78.8136 202.828C79.0656 202.977 79.2663 203.173 79.4156 203.416C79.5743 203.658 79.6536 203.971 79.6536 204.354C79.6536 204.764 79.5369 205.138 79.3036 205.474C79.0796 205.81 78.7296 206.076 78.2536 206.272C77.7869 206.468 77.1849 206.566 76.4476 206.566C76.0929 206.566 75.7523 206.547 75.4256 206.51C75.1083 206.472 74.8189 206.416 74.5576 206.342C74.3056 206.267 74.0816 206.178 73.8856 206.076V204.97C74.2029 205.119 74.5763 205.254 75.0056 205.376C75.4443 205.497 75.9203 205.558 76.4336 205.558C76.8069 205.558 77.1429 205.516 77.4416 205.432C77.7496 205.348 77.9923 205.217 78.1696 205.04C78.3469 204.853 78.4356 204.601 78.4356 204.284C78.4356 203.994 78.3563 203.761 78.1976 203.584C78.0389 203.397 77.8009 203.257 77.4836 203.164C77.1756 203.07 76.7789 203.024 76.2936 203.024H75.2856V202.016H76.0976C76.7416 202.016 77.2549 201.932 77.6376 201.764C78.0296 201.586 78.2256 201.288 78.2256 200.868C78.2256 200.513 78.0763 200.247 77.7776 200.07C77.4883 199.892 77.0683 199.804 76.5176 199.804C76.1069 199.804 75.7429 199.846 75.4256 199.93C75.1176 200.004 74.7769 200.121 74.4036 200.28L73.9696 199.3C74.3709 199.122 74.7909 198.992 75.2296 198.908C75.6683 198.824 76.1209 198.782 76.5876 198.782ZM82.6389 203.5C82.6389 203.584 82.6342 203.705 82.6249 203.864C82.6249 204.013 82.6202 204.176 82.6109 204.354C82.6015 204.522 82.5922 204.685 82.5829 204.844C82.5735 204.993 82.5642 205.114 82.5549 205.208L86.5729 198.922H88.0849V206.426H86.9369V202.002C86.9369 201.852 86.9369 201.656 86.9369 201.414C86.9462 201.171 86.9555 200.933 86.9649 200.7C86.9742 200.457 86.9835 200.275 86.9929 200.154L83.0029 206.426H81.4769V198.922H82.6389V203.5ZM95.653 199.958H93.203V206.426H91.985V199.958H89.563V198.922H95.653V199.958ZM100.589 202.002C101.242 202.002 101.784 202.081 102.213 202.24C102.642 202.398 102.964 202.636 103.179 202.954C103.403 203.262 103.515 203.654 103.515 204.13C103.515 204.596 103.408 205.002 103.193 205.348C102.988 205.693 102.666 205.959 102.227 206.146C101.788 206.332 101.224 206.426 100.533 206.426H97.1312V198.922H98.3632V202.002H100.589ZM102.283 204.2C102.283 203.742 102.12 203.434 101.793 203.276C101.476 203.108 101.028 203.024 100.449 203.024H98.3632V205.432H100.477C101 205.432 101.429 205.338 101.765 205.152C102.11 204.965 102.283 204.648 102.283 204.2ZM44.3286 222.922V230.426H43.0966V223.972H39.2186V230.426H37.9866V222.922H44.3286ZM53.247 226.66C53.247 227.285 53.163 227.84 52.995 228.326C52.8363 228.802 52.603 229.208 52.295 229.544C51.9963 229.88 51.6276 230.136 51.189 230.314C50.7596 230.482 50.279 230.566 49.747 230.566C49.2523 230.566 48.795 230.482 48.375 230.314C47.955 230.136 47.591 229.88 47.283 229.544C46.975 229.208 46.7323 228.802 46.555 228.326C46.387 227.84 46.303 227.285 46.303 226.66C46.303 225.829 46.443 225.129 46.723 224.56C47.003 223.981 47.4043 223.542 47.927 223.244C48.4496 222.936 49.0703 222.782 49.789 222.782C50.4703 222.782 51.0676 222.936 51.581 223.244C52.1036 223.542 52.5096 223.981 52.799 224.56C53.0976 225.129 53.247 225.829 53.247 226.66ZM47.577 226.66C47.577 227.248 47.6516 227.761 47.801 228.2C47.9596 228.629 48.2023 228.96 48.529 229.194C48.8556 229.427 49.271 229.544 49.775 229.544C50.279 229.544 50.6943 229.427 51.021 229.194C51.3476 228.96 51.5856 228.629 51.735 228.2C51.8936 227.761 51.973 227.248 51.973 226.66C51.973 226.062 51.8936 225.554 51.735 225.134C51.5763 224.714 51.3336 224.392 51.007 224.168C50.6896 223.934 50.2743 223.818 49.761 223.818C48.9956 223.818 48.4403 224.07 48.095 224.574C47.7496 225.078 47.577 225.773 47.577 226.66ZM58.7695 222.782C59.6935 222.782 60.4355 223.104 60.9955 223.748C61.5649 224.392 61.8495 225.362 61.8495 226.66C61.8495 227.509 61.7189 228.228 61.4575 228.816C61.2055 229.394 60.8462 229.833 60.3795 230.132C59.9222 230.421 59.3809 230.566 58.7555 230.566C58.3729 230.566 58.0322 230.514 57.7335 230.412C57.4349 230.309 57.1782 230.178 56.9635 230.02C56.7582 229.852 56.5809 229.67 56.4315 229.474H56.3475C56.3662 229.632 56.3849 229.833 56.4035 230.076C56.4222 230.318 56.4315 230.528 56.4315 230.706V233.786H55.1995V222.922H56.2075L56.3755 223.944H56.4315C56.5809 223.729 56.7582 223.533 56.9635 223.356C57.1782 223.178 57.4302 223.038 57.7195 222.936C58.0182 222.833 58.3682 222.782 58.7695 222.782ZM58.5455 223.818C58.0415 223.818 57.6355 223.916 57.3275 224.112C57.0195 224.298 56.7955 224.583 56.6555 224.966C56.5155 225.348 56.4409 225.834 56.4315 226.422V226.66C56.4315 227.276 56.4969 227.798 56.6275 228.228C56.7582 228.657 56.9775 228.984 57.2855 229.208C57.6029 229.432 58.0322 229.544 58.5735 229.544C59.0309 229.544 59.4042 229.418 59.6935 229.166C59.9922 228.914 60.2115 228.573 60.3515 228.144C60.5009 227.705 60.5755 227.206 60.5755 226.646C60.5755 225.787 60.4075 225.101 60.0715 224.588C59.7449 224.074 59.2362 223.818 58.5455 223.818ZM64.2748 230.426H62.8468L64.9888 227.276C64.6995 227.201 64.4195 227.084 64.1488 226.926C63.8781 226.758 63.6588 226.529 63.4908 226.24C63.3228 225.941 63.2388 225.572 63.2388 225.134C63.2388 224.415 63.4815 223.869 63.9668 223.496C64.4521 223.113 65.0961 222.922 65.8988 222.922H69.2588V230.426H68.0268V227.444H66.2068L64.2748 230.426ZM64.4288 225.148C64.4288 225.577 64.5875 225.899 64.9048 226.114C65.2315 226.319 65.6841 226.422 66.2628 226.422H68.0268V223.944H66.0248C65.4555 223.944 65.0448 224.056 64.7928 224.28C64.5501 224.504 64.4288 224.793 64.4288 225.148ZM77.2051 222.922V229.39H78.2971V233.03H77.1071V230.426H71.8851V233.03H70.7091V229.39H71.3111C71.7404 228.792 72.0951 228.144 72.3751 227.444C72.6644 226.734 72.8791 225.997 73.0191 225.232C73.1684 224.457 73.2478 223.687 73.2571 222.922H77.2051ZM74.3491 223.888C74.3118 224.522 74.2138 225.18 74.0551 225.862C73.8964 226.534 73.6911 227.178 73.4391 227.794C73.1964 228.41 72.9118 228.942 72.5851 229.39H76.0151V223.888H74.3491ZM86.2919 226.66C86.2919 227.285 86.2079 227.84 86.0399 228.326C85.8812 228.802 85.6479 229.208 85.3399 229.544C85.0412 229.88 84.6725 230.136 84.2339 230.314C83.8045 230.482 83.3239 230.566 82.7919 230.566C82.2972 230.566 81.8399 230.482 81.4199 230.314C80.9999 230.136 80.6359 229.88 80.3279 229.544C80.0199 229.208 79.7772 228.802 79.5999 228.326C79.4319 227.84 79.3479 227.285 79.3479 226.66C79.3479 225.829 79.4879 225.129 79.7679 224.56C80.0479 223.981 80.4492 223.542 80.9719 223.244C81.4945 222.936 82.1152 222.782 82.8339 222.782C83.5152 222.782 84.1125 222.936 84.6259 223.244C85.1485 223.542 85.5545 223.981 85.8439 224.56C86.1425 225.129 86.2919 225.829 86.2919 226.66ZM80.6219 226.66C80.6219 227.248 80.6965 227.761 80.8459 228.2C81.0045 228.629 81.2472 228.96 81.5739 229.194C81.9005 229.427 82.3159 229.544 82.8199 229.544C83.3239 229.544 83.7392 229.427 84.0659 229.194C84.3925 228.96 84.6305 228.629 84.7799 228.2C84.9385 227.761 85.0179 227.248 85.0179 226.66C85.0179 226.062 84.9385 225.554 84.7799 225.134C84.6212 224.714 84.3785 224.392 84.0519 224.168C83.7345 223.934 83.3192 223.818 82.8059 223.818C82.0405 223.818 81.4852 224.07 81.1399 224.574C80.7945 225.078 80.6219 225.773 80.6219 226.66ZM89.1857 225.652C89.1857 226.09 89.3071 226.417 89.5497 226.632C89.8017 226.837 90.1611 226.94 90.6277 226.94C91.0944 226.94 91.5191 226.87 91.9017 226.73C92.2844 226.58 92.6764 226.384 93.0777 226.142V222.922H94.3097V230.426H93.0777V227.08C92.6577 227.35 92.2424 227.565 91.8317 227.724C91.4304 227.873 90.9451 227.948 90.3757 227.948C89.6104 227.948 89.0131 227.747 88.5837 227.346C88.1637 226.944 87.9537 226.408 87.9537 225.736V222.922H89.1857V225.652ZM97.9257 222.922V226.044H102V222.922H103.232V230.426H102V227.08H97.9257V230.426H96.6937V222.922H97.9257ZM112.132 226.66C112.132 227.285 112.048 227.84 111.88 228.326C111.721 228.802 111.488 229.208 111.18 229.544C110.881 229.88 110.512 230.136 110.074 230.314C109.644 230.482 109.164 230.566 108.632 230.566C108.137 230.566 107.68 230.482 107.26 230.314C106.84 230.136 106.476 229.88 106.168 229.544C105.86 229.208 105.617 228.802 105.44 228.326C105.272 227.84 105.188 227.285 105.188 226.66C105.188 225.829 105.328 225.129 105.608 224.56C105.888 223.981 106.289 223.542 106.812 223.244C107.334 222.936 107.955 222.782 108.674 222.782C109.355 222.782 109.952 222.936 110.466 223.244C110.988 223.542 111.394 223.981 111.684 224.56C111.982 225.129 112.132 225.829 112.132 226.66ZM106.462 226.66C106.462 227.248 106.536 227.761 106.686 228.2C106.844 228.629 107.087 228.96 107.414 229.194C107.74 229.427 108.156 229.544 108.66 229.544C109.164 229.544 109.579 229.427 109.906 229.194C110.232 228.96 110.47 228.629 110.62 228.2C110.778 227.761 110.858 227.248 110.858 226.66C110.858 226.062 110.778 225.554 110.62 225.134C110.461 224.714 110.218 224.392 109.892 224.168C109.574 223.934 109.159 223.818 108.646 223.818C107.88 223.818 107.325 224.07 106.98 224.574C106.634 225.078 106.462 225.773 106.462 226.66ZM117.094 230.566C116.432 230.566 115.839 230.43 115.316 230.16C114.803 229.889 114.397 229.469 114.098 228.9C113.809 228.33 113.664 227.602 113.664 226.716C113.664 225.792 113.818 225.04 114.126 224.462C114.434 223.883 114.85 223.458 115.372 223.188C115.904 222.917 116.506 222.782 117.178 222.782C117.561 222.782 117.93 222.824 118.284 222.908C118.639 222.982 118.928 223.076 119.152 223.188L118.774 224.21C118.55 224.126 118.289 224.046 117.99 223.972C117.692 223.897 117.412 223.86 117.15 223.86C116.646 223.86 116.231 223.967 115.904 224.182C115.578 224.396 115.335 224.714 115.176 225.134C115.018 225.554 114.938 226.076 114.938 226.702C114.938 227.299 115.018 227.808 115.176 228.228C115.335 228.648 115.573 228.965 115.89 229.18C116.208 229.394 116.604 229.502 117.08 229.502C117.491 229.502 117.85 229.46 118.158 229.376C118.476 229.292 118.765 229.189 119.026 229.068V230.16C118.774 230.29 118.494 230.388 118.186 230.454C117.888 230.528 117.524 230.566 117.094 230.566ZM125.991 223.958H123.541V230.426H122.323V223.958H119.901V222.922H125.991V223.958ZM130.927 226.002C131.58 226.002 132.122 226.081 132.551 226.24C132.98 226.398 133.302 226.636 133.517 226.954C133.741 227.262 133.853 227.654 133.853 228.13C133.853 228.596 133.746 229.002 133.531 229.348C133.326 229.693 133.004 229.959 132.565 230.146C132.126 230.332 131.562 230.426 130.871 230.426H127.469V222.922H128.701V226.002H130.927ZM132.621 228.2C132.621 227.742 132.458 227.434 132.131 227.276C131.814 227.108 131.366 227.024 130.787 227.024H128.701V229.432H130.815C131.338 229.432 131.767 229.338 132.103 229.152C132.448 228.965 132.621 228.648 132.621 228.2Z" fill="#373A3C"/>
<g filter="url(#filter14_d_21_238)">
<rect x="137.141" y="185.429" width="97.9578" height="61.4765" fill="white"/>
</g>
<path d="M145.716 206.426V205.146H148.004V197.066L145.86 198.682L145.076 197.61L148.388 195.226H149.444V205.146H151.348V206.426H145.716ZM155.086 201.594V200.282H160.526V201.594H155.086ZM164.008 206.426C163.976 206.234 163.96 206.036 163.96 205.834C163.96 205.14 164.077 204.522 164.312 203.978C164.557 203.423 164.872 202.922 165.256 202.474C165.64 202.015 166.045 201.594 166.472 201.21C166.909 200.815 167.315 200.442 167.688 200.09C168.072 199.727 168.387 199.364 168.632 199.002C168.877 198.639 169 198.26 169 197.866C169 197.418 168.835 197.05 168.504 196.762C168.173 196.463 167.747 196.314 167.224 196.314C166.776 196.314 166.365 196.404 165.992 196.586C165.629 196.756 165.288 196.991 164.968 197.29L164.168 196.314C164.595 195.93 165.064 195.62 165.576 195.386C166.099 195.151 166.701 195.034 167.384 195.034C168.013 195.034 168.563 195.156 169.032 195.402C169.501 195.636 169.864 195.962 170.12 196.378C170.387 196.794 170.52 197.258 170.52 197.77C170.52 198.282 170.408 198.756 170.184 199.194C169.96 199.631 169.672 200.042 169.32 200.426C168.968 200.81 168.589 201.183 168.184 201.546C167.779 201.898 167.389 202.26 167.016 202.634C166.643 203.007 166.323 203.396 166.056 203.802C165.8 204.207 165.64 204.644 165.576 205.114H170.504V206.426H164.008ZM146.18 221.85V225.418H150.836V221.85H152.244V230.426H150.836V226.602H146.18V230.426H144.772V221.85H146.18ZM158.272 221.69C159.008 221.69 159.637 221.85 160.16 222.17C160.693 222.49 161.099 222.943 161.376 223.53C161.664 224.106 161.808 224.783 161.808 225.562V226.41H155.936C155.957 227.38 156.203 228.122 156.672 228.634C157.152 229.135 157.819 229.386 158.672 229.386C159.216 229.386 159.696 229.338 160.112 229.242C160.539 229.135 160.976 228.986 161.424 228.794V230.026C160.987 230.218 160.555 230.356 160.128 230.442C159.701 230.538 159.195 230.586 158.608 230.586C157.797 230.586 157.077 230.42 156.448 230.09C155.829 229.759 155.344 229.268 154.992 228.618C154.651 227.956 154.48 227.151 154.48 226.202C154.48 225.263 154.635 224.458 154.944 223.786C155.264 223.114 155.707 222.596 156.272 222.234C156.848 221.871 157.515 221.69 158.272 221.69ZM158.256 222.842C157.584 222.842 157.051 223.06 156.656 223.498C156.272 223.924 156.043 224.522 155.968 225.29H160.336C160.336 224.799 160.261 224.372 160.112 224.01C159.963 223.647 159.733 223.364 159.424 223.162C159.125 222.948 158.736 222.842 158.256 222.842ZM170.359 221.85V229.242H171.607V233.402H170.247V230.426H164.279V233.402H162.935V229.242H163.623C164.114 228.559 164.519 227.818 164.839 227.018C165.17 226.207 165.415 225.364 165.575 224.49C165.746 223.604 165.836 222.724 165.847 221.85H170.359ZM167.095 222.954C167.052 223.679 166.94 224.431 166.759 225.21C166.578 225.978 166.343 226.714 166.055 227.418C165.778 228.122 165.452 228.73 165.079 229.242H168.999V222.954H167.095ZM176.6 221.69C177.336 221.69 177.965 221.85 178.488 222.17C179.021 222.49 179.427 222.943 179.704 223.53C179.992 224.106 180.136 224.783 180.136 225.562V226.41H174.264C174.285 227.38 174.531 228.122 175 228.634C175.48 229.135 176.147 229.386 177 229.386C177.544 229.386 178.024 229.338 178.44 229.242C178.867 229.135 179.304 228.986 179.752 228.794V230.026C179.315 230.218 178.883 230.356 178.456 230.442C178.029 230.538 177.523 230.586 176.936 230.586C176.125 230.586 175.405 230.42 174.776 230.09C174.157 229.759 173.672 229.268 173.32 228.618C172.979 227.956 172.808 227.151 172.808 226.202C172.808 225.263 172.963 224.458 173.272 223.786C173.592 223.114 174.035 222.596 174.6 222.234C175.176 221.871 175.843 221.69 176.6 221.69ZM176.584 222.842C175.912 222.842 175.379 223.06 174.984 223.498C174.6 223.924 174.371 224.522 174.296 225.29H178.664C178.664 224.799 178.589 224.372 178.44 224.01C178.291 223.647 178.061 223.364 177.752 223.162C177.453 222.948 177.064 222.842 176.584 222.842ZM188.847 230.426H187.423V223.018H184.895C184.789 224.372 184.655 225.53 184.495 226.49C184.335 227.439 184.133 228.212 183.887 228.81C183.642 229.407 183.349 229.844 183.007 230.122C182.666 230.399 182.266 230.538 181.807 230.538C181.669 230.538 181.53 230.527 181.391 230.506C181.263 230.495 181.157 230.468 181.071 230.426V229.37C181.135 229.391 181.205 229.407 181.279 229.418C181.354 229.428 181.429 229.434 181.503 229.434C181.738 229.434 181.951 229.338 182.143 229.146C182.335 228.954 182.506 228.66 182.655 228.266C182.815 227.871 182.959 227.375 183.087 226.778C183.215 226.17 183.327 225.455 183.423 224.634C183.519 223.812 183.605 222.884 183.679 221.85H188.847V230.426ZM192.897 227.082C192.897 227.178 192.892 227.316 192.881 227.498C192.881 227.668 192.876 227.855 192.865 228.058C192.855 228.25 192.844 228.436 192.833 228.618C192.823 228.788 192.812 228.927 192.801 229.034L197.393 221.85H199.121V230.426H197.809V225.37C197.809 225.199 197.809 224.975 197.809 224.698C197.82 224.42 197.831 224.148 197.841 223.882C197.852 223.604 197.863 223.396 197.873 223.258L193.313 230.426H191.569V221.85H192.897V227.082Z" fill="#373A3C"/>
<g filter="url(#filter15_d_21_238)">
<rect x="235.099" y="185.429" width="97.9578" height="61.4765" fill="white"/>
</g>
<path d="M256.154 219.426C256.122 219.234 256.106 219.036 256.106 218.834C256.106 218.14 256.223 217.522 256.458 216.978C256.703 216.423 257.018 215.922 257.402 215.474C257.786 215.015 258.191 214.594 258.618 214.21C259.055 213.815 259.46 213.442 259.834 213.09C260.218 212.727 260.532 212.364 260.778 212.002C261.023 211.639 261.146 211.26 261.146 210.866C261.146 210.418 260.98 210.05 260.65 209.762C260.319 209.463 259.892 209.314 259.37 209.314C258.922 209.314 258.511 209.404 258.138 209.586C257.775 209.756 257.434 209.991 257.114 210.29L256.314 209.314C256.74 208.93 257.21 208.62 257.722 208.386C258.244 208.151 258.847 208.034 259.53 208.034C260.159 208.034 260.708 208.156 261.178 208.402C261.647 208.636 262.01 208.962 262.266 209.378C262.532 209.794 262.666 210.258 262.666 210.77C262.666 211.282 262.554 211.756 262.33 212.194C262.106 212.631 261.818 213.042 261.466 213.426C261.114 213.81 260.735 214.183 260.33 214.546C259.924 214.898 259.535 215.26 259.162 215.634C258.788 216.007 258.468 216.396 258.202 216.802C257.946 217.207 257.786 217.644 257.722 218.114H262.65V219.426H256.154ZM269.123 219.618C267.875 219.618 266.926 219.111 266.275 218.098C265.625 217.074 265.299 215.644 265.299 213.81C265.299 211.964 265.63 210.54 266.291 209.538C266.963 208.535 267.918 208.034 269.155 208.034C270.403 208.034 271.353 208.54 272.003 209.554C272.654 210.567 272.979 211.996 272.979 213.842C272.979 215.687 272.643 217.111 271.971 218.114C271.31 219.116 270.361 219.618 269.123 219.618ZM269.139 218.306C269.619 218.306 270.03 218.167 270.371 217.89C270.723 217.602 270.99 217.132 271.171 216.482C271.363 215.831 271.459 214.956 271.459 213.858C271.459 212.386 271.251 211.266 270.835 210.498C270.43 209.73 269.865 209.346 269.139 209.346C268.659 209.346 268.243 209.49 267.891 209.778C267.55 210.055 267.283 210.519 267.091 211.17C266.91 211.81 266.819 212.684 266.819 213.794C266.819 215.266 267.022 216.386 267.427 217.154C267.843 217.922 268.414 218.306 269.139 218.306ZM278.717 219.618C277.469 219.618 276.52 219.111 275.869 218.098C275.219 217.074 274.893 215.644 274.893 213.81C274.893 211.964 275.224 210.54 275.885 209.538C276.557 208.535 277.512 208.034 278.749 208.034C279.997 208.034 280.947 208.54 281.597 209.554C282.248 210.567 282.573 211.996 282.573 213.842C282.573 215.687 282.237 217.111 281.565 218.114C280.904 219.116 279.955 219.618 278.717 219.618ZM278.733 218.306C279.213 218.306 279.624 218.167 279.965 217.89C280.317 217.602 280.584 217.132 280.765 216.482C280.957 215.831 281.053 214.956 281.053 213.858C281.053 212.386 280.845 211.266 280.429 210.498C280.024 209.73 279.459 209.346 278.733 209.346C278.253 209.346 277.837 209.49 277.485 209.778C277.144 210.055 276.877 210.519 276.685 211.17C276.504 211.81 276.413 212.684 276.413 213.794C276.413 215.266 276.616 216.386 277.021 217.154C277.437 217.922 278.008 218.306 278.733 218.306ZM288.311 219.618C287.063 219.618 286.114 219.111 285.463 218.098C284.812 217.074 284.487 215.644 284.487 213.81C284.487 211.964 284.818 210.54 285.479 209.538C286.151 208.535 287.106 208.034 288.343 208.034C289.591 208.034 290.54 208.54 291.191 209.554C291.842 210.567 292.167 211.996 292.167 213.842C292.167 215.687 291.831 217.111 291.159 218.114C290.498 219.116 289.548 219.618 288.311 219.618ZM288.327 218.306C288.807 218.306 289.218 218.167 289.559 217.89C289.911 217.602 290.178 217.132 290.359 216.482C290.551 215.831 290.647 214.956 290.647 213.858C290.647 212.386 290.439 211.266 290.023 210.498C289.618 209.73 289.052 209.346 288.327 209.346C287.847 209.346 287.431 209.49 287.079 209.778C286.738 210.055 286.471 210.519 286.279 211.17C286.098 211.81 286.007 212.684 286.007 213.794C286.007 215.266 286.21 216.386 286.615 217.154C287.031 217.922 287.602 218.306 288.327 218.306ZM298.561 210.69C299.617 210.69 300.465 211.058 301.105 211.794C301.755 212.53 302.081 213.639 302.081 215.122C302.081 216.092 301.931 216.914 301.633 217.586C301.345 218.247 300.934 218.748 300.401 219.09C299.878 219.42 299.259 219.586 298.545 219.586C298.107 219.586 297.718 219.527 297.377 219.41C297.035 219.292 296.742 219.143 296.497 218.962C296.262 218.77 296.059 218.562 295.889 218.338H295.793C295.814 218.519 295.835 218.748 295.857 219.026C295.878 219.303 295.889 219.543 295.889 219.746V223.266H294.481V210.85H295.633L295.825 212.018H295.889C296.059 211.772 296.262 211.548 296.497 211.346C296.742 211.143 297.03 210.983 297.361 210.866C297.702 210.748 298.102 210.69 298.561 210.69ZM298.305 211.874C297.729 211.874 297.265 211.986 296.913 212.21C296.561 212.423 296.305 212.748 296.145 213.186C295.985 213.623 295.899 214.178 295.889 214.85V215.122C295.889 215.826 295.963 216.423 296.113 216.914C296.262 217.404 296.513 217.778 296.865 218.034C297.227 218.29 297.718 218.418 298.337 218.418C298.859 218.418 299.286 218.274 299.617 217.986C299.958 217.698 300.209 217.308 300.369 216.818C300.539 216.316 300.625 215.746 300.625 215.106C300.625 214.124 300.433 213.34 300.049 212.754C299.675 212.167 299.094 211.874 298.305 211.874Z" fill="#373A3C"/>
<defs>
<filter id="filter0_d_21_238" x="0" y="0" width="39.1831" height="62.4765" filterUnits="userSpaceOnUse" color-interpolation-filters="sRGB">
<feFlood flood-opacity="0" result="BackgroundImageFix"/>
<feColorMatrix in="SourceAlpha" type="matrix" values="0 0 0 0 0 0 0 0 0 0 0 0 0 0 0 0 0 0 127 0" result="hardAlpha"/>
<feOffset dy="-1"/>
<feColorMatrix type="matrix" values="0 0 0 0 0.92549 0 0 0 0 0.933333 0 0 0 0 0.937255 0 0 0 1 0"/>
<feBlend mode="normal" in2="BackgroundImageFix" result="effect1_dropShadow_21_238"/>
<feBlend mode="normal" in="SourceGraphic" in2="effect1_dropShadow_21_238" result="shape"/>
</filter>
<filter id="filter1_d_21_238" x="39.1831" y="0" width="97.9578" height="62.4765" filterUnits="userSpaceOnUse" color-interpolation-filters="sRGB">
<feFlood flood-opacity="0" result="BackgroundImageFix"/>
<feColorMatrix in="SourceAlpha" type="matrix" values="0 0 0 0 0 0 0 0 0 0 0 0 0 0 0 0 0 0 127 0" result="hardAlpha"/>
<feOffset dy="-1"/>
<feColorMatrix type="matrix" values="0 0 0 0 0.92549 0 0 0 0 0.933333 0 0 0 0 0.937255 0 0 0 1 0"/>
<feBlend mode="normal" in2="BackgroundImageFix" result="effect1_dropShadow_21_238"/>
<feBlend mode="normal" in="SourceGraphic" in2="effect1_dropShadow_21_238" result="shape"/>
</filter>
<filter id="filter2_d_21_238" x="137.141" y="0" width="97.9578" height="62.4765" filterUnits="userSpaceOnUse" color-interpolation-filters="sRGB">
<feFlood flood-opacity="0" result="BackgroundImageFix"/>
<feColorMatrix in="SourceAlpha" type="matrix" values="0 0 0 0 0 0 0 0 0 0 0 0 0 0 0 0 0 0 127 0" result="hardAlpha"/>
<feOffset dy="-1"/>
<feColorMatrix type="matrix" values="0 0 0 0 0.92549 0 0 0 0 0.933333 0 0 0 0 0.937255 0 0 0 1 0"/>
<feBlend mode="normal" in2="BackgroundImageFix" result="effect1_dropShadow_21_238"/>
<feBlend mode="normal" in="SourceGraphic" in2="effect1_dropShadow_21_238" result="shape"/>
</filter>
<filter id="filter3_d_21_238" x="235.099" y="0" width="97.9578" height="62.4765" filterUnits="userSpaceOnUse" color-interpolation-filters="sRGB">
<feFlood flood-opacity="0" result="BackgroundImageFix"/>
<feColorMatrix in="SourceAlpha" type="matrix" values="0 0 0 0 0 0 0 0 0 0 0 0 0 0 0 0 0 0 127 0" result="hardAlpha"/>
<feOffset dy="-1"/>
<feColorMatrix type="matrix" values="0 0 0 0 0.92549 0 0 0 0 0.933333 0 0 0 0 0.937255 0 0 0 1 0"/>
<feBlend mode="normal" in2="BackgroundImageFix" result="effect1_dropShadow_21_238"/>
<feBlend mode="normal" in="SourceGraphic" in2="effect1_dropShadow_21_238" result="shape"/>
</filter>
<filter id="filter4_d_21_238" x="0" y="61.4765" width="39.1831" height="62.4765" filterUnits="userSpaceOnUse" color-interpolation-filters="sRGB">
<feFlood flood-opacity="0" result="BackgroundImageFix"/>
<feColorMatrix in="SourceAlpha" type="matrix" values="0 0 0 0 0 0 0 0 0 0 0 0 0 0 0 0 0 0 127 0" result="hardAlpha"/>
<feOffset dy="-1"/>
<feColorMatrix type="matrix" values="0 0 0 0 0.92549 0 0 0 0 0.933333 0 0 0 0 0.937255 0 0 0 1 0"/>
<feBlend mode="normal" in2="BackgroundImageFix" result="effect1_dropShadow_21_238"/>
<feBlend mode="normal" in="SourceGraphic" in2="effect1_dropShadow_21_238" result="shape"/>
</filter>
<filter id="filter5_d_21_238" x="39.1831" y="61.4765" width="97.9578" height="62.4765" filterUnits="userSpaceOnUse" color-interpolation-filters="sRGB">
<feFlood flood-opacity="0" result="BackgroundImageFix"/>
<feColorMatrix in="SourceAlpha" type="matrix" values="0 0 0 0 0 0 0 0 0 0 0 0 0 0 0 0 0 0 127 0" result="hardAlpha"/>
<feOffset dy="-1"/>
<feColorMatrix type="matrix" values="0 0 0 0 0.92549 0 0 0 0 0.933333 0 0 0 0 0.937255 0 0 0 1 0"/>
<feBlend mode="normal" in2="BackgroundImageFix" result="effect1_dropShadow_21_238"/>
<feBlend mode="normal" in="SourceGraphic" in2="effect1_dropShadow_21_238" result="shape"/>
</filter>
<filter id="filter6_d_21_238" x="137.141" y="61.4765" width="97.9578" height="62.4765" filterUnits="userSpaceOnUse" color-interpolation-filters="sRGB">
<feFlood flood-opacity="0" result="BackgroundImageFix"/>
<feColorMatrix in="SourceAlpha" type="matrix" values="0 0 0 0 0 0 0 0 0 0 0 0 0 0 0 0 0 0 127 0" result="hardAlpha"/>
<feOffset dy="-1"/>
<feColorMatrix type="matrix" values="0 0 0 0 0.92549 0 0 0 0 0.933333 0 0 0 0 0.937255 0 0 0 1 0"/>
<feBlend mode="normal" in2="BackgroundImageFix" result="effect1_dropShadow_21_238"/>
<feBlend mode="normal" in="SourceGraphic" in2="effect1_dropShadow_21_238" result="shape"/>
</filter>
<filter id="filter7_d_21_238" x="235.099" y="61.4765" width="97.9578" height="62.4765" filterUnits="userSpaceOnUse" color-interpolation-filters="sRGB">
<feFlood flood-opacity="0" result="BackgroundImageFix"/>
<feColorMatrix in="SourceAlpha" type="matrix" values="0 0 0 0 0 0 0 0 0 0 0 0 0 0 0 0 0 0 127 0" result="hardAlpha"/>
<feOffset dy="-1"/>
<feColorMatrix type="matrix" values="0 0 0 0 0.92549 0 0 0 0 0.933333 0 0 0 0 0.937255 0 0 0 1 0"/>
<feBlend mode="normal" in2="BackgroundImageFix" result="effect1_dropShadow_21_238"/>
<feBlend mode="normal" in="SourceGraphic" in2="effect1_dropShadow_21_238" result="shape"/>
</filter>
<filter id="filter8_d_21_238" x="0" y="122.953" width="39.1831" height="62.4765" filterUnits="userSpaceOnUse" color-interpolation-filters="sRGB">
<feFlood flood-opacity="0" result="BackgroundImageFix"/>
<feColorMatrix in="SourceAlpha" type="matrix" values="0 0 0 0 0 0 0 0 0 0 0 0 0 0 0 0 0 0 127 0" result="hardAlpha"/>
<feOffset dy="-1"/>
<feColorMatrix type="matrix" values="0 0 0 0 0.92549 0 0 0 0 0.933333 0 0 0 0 0.937255 0 0 0 1 0"/>
<feBlend mode="normal" in2="BackgroundImageFix" result="effect1_dropShadow_21_238"/>
<feBlend mode="normal" in="SourceGraphic" in2="effect1_dropShadow_21_238" result="shape"/>
</filter>
<filter id="filter9_d_21_238" x="39.1831" y="122.953" width="97.9578" height="62.4765" filterUnits="userSpaceOnUse" color-interpolation-filters="sRGB">
<feFlood flood-opacity="0" result="BackgroundImageFix"/>
<feColorMatrix in="SourceAlpha" type="matrix" values="0 0 0 0 0 0 0 0 0 0 0 0 0 0 0 0 0 0 127 0" result="hardAlpha"/>
<feOffset dy="-1"/>
<feColorMatrix type="matrix" values="0 0 0 0 0.92549 0 0 0 0 0.933333 0 0 0 0 0.937255 0 0 0 1 0"/>
<feBlend mode="normal" in2="BackgroundImageFix" result="effect1_dropShadow_21_238"/>
<feBlend mode="normal" in="SourceGraphic" in2="effect1_dropShadow_21_238" result="shape"/>
</filter>
<filter id="filter10_d_21_238" x="137.141" y="122.953" width="97.9578" height="62.4765" filterUnits="userSpaceOnUse" color-interpolation-filters="sRGB">
<feFlood flood-opacity="0" result="BackgroundImageFix"/>
<feColorMatrix in="SourceAlpha" type="matrix" values="0 0 0 0 0 0 0 0 0 0 0 0 0 0 0 0 0 0 127 0" result="hardAlpha"/>
<feOffset dy="-1"/>
<feColorMatrix type="matrix" values="0 0 0 0 0.92549 0 0 0 0 0.933333 0 0 0 0 0.937255 0 0 0 1 0"/>
<feBlend mode="normal" in2="BackgroundImageFix" result="effect1_dropShadow_21_238"/>
<feBlend mode="normal" in="SourceGraphic" in2="effect1_dropShadow_21_238" result="shape"/>
</filter>
<filter id="filter11_d_21_238" x="235.099" y="122.953" width="97.9578" height="62.4765" filterUnits="userSpaceOnUse" color-interpolation-filters="sRGB">
<feFlood flood-opacity="0" result="BackgroundImageFix"/>
<feColorMatrix in="SourceAlpha" type="matrix" values="0 0 0 0 0 0 0 0 0 0 0 0 0 0 0 0 0 0 127 0" result="hardAlpha"/>
<feOffset dy="-1"/>
<feColorMatrix type="matrix" values="0 0 0 0 0.92549 0 0 0 0 0.933333 0 0 0 0 0.937255 0 0 0 1 0"/>
<feBlend mode="normal" in2="BackgroundImageFix" result="effect1_dropShadow_21_238"/>
<feBlend mode="normal" in="SourceGraphic" in2="effect1_dropShadow_21_238" result="shape"/>
</filter>
<filter id="filter12_d_21_238" x="0" y="184.429" width="39.1831" height="62.4765" filterUnits="userSpaceOnUse" color-interpolation-filters="sRGB">
<feFlood flood-opacity="0" result="BackgroundImageFix"/>
<feColorMatrix in="SourceAlpha" type="matrix" values="0 0 0 0 0 0 0 0 0 0 0 0 0 0 0 0 0 0 127 0" result="hardAlpha"/>
<feOffset dy="-1"/>
<feColorMatrix type="matrix" values="0 0 0 0 0.92549 0 0 0 0 0.933333 0 0 0 0 0.937255 0 0 0 1 0"/>
<feBlend mode="normal" in2="BackgroundImageFix" result="effect1_dropShadow_21_238"/>
<feBlend mode="normal" in="SourceGraphic" in2="effect1_dropShadow_21_238" result="shape"/>
</filter>
<filter id="filter13_d_21_238" x="39.1831" y="184.429" width="97.9578" height="62.4765" filterUnits="userSpaceOnUse" color-interpolation-filters="sRGB">
<feFlood flood-opacity="0" result="BackgroundImageFix"/>
<feColorMatrix in="SourceAlpha" type="matrix" values="0 0 0 0 0 0 0 0 0 0 0 0 0 0 0 0 0 0 127 0" result="hardAlpha"/>
<feOffset dy="-1"/>
<feColorMatrix type="matrix" values="0 0 0 0 0.92549 0 0 0 0 0.933333 0 0 0 0 0.937255 0 0 0 1 0"/>
<feBlend mode="normal" in2="BackgroundImageFix" result="effect1_dropShadow_21_238"/>
<feBlend mode="normal" in="SourceGraphic" in2="effect1_dropShadow_21_238" result="shape"/>
</filter>
<filter id="filter14_d_21_238" x="137.141" y="184.429" width="97.9578" height="62.4765" filterUnits="userSpaceOnUse" color-interpolation-filters="sRGB">
<feFlood flood-opacity="0" result="BackgroundImageFix"/>
<feColorMatrix in="SourceAlpha" type="matrix" values="0 0 0 0 0 0 0 0 0 0 0 0 0 0 0 0 0 0 127 0" result="hardAlpha"/>
<feOffset dy="-1"/>
<feColorMatrix type="matrix" values="0 0 0 0 0.92549 0 0 0 0 0.933333 0 0 0 0 0.937255 0 0 0 1 0"/>
<feBlend mode="normal" in2="BackgroundImageFix" result="effect1_dropShadow_21_238"/>
<feBlend mode="normal" in="SourceGraphic" in2="effect1_dropShadow_21_238" result="shape"/>
</filter>
<filter id="filter15_d_21_238" x="235.099" y="184.429" width="97.9578" height="62.4765" filterUnits="userSpaceOnUse" color-interpolation-filters="sRGB">
<feFlood flood-opacity="0" result="BackgroundImageFix"/>
<feColorMatrix in="SourceAlpha" type="matrix" values="0 0 0 0 0 0 0 0 0 0 0 0 0 0 0 0 0 0 127 0" result="hardAlpha"/>
<feOffset dy="-1"/>
<feColorMatrix type="matrix" values="0 0 0 0 0.92549 0 0 0 0 0.933333 0 0 0 0 0.937255 0 0 0 1 0"/>
<feBlend mode="normal" in2="BackgroundImageFix" result="effect1_dropShadow_21_238"/>
<feBlend mode="normal" in="SourceGraphic" in2="effect1_dropShadow_21_238" result="shape"/>
</filter>
</defs>
</svg>
