<svg width="338" height="248" viewBox="0 0 338 248" fill="none" xmlns="http://www.w3.org/2000/svg">
<g filter="url(#filter0_d_21_645)">
<rect y="1.57448" width="39.7647" height="61.4765" fill="#373A3C"/>
</g>
<path d="M8.20472 34.5584L8.55672 32.5744H7.10072L7.29272 31.4064H8.76472L9.45272 27.4064H7.99672L8.18872 26.2384H9.66072L10.0127 24.2544H11.2927L10.9407 26.2384H14.0767L14.4287 24.2544H15.7087L15.3567 26.2384H16.8287L16.6367 27.4064H15.1487L14.4607 31.4064H15.9167L15.7247 32.5744H14.2527L13.9007 34.5584H12.6207L12.9727 32.5744H9.83672L9.48472 34.5584H8.20472ZM10.0447 31.4064H13.1807L13.8687 27.4064H10.7327L10.0447 31.4064Z" fill="#ECEEEF"/>
<g filter="url(#filter1_d_21_645)">
<rect x="39.7646" y="1.57448" width="99.4118" height="61.4765" fill="#373A3C"/>
</g>
<path d="M52.2962 31.752C51.9549 32.5093 51.6082 33.144 51.2562 33.656C50.9149 34.1573 50.5095 34.536 50.0402 34.792C49.5709 35.0373 48.9735 35.16 48.2482 35.16C47.9495 35.16 47.6669 35.1387 47.4002 35.096C47.1442 35.0533 46.9095 34.9947 46.6962 34.92V33.496C46.9095 33.592 47.1389 33.672 47.3842 33.736C47.6295 33.7893 47.8855 33.816 48.1522 33.816C48.5469 33.816 48.8829 33.7627 49.1602 33.656C49.4482 33.5387 49.6989 33.352 49.9122 33.096C50.1362 32.84 50.3442 32.4987 50.5362 32.072L46.1362 23.576H47.7202L50.9042 29.864C50.9469 29.9387 50.9895 30.0293 51.0322 30.136C51.0749 30.232 51.1175 30.3333 51.1602 30.44C51.2135 30.5467 51.2562 30.648 51.2882 30.744H51.3522C51.3842 30.6693 51.4162 30.584 51.4482 30.488C51.4909 30.3813 51.5282 30.28 51.5602 30.184C51.6029 30.0773 51.6402 29.9867 51.6722 29.912L54.4242 23.576H55.9442L52.2962 31.752ZM60.4321 35.16C59.6747 35.16 58.9974 35.0053 58.4001 34.696C57.8134 34.3867 57.3494 33.9067 57.0081 33.256C56.6774 32.6053 56.5121 31.7733 56.5121 30.76C56.5121 29.704 56.6881 28.8453 57.0401 28.184C57.3921 27.5227 57.8667 27.0373 58.4641 26.728C59.0721 26.4187 59.7601 26.264 60.5281 26.264C60.9654 26.264 61.3867 26.312 61.7921 26.408C62.1974 26.4933 62.5281 26.6 62.7841 26.728L62.3521 27.896C62.0961 27.8 61.7974 27.7093 61.4561 27.624C61.1147 27.5387 60.7947 27.496 60.4961 27.496C59.9201 27.496 59.4454 27.6187 59.0721 27.864C58.6987 28.1093 58.4214 28.472 58.2401 28.952C58.0587 29.432 57.9681 30.0293 57.9681 30.744C57.9681 31.4267 58.0587 32.008 58.2401 32.488C58.4214 32.968 58.6934 33.3307 59.0561 33.576C59.4187 33.8213 59.8721 33.944 60.4161 33.944C60.8854 33.944 61.2961 33.896 61.6481 33.8C62.0107 33.704 62.3414 33.5867 62.6401 33.448V34.696C62.3521 34.8453 62.0321 34.9573 61.6801 35.032C61.3387 35.1173 60.9227 35.16 60.4321 35.16ZM71.2076 35H69.7836V27.592H67.2556C67.1489 28.9467 67.0156 30.104 66.8556 31.064C66.6956 32.0133 66.4929 32.7867 66.2476 33.384C66.0022 33.9813 65.7089 34.4187 65.3676 34.696C65.0262 34.9733 64.6262 35.112 64.1676 35.112C64.0289 35.112 63.8902 35.1013 63.7516 35.08C63.6236 35.0693 63.5169 35.0427 63.4316 35V33.944C63.4956 33.9653 63.5649 33.9813 63.6396 33.992C63.7142 34.0027 63.7889 34.008 63.8636 34.008C64.0982 34.008 64.3116 33.912 64.5036 33.72C64.6956 33.528 64.8662 33.2347 65.0156 32.84C65.1756 32.4453 65.3196 31.9493 65.4476 31.352C65.5756 30.744 65.6876 30.0293 65.7836 29.208C65.8796 28.3867 65.9649 27.4587 66.0396 26.424H71.2076V35ZM72.5856 26.424H74.0896L75.9456 31.304C76.0522 31.592 76.1482 31.8693 76.2336 32.136C76.3296 32.4027 76.4149 32.664 76.4896 32.92C76.5642 33.1653 76.6229 33.4053 76.6656 33.64H76.7296C76.7936 33.3733 76.8949 33.0267 77.0336 32.6C77.1722 32.1627 77.3162 31.7253 77.4656 31.288L79.2096 26.424H80.7296L77.0336 36.184C76.8309 36.7173 76.5909 37.1813 76.3136 37.576C76.0469 37.9813 75.7162 38.2907 75.3216 38.504C74.9376 38.728 74.4682 38.84 73.9136 38.84C73.6576 38.84 73.4336 38.824 73.2416 38.792C73.0496 38.7707 72.8842 38.744 72.7456 38.712V37.592C72.8629 37.6133 73.0016 37.6347 73.1616 37.656C73.3322 37.6773 73.5082 37.688 73.6896 37.688C74.0202 37.688 74.3029 37.624 74.5376 37.496C74.7829 37.3787 74.9909 37.2027 75.1616 36.968C75.3322 36.744 75.4762 36.4773 75.5936 36.168L76.0416 35.032L72.5856 26.424ZM87.3178 26.424V27.608H83.4938V35H82.0858V26.424H87.3178ZM92.2557 26.28C93.301 26.28 94.0744 26.5093 94.5757 26.968C95.077 27.4267 95.3277 28.1573 95.3277 29.16V35H94.3037L94.0317 33.784H93.9677C93.7224 34.0933 93.4664 34.3547 93.1997 34.568C92.9437 34.7707 92.645 34.92 92.3037 35.016C91.973 35.112 91.5677 35.16 91.0877 35.16C90.5757 35.16 90.1117 35.0693 89.6957 34.888C89.2904 34.7067 88.9704 34.4293 88.7357 34.056C88.501 33.672 88.3837 33.192 88.3837 32.616C88.3837 31.7627 88.7197 31.1067 89.3917 30.648C90.0637 30.1787 91.0984 29.9227 92.4957 29.88L93.9517 29.832V29.32C93.9517 28.6053 93.797 28.1093 93.4877 27.832C93.1784 27.5547 92.741 27.416 92.1757 27.416C91.7277 27.416 91.301 27.4853 90.8957 27.624C90.4904 27.752 90.1117 27.9013 89.7597 28.072L89.3277 27.016C89.701 26.8133 90.1437 26.6427 90.6557 26.504C91.1677 26.3547 91.701 26.28 92.2557 26.28ZM92.6717 30.856C91.605 30.8987 90.8637 31.0693 90.4477 31.368C90.0424 31.6667 89.8397 32.088 89.8397 32.632C89.8397 33.112 89.9837 33.464 90.2717 33.688C90.5704 33.912 90.949 34.024 91.4077 34.024C92.133 34.024 92.7357 33.8267 93.2157 33.432C93.6957 33.0267 93.9357 32.408 93.9357 31.576V30.808L92.6717 30.856Z" fill="#ECEEEF"/>
<g filter="url(#filter2_d_21_645)">
<rect x="139.176" y="1.57448" width="99.4118" height="61.4765" fill="#373A3C"/>
</g>
<path d="M151.989 16.68C151.381 16.68 150.832 16.7867 150.341 17C149.85 17.2027 149.434 17.5067 149.093 17.912C148.752 18.3067 148.49 18.792 148.309 19.368C148.128 19.9333 148.037 20.5733 148.037 21.288C148.037 22.2267 148.181 23.0427 148.469 23.736C148.768 24.4293 149.205 24.9627 149.781 25.336C150.368 25.7093 151.098 25.896 151.973 25.896C152.474 25.896 152.949 25.8533 153.397 25.768C153.845 25.6827 154.282 25.576 154.709 25.448V26.696C154.282 26.856 153.84 26.9733 153.381 27.048C152.933 27.1227 152.394 27.16 151.765 27.16C150.602 27.16 149.632 26.92 148.853 26.44C148.074 25.96 147.488 25.2773 147.093 24.392C146.709 23.5067 146.517 22.4667 146.517 21.272C146.517 20.408 146.634 19.6187 146.869 18.904C147.114 18.1893 147.466 17.5707 147.925 17.048C148.394 16.5253 148.97 16.1253 149.653 15.848C150.336 15.56 151.12 15.416 152.005 15.416C152.592 15.416 153.157 15.4747 153.701 15.592C154.245 15.7093 154.73 15.8747 155.157 16.088L154.581 17.304C154.229 17.144 153.834 17 153.397 16.872C152.97 16.744 152.501 16.68 151.989 16.68ZM161.091 18.264C162.147 18.264 162.995 18.632 163.635 19.368C164.285 20.104 164.611 21.2133 164.611 22.696C164.611 23.6667 164.461 24.488 164.163 25.16C163.875 25.8213 163.464 26.3227 162.931 26.664C162.408 26.9947 161.789 27.16 161.075 27.16C160.637 27.16 160.248 27.1013 159.907 26.984C159.565 26.8667 159.272 26.7173 159.027 26.536C158.792 26.344 158.589 26.136 158.419 25.912H158.323C158.344 26.0933 158.365 26.3227 158.387 26.6C158.408 26.8773 158.419 27.1173 158.419 27.32V30.84H157.011V18.424H158.163L158.355 19.592H158.419C158.589 19.3467 158.792 19.1227 159.027 18.92C159.272 18.7173 159.56 18.5573 159.891 18.44C160.232 18.3227 160.632 18.264 161.091 18.264ZM160.835 19.448C160.259 19.448 159.795 19.56 159.443 19.784C159.091 19.9973 158.835 20.3227 158.675 20.76C158.515 21.1973 158.429 21.752 158.419 22.424V22.696C158.419 23.4 158.493 23.9973 158.643 24.488C158.792 24.9787 159.043 25.352 159.395 25.608C159.757 25.864 160.248 25.992 160.867 25.992C161.389 25.992 161.816 25.848 162.147 25.56C162.488 25.272 162.739 24.8827 162.899 24.392C163.069 23.8907 163.155 23.32 163.155 22.68C163.155 21.6987 162.963 20.9147 162.579 20.328C162.205 19.7413 161.624 19.448 160.835 19.448ZM174.31 22.696C174.31 23.4107 174.214 24.0453 174.022 24.6C173.841 25.144 173.574 25.608 173.222 25.992C172.881 26.376 172.46 26.6693 171.958 26.872C171.468 27.064 170.918 27.16 170.31 27.16C169.745 27.16 169.222 27.064 168.742 26.872C168.262 26.6693 167.846 26.376 167.494 25.992C167.142 25.608 166.865 25.144 166.662 24.6C166.47 24.0453 166.374 23.4107 166.374 22.696C166.374 21.7467 166.534 20.9467 166.854 20.296C167.174 19.6347 167.633 19.1333 168.23 18.792C168.828 18.44 169.537 18.264 170.358 18.264C171.137 18.264 171.82 18.44 172.406 18.792C173.004 19.1333 173.468 19.6347 173.798 20.296C174.14 20.9467 174.31 21.7467 174.31 22.696ZM167.83 22.696C167.83 23.368 167.916 23.9547 168.086 24.456C168.268 24.9467 168.545 25.3253 168.918 25.592C169.292 25.8587 169.766 25.992 170.342 25.992C170.918 25.992 171.393 25.8587 171.766 25.592C172.14 25.3253 172.412 24.9467 172.582 24.456C172.764 23.9547 172.854 23.368 172.854 22.696C172.854 22.0133 172.764 21.432 172.582 20.952C172.401 20.472 172.124 20.104 171.75 19.848C171.388 19.5813 170.913 19.448 170.326 19.448C169.452 19.448 168.817 19.736 168.422 20.312C168.028 20.888 167.83 21.6827 167.83 22.696ZM181.614 18.424H183.15L179.486 22.552L183.454 27H181.822L177.95 22.648V27H176.542V18.424H177.95V22.584L181.614 18.424ZM186.339 23.656C186.339 23.752 186.333 23.8907 186.323 24.072C186.323 24.2427 186.317 24.4293 186.307 24.632C186.296 24.824 186.285 25.0107 186.275 25.192C186.264 25.3627 186.253 25.5013 186.243 25.608L190.835 18.424H192.563V27H191.251V21.944C191.251 21.7733 191.251 21.5493 191.251 21.272C191.261 20.9947 191.272 20.7227 191.283 20.456C191.293 20.1787 191.304 19.9707 191.315 19.832L186.755 27H185.011V18.424H186.339V23.656ZM150.981 42.264C152.037 42.264 152.885 42.632 153.525 43.368C154.176 44.104 154.501 45.2133 154.501 46.696C154.501 47.6667 154.352 48.488 154.053 49.16C153.765 49.8213 153.354 50.3227 152.821 50.664C152.298 50.9947 151.68 51.16 150.965 51.16C150.528 51.16 150.138 51.1013 149.797 50.984C149.456 50.8667 149.162 50.7173 148.917 50.536C148.682 50.344 148.48 50.136 148.309 49.912H148.213C148.234 50.0933 148.256 50.3227 148.277 50.6C148.298 50.8773 148.309 51.1173 148.309 51.32V54.84H146.901V42.424H148.053L148.245 43.592H148.309C148.48 43.3467 148.682 43.1227 148.917 42.92C149.162 42.7173 149.45 42.5573 149.781 42.44C150.122 42.3227 150.522 42.264 150.981 42.264ZM150.725 43.448C150.149 43.448 149.685 43.56 149.333 43.784C148.981 43.9973 148.725 44.3227 148.565 44.76C148.405 45.1973 148.32 45.752 148.309 46.424V46.696C148.309 47.4 148.384 47.9973 148.533 48.488C148.682 48.9787 148.933 49.352 149.285 49.608C149.648 49.864 150.138 49.992 150.757 49.992C151.28 49.992 151.706 49.848 152.037 49.56C152.378 49.272 152.629 48.8827 152.789 48.392C152.96 47.8907 153.045 47.32 153.045 46.68C153.045 45.6987 152.853 44.9147 152.469 44.328C152.096 43.7413 151.514 43.448 150.725 43.448ZM159.993 42.28C161.038 42.28 161.812 42.5093 162.313 42.968C162.814 43.4267 163.065 44.1573 163.065 45.16V51H162.041L161.769 49.784H161.705C161.46 50.0933 161.204 50.3547 160.937 50.568C160.681 50.7707 160.382 50.92 160.041 51.016C159.71 51.112 159.305 51.16 158.825 51.16C158.313 51.16 157.849 51.0693 157.433 50.888C157.028 50.7067 156.708 50.4293 156.473 50.056C156.238 49.672 156.121 49.192 156.121 48.616C156.121 47.7627 156.457 47.1067 157.129 46.648C157.801 46.1787 158.836 45.9227 160.233 45.88L161.689 45.832V45.32C161.689 44.6053 161.534 44.1093 161.225 43.832C160.916 43.5547 160.478 43.416 159.913 43.416C159.465 43.416 159.038 43.4853 158.633 43.624C158.228 43.752 157.849 43.9013 157.497 44.072L157.065 43.016C157.438 42.8133 157.881 42.6427 158.393 42.504C158.905 42.3547 159.438 42.28 159.993 42.28ZM160.409 46.856C159.342 46.8987 158.601 47.0693 158.185 47.368C157.78 47.6667 157.577 48.088 157.577 48.632C157.577 49.112 157.721 49.464 158.009 49.688C158.308 49.912 158.686 50.024 159.145 50.024C159.87 50.024 160.473 49.8267 160.953 49.432C161.433 49.0267 161.673 48.408 161.673 47.576V46.808L160.409 46.856ZM165.266 45.848C165.266 44.6 165.388 43.5387 165.634 42.664C165.89 41.7787 166.279 41.0747 166.802 40.552C167.335 40.0187 168.018 39.6613 168.85 39.48C169.543 39.3307 170.22 39.1973 170.882 39.08C171.543 38.9627 172.162 38.856 172.738 38.76L172.978 39.992C172.7 40.0347 172.391 40.088 172.05 40.152C171.708 40.2053 171.362 40.264 171.01 40.328C170.658 40.3813 170.316 40.44 169.986 40.504C169.666 40.5573 169.383 40.6107 169.138 40.664C168.786 40.7387 168.471 40.8667 168.194 41.048C167.916 41.2187 167.676 41.4533 167.474 41.752C167.282 42.0507 167.127 42.4187 167.01 42.856C166.892 43.2933 166.823 43.8107 166.802 44.408H166.898C167.047 44.2053 167.25 43.9973 167.506 43.784C167.772 43.5707 168.087 43.3893 168.45 43.24C168.823 43.0907 169.244 43.016 169.714 43.016C170.46 43.016 171.079 43.1813 171.57 43.512C172.071 43.832 172.444 44.28 172.69 44.856C172.946 45.432 173.074 46.104 173.074 46.872C173.074 47.8213 172.908 48.616 172.578 49.256C172.247 49.896 171.788 50.376 171.202 50.696C170.615 51.0053 169.932 51.16 169.154 51.16C168.567 51.16 168.034 51.048 167.554 50.824C167.074 50.5893 166.663 50.248 166.322 49.8C165.98 49.352 165.719 48.7973 165.538 48.136C165.356 47.4747 165.266 46.712 165.266 45.848ZM169.266 49.992C169.735 49.992 170.14 49.896 170.482 49.704C170.834 49.512 171.106 49.1973 171.298 48.76C171.49 48.3227 171.586 47.7413 171.586 47.016C171.586 46.1413 171.42 45.4533 171.09 44.952C170.77 44.44 170.236 44.184 169.49 44.184C169.02 44.184 168.594 44.2907 168.21 44.504C167.826 44.7067 167.506 44.9413 167.25 45.208C166.994 45.4747 166.812 45.6987 166.706 45.88C166.706 46.4027 166.743 46.9093 166.818 47.4C166.892 47.8907 167.02 48.3333 167.202 48.728C167.394 49.112 167.655 49.4213 167.986 49.656C168.327 49.88 168.754 49.992 169.266 49.992ZM182.748 46.696C182.748 47.4107 182.652 48.0453 182.46 48.6C182.278 49.144 182.012 49.608 181.66 49.992C181.318 50.376 180.897 50.6693 180.396 50.872C179.905 51.064 179.356 51.16 178.748 51.16C178.182 51.16 177.66 51.064 177.18 50.872C176.7 50.6693 176.284 50.376 175.932 49.992C175.58 49.608 175.302 49.144 175.1 48.6C174.908 48.0453 174.812 47.4107 174.812 46.696C174.812 45.7467 174.972 44.9467 175.292 44.296C175.612 43.6347 176.07 43.1333 176.668 42.792C177.265 42.44 177.974 42.264 178.796 42.264C179.574 42.264 180.257 42.44 180.844 42.792C181.441 43.1333 181.905 43.6347 182.236 44.296C182.577 44.9467 182.748 45.7467 182.748 46.696ZM176.268 46.696C176.268 47.368 176.353 47.9547 176.524 48.456C176.705 48.9467 176.982 49.3253 177.356 49.592C177.729 49.8587 178.204 49.992 178.78 49.992C179.356 49.992 179.83 49.8587 180.204 49.592C180.577 49.3253 180.849 48.9467 181.02 48.456C181.201 47.9547 181.292 47.368 181.292 46.696C181.292 46.0133 181.201 45.432 181.02 44.952C180.838 44.472 180.561 44.104 180.188 43.848C179.825 43.5813 179.35 43.448 178.764 43.448C177.889 43.448 177.254 43.736 176.86 44.312C176.465 44.888 176.268 45.6827 176.268 46.696ZM190.743 43.608H187.943V51H186.551V43.608H183.783V42.424H190.743V43.608ZM192.432 51V42.424H193.84V45.944H196.064C196.811 45.944 197.424 46.0347 197.904 46.216C198.384 46.3973 198.742 46.6693 198.976 47.032C199.211 47.384 199.328 47.832 199.328 48.376C199.328 48.9093 199.211 49.3733 198.976 49.768C198.752 50.1627 198.395 50.4667 197.904 50.68C197.424 50.8933 196.79 51 196 51H192.432ZM195.872 49.864C196.48 49.864 196.976 49.7627 197.36 49.56C197.744 49.3467 197.936 48.9787 197.936 48.456C197.936 47.9333 197.76 47.5813 197.408 47.4C197.056 47.208 196.55 47.112 195.888 47.112H193.84V49.864H195.872ZM200.752 51V42.424H202.16V51H200.752Z" fill="#ECEEEF"/>
<g filter="url(#filter3_d_21_645)">
<rect x="238.588" y="1.57448" width="99.4118" height="61.4765" fill="#373A3C"/>
</g>
<path d="M270.047 33.736V38.008H268.671V35H260.079V23.576H261.519V33.72H267.231V23.576H268.655V33.736H270.047ZM275.058 26.264C275.794 26.264 276.424 26.424 276.946 26.744C277.48 27.064 277.885 27.5173 278.162 28.104C278.45 28.68 278.594 29.3573 278.594 30.136V30.984H272.722C272.744 31.9547 272.989 32.696 273.458 33.208C273.938 33.7093 274.605 33.96 275.458 33.96C276.002 33.96 276.482 33.912 276.898 33.816C277.325 33.7093 277.762 33.56 278.21 33.368V34.6C277.773 34.792 277.341 34.9307 276.914 35.016C276.488 35.112 275.981 35.16 275.394 35.16C274.584 35.16 273.864 34.9947 273.234 34.664C272.616 34.3333 272.13 33.8427 271.778 33.192C271.437 32.5307 271.266 31.7253 271.266 30.776C271.266 29.8373 271.421 29.032 271.73 28.36C272.05 27.688 272.493 27.1707 273.058 26.808C273.634 26.4453 274.301 26.264 275.058 26.264ZM275.042 27.416C274.37 27.416 273.837 27.6347 273.442 28.072C273.058 28.4987 272.829 29.096 272.754 29.864H277.122C277.122 29.3733 277.048 28.9467 276.898 28.584C276.749 28.2213 276.52 27.9387 276.21 27.736C275.912 27.5227 275.522 27.416 275.042 27.416ZM282.186 26.424V29.992H286.842V26.424H288.25V35H286.842V31.176H282.186V35H280.778V26.424H282.186ZM294.213 26.28C295.258 26.28 296.032 26.5093 296.533 26.968C297.034 27.4267 297.285 28.1573 297.285 29.16V35H296.261L295.989 33.784H295.925C295.68 34.0933 295.424 34.3547 295.157 34.568C294.901 34.7707 294.602 34.92 294.261 35.016C293.93 35.112 293.525 35.16 293.045 35.16C292.533 35.16 292.069 35.0693 291.653 34.888C291.248 34.7067 290.928 34.4293 290.693 34.056C290.458 33.672 290.341 33.192 290.341 32.616C290.341 31.7627 290.677 31.1067 291.349 30.648C292.021 30.1787 293.056 29.9227 294.453 29.88L295.909 29.832V29.32C295.909 28.6053 295.754 28.1093 295.445 27.832C295.136 27.5547 294.698 27.416 294.133 27.416C293.685 27.416 293.258 27.4853 292.853 27.624C292.448 27.752 292.069 27.9013 291.717 28.072L291.285 27.016C291.658 26.8133 292.101 26.6427 292.613 26.504C293.125 26.3547 293.658 26.28 294.213 26.28ZM294.629 30.856C293.562 30.8987 292.821 31.0693 292.405 31.368C292 31.6667 291.797 32.088 291.797 32.632C291.797 33.112 291.941 33.464 292.229 33.688C292.528 33.912 292.906 34.024 293.365 34.024C294.09 34.024 294.693 33.8267 295.173 33.432C295.653 33.0267 295.893 32.408 295.893 31.576V30.808L294.629 30.856Z" fill="#ECEEEF"/>
<g filter="url(#filter4_d_21_645)">
<rect y="63.051" width="39.7647" height="61.4765" fill="white"/>
</g>
<path d="M8.26872 96.0348V94.7548H10.5567V86.6748L8.41272 88.2908L7.62872 87.2188L10.9407 84.8348H11.9967V94.7548H13.9007V96.0348H8.26872Z" fill="#373A3C"/>
<g filter="url(#filter5_d_21_645)">
<rect x="39.7646" y="63.0509" width="99.4118" height="61.4765" fill="white"/>
</g>
<path d="M47.5122 96V84.576H54.2962V85.84H48.9522V89.408H50.6482C51.7895 89.408 52.6749 89.552 53.3042 89.84C53.9335 90.1173 54.3709 90.5013 54.6162 90.992C54.8615 91.472 54.9842 92.0267 54.9842 92.656C54.9842 93.3493 54.8455 93.9467 54.5682 94.448C54.3015 94.9493 53.8642 95.3333 53.2562 95.6C52.6482 95.8667 51.8482 96 50.8562 96H47.5122ZM50.7122 94.768C51.7362 94.768 52.4562 94.5973 52.8722 94.256C53.2882 93.904 53.4962 93.3707 53.4962 92.656C53.4962 92.1653 53.3949 91.776 53.1922 91.488C53.0002 91.1893 52.6802 90.976 52.2322 90.848C51.7949 90.72 51.2082 90.656 50.4722 90.656H48.9522V94.768H50.7122ZM55.82 87.424H57.324L59.18 92.304C59.2866 92.592 59.3826 92.8693 59.468 93.136C59.564 93.4027 59.6493 93.664 59.724 93.92C59.7986 94.1653 59.8573 94.4053 59.9 94.64H59.964C60.028 94.3733 60.1293 94.0267 60.268 93.6C60.4066 93.1627 60.5506 92.7253 60.7 92.288L62.444 87.424H63.964L60.268 97.184C60.0653 97.7173 59.8253 98.1813 59.548 98.576C59.2813 98.9813 58.9506 99.2907 58.556 99.504C58.172 99.728 57.7026 99.84 57.148 99.84C56.892 99.84 56.668 99.824 56.476 99.792C56.284 99.7707 56.1186 99.744 55.98 99.712V98.592C56.0973 98.6133 56.236 98.6347 56.396 98.656C56.5666 98.6773 56.7426 98.688 56.924 98.688C57.2546 98.688 57.5373 98.624 57.772 98.496C58.0173 98.3787 58.2253 98.2027 58.396 97.968C58.5666 97.744 58.7106 97.4773 58.828 97.168L59.276 96.032L55.82 87.424ZM68.7602 96.16C68.0029 96.16 67.3255 96.0053 66.7282 95.696C66.1415 95.3867 65.6775 94.9067 65.3362 94.256C65.0055 93.6053 64.8402 92.7733 64.8402 91.76C64.8402 90.704 65.0162 89.8453 65.3682 89.184C65.7202 88.5227 66.1949 88.0373 66.7922 87.728C67.4002 87.4187 68.0882 87.264 68.8562 87.264C69.2935 87.264 69.7149 87.312 70.1202 87.408C70.5255 87.4933 70.8562 87.6 71.1122 87.728L70.6802 88.896C70.4242 88.8 70.1255 88.7093 69.7842 88.624C69.4429 88.5387 69.1229 88.496 68.8242 88.496C68.2482 88.496 67.7735 88.6187 67.4002 88.864C67.0269 89.1093 66.7495 89.472 66.5682 89.952C66.3869 90.432 66.2962 91.0293 66.2962 91.744C66.2962 92.4267 66.3869 93.008 66.5682 93.488C66.7495 93.968 67.0215 94.3307 67.3842 94.576C67.7469 94.8213 68.2002 94.944 68.7442 94.944C69.2135 94.944 69.6242 94.896 69.9762 94.8C70.3389 94.704 70.6695 94.5867 70.9682 94.448V95.696C70.6802 95.8453 70.3602 95.9573 70.0082 96.032C69.6669 96.1173 69.2509 96.16 68.7602 96.16ZM78.9277 88.608H76.1277V96H74.7357V88.608H71.9677V87.424H78.9277V88.608ZM92.022 96.192L90.63 93.152C90.278 92.3947 89.8353 91.856 89.302 91.536C88.7686 91.216 88.086 91.056 87.254 91.056H87.014V96H85.494V84.832C86.0593 84.7787 86.598 84.7413 87.11 84.72C87.6326 84.688 88.1873 84.672 88.774 84.672C90.1393 84.672 91.1633 84.9493 91.846 85.504C92.5393 86.0587 92.886 86.7733 92.886 87.648C92.886 88.4267 92.6513 89.056 92.182 89.536C91.7233 90.0053 91.0566 90.3573 90.182 90.592C90.47 90.72 90.726 90.8747 90.95 91.056C91.174 91.2267 91.3873 91.4613 91.59 91.76C91.8033 92.048 92.0166 92.4267 92.23 92.896L93.446 95.52L92.022 96.192ZM87.014 89.776H88.774C89.542 89.776 90.166 89.6053 90.646 89.264C91.126 88.9227 91.366 88.432 91.366 87.792C91.366 87.2587 91.142 86.8213 90.694 86.48C90.246 86.128 89.606 85.952 88.774 85.952C88.4113 85.952 88.086 85.9573 87.798 85.968C87.51 85.9787 87.2486 85.9947 87.014 86.016V89.776ZM95.369 96V84.8H96.889V96H95.369ZM104.415 96.192C103.583 96.192 102.842 96.0427 102.191 95.744C101.541 95.4347 100.986 95.0187 100.527 94.496C100.079 93.9627 99.7325 93.344 99.4872 92.64C99.2525 91.936 99.1352 91.184 99.1352 90.384C99.1352 89.2853 99.3432 88.304 99.7592 87.44C100.186 86.5653 100.794 85.8773 101.583 85.376C102.373 84.864 103.317 84.608 104.415 84.608C105.237 84.608 105.973 84.7573 106.623 85.056C107.285 85.3547 107.845 85.7707 108.303 86.304C108.762 86.8373 109.109 87.4507 109.343 88.144C109.589 88.8373 109.711 89.584 109.711 90.384C109.711 91.184 109.589 91.936 109.343 92.64C109.109 93.344 108.762 93.9627 108.303 94.496C107.845 95.0187 107.29 95.4347 106.639 95.744C105.989 96.0427 105.247 96.192 104.415 96.192ZM104.415 94.88C105.237 94.88 105.925 94.6827 106.479 94.288C107.034 93.8933 107.45 93.36 107.727 92.688C108.015 92.0053 108.159 91.2373 108.159 90.384C108.159 89.808 108.074 89.2533 107.903 88.72C107.733 88.1867 107.487 87.712 107.167 87.296C106.847 86.8693 106.453 86.5333 105.983 86.288C105.525 86.0427 105.002 85.92 104.415 85.92C103.637 85.92 102.965 86.1173 102.399 86.512C101.845 86.9067 101.418 87.44 101.119 88.112C100.831 88.784 100.687 89.5413 100.687 90.384C100.687 90.96 100.767 91.52 100.927 92.064C101.098 92.5973 101.343 93.0773 101.663 93.504C101.983 93.9307 102.373 94.2667 102.831 94.512C103.301 94.7573 103.829 94.88 104.415 94.88Z" fill="#373A3C"/>
<g filter="url(#filter6_d_21_645)">
<rect x="139.176" y="63.0509" width="99.4118" height="61.4765" fill="white"/>
</g>
<g filter="url(#filter7_d_21_645)">
<rect x="238.588" y="63.0509" width="99.4118" height="61.4765" fill="white"/>
</g>
<path d="M252.256 86.004V94.88H253.53V98.632H252.326V96H245.452V98.632H244.248V94.88H245.018C245.354 94.3013 245.672 93.6527 245.97 92.934C246.278 92.2153 246.549 91.464 246.782 90.68C247.016 89.8867 247.207 89.0933 247.356 88.3C247.506 87.5067 247.599 86.7413 247.636 86.004H252.256ZM248.742 87.138C248.705 87.6793 248.612 88.2907 248.462 88.972C248.322 89.6533 248.14 90.3533 247.916 91.072C247.702 91.7813 247.459 92.4673 247.188 93.13C246.927 93.7927 246.647 94.376 246.348 94.88H251.01V87.138H248.742ZM261.558 92.234C261.558 92.8593 261.474 93.4147 261.306 93.9C261.147 94.376 260.914 94.782 260.606 95.118C260.307 95.454 259.939 95.7107 259.5 95.888C259.071 96.056 258.59 96.14 258.058 96.14C257.563 96.14 257.106 96.056 256.686 95.888C256.266 95.7107 255.902 95.454 255.594 95.118C255.286 94.782 255.043 94.376 254.866 93.9C254.698 93.4147 254.614 92.8593 254.614 92.234C254.614 91.4033 254.754 90.7033 255.034 90.134C255.314 89.5553 255.715 89.1167 256.238 88.818C256.761 88.51 257.381 88.356 258.1 88.356C258.781 88.356 259.379 88.51 259.892 88.818C260.415 89.1167 260.821 89.5553 261.11 90.134C261.409 90.7033 261.558 91.4033 261.558 92.234ZM255.888 92.234C255.888 92.822 255.963 93.3353 256.112 93.774C256.271 94.2033 256.513 94.5347 256.84 94.768C257.167 95.0013 257.582 95.118 258.086 95.118C258.59 95.118 259.005 95.0013 259.332 94.768C259.659 94.5347 259.897 94.2033 260.046 93.774C260.205 93.3353 260.284 92.822 260.284 92.234C260.284 91.6367 260.205 91.128 260.046 90.708C259.887 90.288 259.645 89.966 259.318 89.742C259.001 89.5087 258.585 89.392 258.072 89.392C257.307 89.392 256.751 89.644 256.406 90.148C256.061 90.652 255.888 91.3473 255.888 92.234ZM268.089 88.496V89.532H264.743V96H263.511V88.496H268.089ZM275.954 92.234C275.954 92.8593 275.87 93.4147 275.702 93.9C275.544 94.376 275.31 94.782 275.002 95.118C274.704 95.454 274.335 95.7107 273.896 95.888C273.467 96.056 272.986 96.14 272.454 96.14C271.96 96.14 271.502 96.056 271.082 95.888C270.662 95.7107 270.298 95.454 269.99 95.118C269.682 94.782 269.44 94.376 269.262 93.9C269.094 93.4147 269.01 92.8593 269.01 92.234C269.01 91.4033 269.15 90.7033 269.43 90.134C269.71 89.5553 270.112 89.1167 270.634 88.818C271.157 88.51 271.778 88.356 272.496 88.356C273.178 88.356 273.775 88.51 274.288 88.818C274.811 89.1167 275.217 89.5553 275.506 90.134C275.805 90.7033 275.954 91.4033 275.954 92.234ZM270.284 92.234C270.284 92.822 270.359 93.3353 270.508 93.774C270.667 94.2033 270.91 94.5347 271.236 94.768C271.563 95.0013 271.978 95.118 272.482 95.118C272.986 95.118 273.402 95.0013 273.728 94.768C274.055 94.5347 274.293 94.2033 274.442 93.774C274.601 93.3353 274.68 92.822 274.68 92.234C274.68 91.6367 274.601 91.128 274.442 90.708C274.284 90.288 274.041 89.966 273.714 89.742C273.397 89.5087 272.982 89.392 272.468 89.392C271.703 89.392 271.148 89.644 270.802 90.148C270.457 90.652 270.284 91.3473 270.284 92.234ZM283.941 90.386C283.941 90.8527 283.801 91.2167 283.521 91.478C283.241 91.7393 282.882 91.9167 282.443 92.01V92.066C282.91 92.1313 283.316 92.2993 283.661 92.57C284.006 92.8313 284.179 93.242 284.179 93.802C284.179 94.1193 284.118 94.4133 283.997 94.684C283.885 94.9547 283.708 95.188 283.465 95.384C283.222 95.58 282.91 95.734 282.527 95.846C282.144 95.9487 281.682 96 281.141 96H277.907V88.496H281.127C281.659 88.496 282.135 88.5567 282.555 88.678C282.984 88.79 283.32 88.986 283.563 89.266C283.815 89.5367 283.941 89.91 283.941 90.386ZM282.905 93.802C282.905 93.3727 282.742 93.0647 282.415 92.878C282.088 92.6913 281.608 92.598 280.973 92.598H279.139V95.006H281.001C281.617 95.006 282.088 94.9173 282.415 94.74C282.742 94.5533 282.905 94.2407 282.905 93.802ZM282.695 90.54C282.695 90.1853 282.564 89.9287 282.303 89.77C282.051 89.602 281.636 89.518 281.057 89.518H279.139V91.576H280.833C281.44 91.576 281.902 91.492 282.219 91.324C282.536 91.156 282.695 90.8947 282.695 90.54ZM292.497 92.234C292.497 92.8593 292.413 93.4147 292.245 93.9C292.087 94.376 291.853 94.782 291.545 95.118C291.247 95.454 290.878 95.7107 290.439 95.888C290.01 96.056 289.529 96.14 288.997 96.14C288.503 96.14 288.045 96.056 287.625 95.888C287.205 95.7107 286.841 95.454 286.533 95.118C286.225 94.782 285.983 94.376 285.805 93.9C285.637 93.4147 285.553 92.8593 285.553 92.234C285.553 91.4033 285.693 90.7033 285.973 90.134C286.253 89.5553 286.655 89.1167 287.177 88.818C287.7 88.51 288.321 88.356 289.039 88.356C289.721 88.356 290.318 88.51 290.831 88.818C291.354 89.1167 291.76 89.5553 292.049 90.134C292.348 90.7033 292.497 91.4033 292.497 92.234ZM286.827 92.234C286.827 92.822 286.902 93.3353 287.051 93.774C287.21 94.2033 287.453 94.5347 287.779 94.768C288.106 95.0013 288.521 95.118 289.025 95.118C289.529 95.118 289.945 95.0013 290.271 94.768C290.598 94.5347 290.836 94.2033 290.985 93.774C291.144 93.3353 291.223 92.822 291.223 92.234C291.223 91.6367 291.144 91.128 290.985 90.708C290.827 90.288 290.584 89.966 290.257 89.742C289.94 89.5087 289.525 89.392 289.011 89.392C288.246 89.392 287.691 89.644 287.345 90.148C287 90.652 286.827 91.3473 286.827 92.234ZM298.02 88.356C298.944 88.356 299.686 88.678 300.246 89.322C300.815 89.966 301.1 90.9367 301.1 92.234C301.1 93.0833 300.969 93.802 300.708 94.39C300.456 94.9687 300.097 95.4073 299.63 95.706C299.173 95.9953 298.631 96.14 298.006 96.14C297.623 96.14 297.283 96.0887 296.984 95.986C296.685 95.8833 296.429 95.7527 296.214 95.594C296.009 95.426 295.831 95.244 295.682 95.048H295.598C295.617 95.2067 295.635 95.4073 295.654 95.65C295.673 95.8927 295.682 96.1027 295.682 96.28V99.36H294.45V88.496H295.458L295.626 89.518H295.682C295.831 89.3033 296.009 89.1073 296.214 88.93C296.429 88.7527 296.681 88.6127 296.97 88.51C297.269 88.4073 297.619 88.356 298.02 88.356ZM297.796 89.392C297.292 89.392 296.886 89.49 296.578 89.686C296.27 89.8727 296.046 90.1573 295.906 90.54C295.766 90.9227 295.691 91.408 295.682 91.996V92.234C295.682 92.85 295.747 93.3727 295.878 93.802C296.009 94.2313 296.228 94.558 296.536 94.782C296.853 95.006 297.283 95.118 297.824 95.118C298.281 95.118 298.655 94.992 298.944 94.74C299.243 94.488 299.462 94.1473 299.602 93.718C299.751 93.2793 299.826 92.78 299.826 92.22C299.826 91.3613 299.658 90.6753 299.322 90.162C298.995 89.6487 298.487 89.392 297.796 89.392ZM304.295 88.496V91.618H308.369V88.496H309.601V96H308.369V92.654H304.295V96H303.063V88.496H304.295ZM314.819 88.37C315.734 88.37 316.411 88.5707 316.849 88.972C317.288 89.3733 317.507 90.0127 317.507 90.89V96H316.611L316.373 94.936H316.317C316.103 95.2067 315.879 95.4353 315.645 95.622C315.421 95.7993 315.16 95.93 314.861 96.014C314.572 96.098 314.217 96.14 313.797 96.14C313.349 96.14 312.943 96.0607 312.579 95.902C312.225 95.7433 311.945 95.5007 311.739 95.174C311.534 94.838 311.431 94.418 311.431 93.914C311.431 93.1673 311.725 92.5933 312.313 92.192C312.901 91.7813 313.807 91.5573 315.029 91.52L316.303 91.478V91.03C316.303 90.4047 316.168 89.9707 315.897 89.728C315.627 89.4853 315.244 89.364 314.749 89.364C314.357 89.364 313.984 89.4247 313.629 89.546C313.275 89.658 312.943 89.7887 312.635 89.938L312.257 89.014C312.584 88.8367 312.971 88.6873 313.419 88.566C313.867 88.4353 314.334 88.37 314.819 88.37ZM315.183 92.374C314.25 92.4113 313.601 92.5607 313.237 92.822C312.883 93.0833 312.705 93.452 312.705 93.928C312.705 94.348 312.831 94.656 313.083 94.852C313.345 95.048 313.676 95.146 314.077 95.146C314.712 95.146 315.239 94.9733 315.659 94.628C316.079 94.2733 316.289 93.732 316.289 93.004V92.332L315.183 92.374ZM320.287 96H318.859L321.001 92.85C320.712 92.7753 320.432 92.6587 320.161 92.5C319.89 92.332 319.671 92.1033 319.503 91.814C319.335 91.5153 319.251 91.1467 319.251 90.708C319.251 89.9893 319.494 89.4433 319.979 89.07C320.464 88.6873 321.108 88.496 321.911 88.496H325.271V96H324.039V93.018H322.219L320.287 96ZM320.441 90.722C320.441 91.1513 320.6 91.4733 320.917 91.688C321.244 91.8933 321.696 91.996 322.275 91.996H324.039V89.518H322.037C321.468 89.518 321.057 89.63 320.805 89.854C320.562 90.078 320.441 90.3673 320.441 90.722Z" fill="#373A3C"/>
<g filter="url(#filter8_d_21_645)">
<rect y="124.527" width="39.7647" height="61.4765" fill="white"/>
</g>
<path d="M7.37272 157.511C7.34072 157.319 7.32472 157.122 7.32472 156.919C7.32472 156.226 7.44206 155.607 7.67672 155.063C7.92206 154.509 8.23672 154.007 8.62072 153.559C9.00472 153.101 9.41006 152.679 9.83672 152.295C10.2741 151.901 10.6794 151.527 11.0527 151.175C11.4367 150.813 11.7514 150.45 11.9967 150.087C12.2421 149.725 12.3647 149.346 12.3647 148.951C12.3647 148.503 12.1994 148.135 11.8687 147.847C11.5381 147.549 11.1114 147.399 10.5887 147.399C10.1407 147.399 9.73006 147.49 9.35672 147.671C8.99406 147.842 8.65272 148.077 8.33272 148.375L7.53272 147.399C7.95939 147.015 8.42872 146.706 8.94072 146.471C9.46339 146.237 10.0661 146.119 10.7487 146.119C11.3781 146.119 11.9274 146.242 12.3967 146.487C12.8661 146.722 13.2287 147.047 13.4847 147.463C13.7514 147.879 13.8847 148.343 13.8847 148.855C13.8847 149.367 13.7727 149.842 13.5487 150.279C13.3247 150.717 13.0367 151.127 12.6847 151.511C12.3327 151.895 11.9541 152.269 11.5487 152.631C11.1434 152.983 10.7541 153.346 10.3807 153.719C10.0074 154.093 9.68739 154.482 9.42072 154.887C9.16472 155.293 9.00472 155.73 8.94072 156.199H13.8687V157.511H7.37272Z" fill="#373A3C"/>
<g filter="url(#filter9_d_21_645)">
<rect x="39.7646" y="124.527" width="99.4118" height="61.4765" fill="white"/>
</g>
<path d="M47.1242 146V137.432H53.5562V146H52.4882V138.38H48.2042V146H47.1242ZM58.8175 139.448C59.6095 139.448 60.2455 139.724 60.7255 140.276C61.2135 140.828 61.4575 141.66 61.4575 142.772C61.4575 143.5 61.3455 144.116 61.1215 144.62C60.9055 145.116 60.5975 145.492 60.1975 145.748C59.8055 145.996 59.3415 146.12 58.8055 146.12C58.4775 146.12 58.1855 146.076 57.9295 145.988C57.6735 145.9 57.4535 145.788 57.2695 145.652C57.0935 145.508 56.9415 145.352 56.8135 145.184H56.7415C56.7575 145.32 56.7735 145.492 56.7895 145.7C56.8055 145.908 56.8135 146.088 56.8135 146.24V148.88H55.7575V139.568H56.6215L56.7655 140.444H56.8135C56.9415 140.26 57.0935 140.092 57.2695 139.94C57.4535 139.788 57.6695 139.668 57.9175 139.58C58.1735 139.492 58.4735 139.448 58.8175 139.448ZM58.6255 140.336C58.1935 140.336 57.8455 140.42 57.5815 140.588C57.3175 140.748 57.1255 140.992 57.0055 141.32C56.8855 141.648 56.8215 142.064 56.8135 142.568V142.772C56.8135 143.3 56.8695 143.748 56.9815 144.116C57.0935 144.484 57.2815 144.764 57.5455 144.956C57.8175 145.148 58.1855 145.244 58.6495 145.244C59.0415 145.244 59.3615 145.136 59.6095 144.92C59.8655 144.704 60.0535 144.412 60.1735 144.044C60.3015 143.668 60.3655 143.24 60.3655 142.76C60.3655 142.024 60.2215 141.436 59.9335 140.996C59.6535 140.556 59.2175 140.336 58.6255 140.336ZM68.7324 142.772C68.7324 143.308 68.6604 143.784 68.5164 144.2C68.3804 144.608 68.1804 144.956 67.9164 145.244C67.6604 145.532 67.3444 145.752 66.9684 145.904C66.6004 146.048 66.1884 146.12 65.7324 146.12C65.3084 146.12 64.9164 146.048 64.5564 145.904C64.1964 145.752 63.8844 145.532 63.6204 145.244C63.3564 144.956 63.1484 144.608 62.9964 144.2C62.8524 143.784 62.7804 143.308 62.7804 142.772C62.7804 142.06 62.9004 141.46 63.1404 140.972C63.3804 140.476 63.7244 140.1 64.1724 139.844C64.6204 139.58 65.1524 139.448 65.7684 139.448C66.3524 139.448 66.8644 139.58 67.3044 139.844C67.7524 140.1 68.1004 140.476 68.3484 140.972C68.6044 141.46 68.7324 142.06 68.7324 142.772ZM63.8724 142.772C63.8724 143.276 63.9364 143.716 64.0644 144.092C64.2004 144.46 64.4084 144.744 64.6884 144.944C64.9684 145.144 65.3244 145.244 65.7564 145.244C66.1884 145.244 66.5444 145.144 66.8244 144.944C67.1044 144.744 67.3084 144.46 67.4364 144.092C67.5724 143.716 67.6404 143.276 67.6404 142.772C67.6404 142.26 67.5724 141.824 67.4364 141.464C67.3004 141.104 67.0924 140.828 66.8124 140.636C66.5404 140.436 66.1844 140.336 65.7444 140.336C65.0884 140.336 64.6124 140.552 64.3164 140.984C64.0204 141.416 63.8724 142.012 63.8724 142.772ZM74.7288 140.456H72.6288V146H71.5848V140.456H69.5088V139.568H74.7288V140.456ZM78.4318 139.46C79.2158 139.46 79.7958 139.632 80.1718 139.976C80.5478 140.32 80.7358 140.868 80.7358 141.62V146H79.9678L79.7638 145.088H79.7158C79.5318 145.32 79.3398 145.516 79.1398 145.676C78.9478 145.828 78.7238 145.94 78.4678 146.012C78.2198 146.084 77.9158 146.12 77.5558 146.12C77.1718 146.12 76.8238 146.052 76.5118 145.916C76.2078 145.78 75.9678 145.572 75.7918 145.292C75.6158 145.004 75.5278 144.644 75.5278 144.212C75.5278 143.572 75.7798 143.08 76.2838 142.736C76.7878 142.384 77.5638 142.192 78.6118 142.16L79.7038 142.124V141.74C79.7038 141.204 79.5878 140.832 79.3558 140.624C79.1238 140.416 78.7958 140.312 78.3718 140.312C78.0358 140.312 77.7158 140.364 77.4118 140.468C77.1078 140.564 76.8238 140.676 76.5598 140.804L76.2358 140.012C76.5158 139.86 76.8478 139.732 77.2318 139.628C77.6158 139.516 78.0158 139.46 78.4318 139.46ZM78.7438 142.892C77.9438 142.924 77.3878 143.052 77.0758 143.276C76.7718 143.5 76.6198 143.816 76.6198 144.224C76.6198 144.584 76.7278 144.848 76.9438 145.016C77.1678 145.184 77.4518 145.268 77.7958 145.268C78.3398 145.268 78.7918 145.12 79.1518 144.824C79.5118 144.52 79.6918 144.056 79.6918 143.432V142.856L78.7438 142.892ZM83.7784 139.568V142.244H87.2704V139.568H88.3264V146H87.2704V143.132H83.7784V146H82.7224V139.568H83.7784ZM91.287 141.908C91.287 142.284 91.391 142.564 91.599 142.748C91.815 142.924 92.123 143.012 92.523 143.012C92.923 143.012 93.287 142.952 93.615 142.832C93.943 142.704 94.279 142.536 94.623 142.328V139.568H95.679V146H94.623V143.132C94.263 143.364 93.907 143.548 93.555 143.684C93.211 143.812 92.795 143.876 92.307 143.876C91.651 143.876 91.139 143.704 90.771 143.36C90.411 143.016 90.231 142.556 90.231 141.98V139.568H91.287V141.908ZM98.7184 143.492C98.7184 143.564 98.7144 143.668 98.7064 143.804C98.7064 143.932 98.7024 144.072 98.6944 144.224C98.6864 144.368 98.6784 144.508 98.6704 144.644C98.6624 144.772 98.6544 144.876 98.6464 144.956L102.09 139.568H103.386V146H102.402V142.208C102.402 142.08 102.402 141.912 102.402 141.704C102.41 141.496 102.418 141.292 102.426 141.092C102.434 140.884 102.442 140.728 102.45 140.624L99.0304 146H97.7224V139.568H98.7184V143.492ZM109.873 140.456H107.773V146H106.729V140.456H104.653V139.568H109.873V140.456ZM114.104 142.208C114.664 142.208 115.128 142.276 115.496 142.412C115.864 142.548 116.14 142.752 116.324 143.024C116.516 143.288 116.612 143.624 116.612 144.032C116.612 144.432 116.52 144.78 116.336 145.076C116.16 145.372 115.884 145.6 115.508 145.76C115.132 145.92 114.648 146 114.056 146H111.14V139.568H112.196V142.208H114.104ZM115.556 144.092C115.556 143.7 115.416 143.436 115.136 143.3C114.864 143.156 114.48 143.084 113.984 143.084H112.196V145.148H114.008C114.456 145.148 114.824 145.068 115.112 144.908C115.408 144.748 115.556 144.476 115.556 144.092ZM47.9042 165.908C47.9042 166.284 48.0082 166.564 48.2162 166.748C48.4322 166.924 48.7402 167.012 49.1402 167.012C49.5402 167.012 49.9042 166.952 50.2322 166.832C50.5602 166.704 50.8962 166.536 51.2402 166.328V163.568H52.2962V170H51.2402V167.132C50.8802 167.364 50.5242 167.548 50.1722 167.684C49.8282 167.812 49.4122 167.876 48.9242 167.876C48.2682 167.876 47.7562 167.704 47.3882 167.36C47.0282 167.016 46.8482 166.556 46.8482 165.98V163.568H47.9042V165.908ZM58.7796 164.456H56.6796V170H55.6356V164.456H53.5596V163.568H58.7796V164.456ZM65.5214 166.772C65.5214 167.308 65.4494 167.784 65.3054 168.2C65.1694 168.608 64.9694 168.956 64.7054 169.244C64.4494 169.532 64.1334 169.752 63.7574 169.904C63.3894 170.048 62.9774 170.12 62.5214 170.12C62.0974 170.12 61.7054 170.048 61.3454 169.904C60.9854 169.752 60.6734 169.532 60.4094 169.244C60.1454 168.956 59.9374 168.608 59.7854 168.2C59.6414 167.784 59.5694 167.308 59.5694 166.772C59.5694 166.06 59.6894 165.46 59.9294 164.972C60.1694 164.476 60.5134 164.1 60.9614 163.844C61.4094 163.58 61.9414 163.448 62.5574 163.448C63.1414 163.448 63.6534 163.58 64.0934 163.844C64.5414 164.1 64.8894 164.476 65.1374 164.972C65.3934 165.46 65.5214 166.06 65.5214 166.772ZM60.6614 166.772C60.6614 167.276 60.7254 167.716 60.8534 168.092C60.9894 168.46 61.1974 168.744 61.4774 168.944C61.7574 169.144 62.1134 169.244 62.5454 169.244C62.9774 169.244 63.3334 169.144 63.6134 168.944C63.8934 168.744 64.0974 168.46 64.2254 168.092C64.3614 167.716 64.4294 167.276 64.4294 166.772C64.4294 166.26 64.3614 165.824 64.2254 165.464C64.0894 165.104 63.8814 164.828 63.6014 164.636C63.3294 164.436 62.9734 164.336 62.5334 164.336C61.8774 164.336 61.4014 164.552 61.1054 164.984C60.8094 165.416 60.6614 166.012 60.6614 166.772ZM67.735 166.376V165.392H71.815V166.376H67.735ZM79.2864 170H78.2184V164.444H76.3224C76.2424 165.46 76.1424 166.328 76.0224 167.048C75.9024 167.76 75.7504 168.34 75.5664 168.788C75.3824 169.236 75.1624 169.564 74.9064 169.772C74.6504 169.98 74.3504 170.084 74.0064 170.084C73.9024 170.084 73.7984 170.076 73.6944 170.06C73.5984 170.052 73.5184 170.032 73.4544 170V169.208C73.5024 169.224 73.5544 169.236 73.6104 169.244C73.6664 169.252 73.7224 169.256 73.7784 169.256C73.9544 169.256 74.1144 169.184 74.2584 169.04C74.4024 168.896 74.5304 168.676 74.6424 168.38C74.7624 168.084 74.8704 167.712 74.9664 167.264C75.0624 166.808 75.1464 166.272 75.2184 165.656C75.2904 165.04 75.3544 164.344 75.4104 163.568H79.2864V170ZM82.3239 167.492C82.3239 167.564 82.3199 167.668 82.3119 167.804C82.3119 167.932 82.3079 168.072 82.2999 168.224C82.2919 168.368 82.2839 168.508 82.2759 168.644C82.2679 168.772 82.2599 168.876 82.2519 168.956L85.6959 163.568H86.9919V170H86.0079V166.208C86.0079 166.08 86.0079 165.912 86.0079 165.704C86.0159 165.496 86.0239 165.292 86.0319 165.092C86.0399 164.884 86.0479 164.728 86.0559 164.624L82.6359 170H81.3279V163.568H82.3239V167.492ZM88.7028 166.136C88.7028 165.2 88.7948 164.404 88.9788 163.748C89.1708 163.084 89.4628 162.556 89.8548 162.164C90.2548 161.764 90.7668 161.496 91.3908 161.36C91.9108 161.248 92.4188 161.148 92.9148 161.06C93.4108 160.972 93.8748 160.892 94.3068 160.82L94.4868 161.744C94.2788 161.776 94.0468 161.816 93.7908 161.864C93.5348 161.904 93.2748 161.948 93.0108 161.996C92.7468 162.036 92.4908 162.08 92.2428 162.128C92.0028 162.168 91.7908 162.208 91.6068 162.248C91.3428 162.304 91.1068 162.4 90.8988 162.536C90.6908 162.664 90.5108 162.84 90.3588 163.064C90.2148 163.288 90.0988 163.564 90.0108 163.892C89.9228 164.22 89.8708 164.608 89.8548 165.056H89.9268C90.0388 164.904 90.1908 164.748 90.3828 164.588C90.5828 164.428 90.8188 164.292 91.0908 164.18C91.3708 164.068 91.6868 164.012 92.0388 164.012C92.5988 164.012 93.0628 164.136 93.4308 164.384C93.8068 164.624 94.0868 164.96 94.2708 165.392C94.4628 165.824 94.5588 166.328 94.5588 166.904C94.5588 167.616 94.4348 168.212 94.1868 168.692C93.9388 169.172 93.5948 169.532 93.1548 169.772C92.7148 170.004 92.2028 170.12 91.6188 170.12C91.1788 170.12 90.7788 170.036 90.4188 169.868C90.0588 169.692 89.7508 169.436 89.4948 169.1C89.2388 168.764 89.0428 168.348 88.9068 167.852C88.7708 167.356 88.7028 166.784 88.7028 166.136ZM91.7028 169.244C92.0548 169.244 92.3588 169.172 92.6148 169.028C92.8788 168.884 93.0828 168.648 93.2268 168.32C93.3708 167.992 93.4428 167.556 93.4428 167.012C93.4428 166.356 93.3188 165.84 93.0708 165.464C92.8308 165.08 92.4308 164.888 91.8708 164.888C91.5188 164.888 91.1988 164.968 90.9108 165.128C90.6228 165.28 90.3828 165.456 90.1908 165.656C89.9988 165.856 89.8628 166.024 89.7828 166.16C89.7828 166.552 89.8108 166.932 89.8668 167.3C89.9228 167.668 90.0188 168 90.1548 168.296C90.2988 168.584 90.4948 168.816 90.7428 168.992C90.9988 169.16 91.3188 169.244 91.7028 169.244ZM101.814 166.772C101.814 167.308 101.742 167.784 101.598 168.2C101.462 168.608 101.262 168.956 100.998 169.244C100.742 169.532 100.426 169.752 100.05 169.904C99.6824 170.048 99.2704 170.12 98.8144 170.12C98.3904 170.12 97.9984 170.048 97.6384 169.904C97.2784 169.752 96.9664 169.532 96.7024 169.244C96.4384 168.956 96.2304 168.608 96.0784 168.2C95.9344 167.784 95.8624 167.308 95.8624 166.772C95.8624 166.06 95.9824 165.46 96.2224 164.972C96.4624 164.476 96.8064 164.1 97.2544 163.844C97.7024 163.58 98.2344 163.448 98.8504 163.448C99.4344 163.448 99.9464 163.58 100.386 163.844C100.834 164.1 101.182 164.476 101.43 164.972C101.686 165.46 101.814 166.06 101.814 166.772ZM96.9544 166.772C96.9544 167.276 97.0184 167.716 97.1464 168.092C97.2824 168.46 97.4904 168.744 97.7704 168.944C98.0504 169.144 98.4064 169.244 98.8384 169.244C99.2704 169.244 99.6264 169.144 99.9064 168.944C100.186 168.744 100.39 168.46 100.518 168.092C100.654 167.716 100.722 167.276 100.722 166.772C100.722 166.26 100.654 165.824 100.518 165.464C100.382 165.104 100.174 164.828 99.8944 164.636C99.6224 164.436 99.2664 164.336 98.8264 164.336C98.1704 164.336 97.6944 164.552 97.3984 164.984C97.1024 165.416 96.9544 166.012 96.9544 166.772Z" fill="#373A3C"/>
<g filter="url(#filter10_d_21_645)">
<rect x="139.176" y="124.527" width="99.4118" height="61.4765" fill="white"/>
</g>
<path d="M147.845 158V156.72H150.133V148.64L147.989 150.256L147.205 149.184L150.517 146.8H151.573V156.72H153.477V158H147.845ZM157.215 153.168V151.856H162.655V153.168H157.215ZM166.137 158C166.105 157.808 166.089 157.611 166.089 157.408C166.089 156.715 166.206 156.096 166.441 155.552C166.686 154.997 167.001 154.496 167.385 154.048C167.769 153.589 168.174 153.168 168.601 152.784C169.038 152.389 169.443 152.016 169.817 151.664C170.201 151.301 170.515 150.939 170.761 150.576C171.006 150.213 171.129 149.835 171.129 149.44C171.129 148.992 170.963 148.624 170.633 148.336C170.302 148.037 169.875 147.888 169.353 147.888C168.905 147.888 168.494 147.979 168.121 148.16C167.758 148.331 167.417 148.565 167.097 148.864L166.297 147.888C166.723 147.504 167.193 147.195 167.705 146.96C168.227 146.725 168.83 146.608 169.513 146.608C170.142 146.608 170.691 146.731 171.161 146.976C171.63 147.211 171.993 147.536 172.249 147.952C172.515 148.368 172.649 148.832 172.649 149.344C172.649 149.856 172.537 150.331 172.313 150.768C172.089 151.205 171.801 151.616 171.449 152C171.097 152.384 170.718 152.757 170.313 153.12C169.907 153.472 169.518 153.835 169.145 154.208C168.771 154.581 168.451 154.971 168.185 155.376C167.929 155.781 167.769 156.219 167.705 156.688H172.633V158H166.137ZM148.133 176.544C148.133 177.045 148.272 177.419 148.549 177.664C148.837 177.899 149.248 178.016 149.781 178.016C150.314 178.016 150.8 177.936 151.237 177.776C151.674 177.605 152.122 177.381 152.581 177.104V173.424H153.989V182H152.581V178.176C152.101 178.485 151.626 178.731 151.157 178.912C150.698 179.083 150.144 179.168 149.493 179.168C148.618 179.168 147.936 178.939 147.445 178.48C146.965 178.021 146.725 177.408 146.725 176.64V173.424H148.133V176.544ZM159.962 173.28C161.007 173.28 161.78 173.509 162.282 173.968C162.783 174.427 163.034 175.157 163.034 176.16V182H162.01L161.738 180.784H161.674C161.428 181.093 161.172 181.355 160.906 181.568C160.65 181.771 160.351 181.92 160.01 182.016C159.679 182.112 159.274 182.16 158.794 182.16C158.282 182.16 157.818 182.069 157.402 181.888C156.996 181.707 156.676 181.429 156.442 181.056C156.207 180.672 156.09 180.192 156.09 179.616C156.09 178.763 156.426 178.107 157.098 177.648C157.77 177.179 158.804 176.923 160.202 176.88L161.658 176.832V176.32C161.658 175.605 161.503 175.109 161.194 174.832C160.884 174.555 160.447 174.416 159.882 174.416C159.434 174.416 159.007 174.485 158.602 174.624C158.196 174.752 157.818 174.901 157.466 175.072L157.034 174.016C157.407 173.813 157.85 173.643 158.362 173.504C158.874 173.355 159.407 173.28 159.962 173.28ZM160.378 177.856C159.311 177.899 158.57 178.069 158.154 178.368C157.748 178.667 157.546 179.088 157.546 179.632C157.546 180.112 157.69 180.464 157.978 180.688C158.276 180.912 158.655 181.024 159.114 181.024C159.839 181.024 160.442 180.827 160.922 180.432C161.402 180.027 161.642 179.408 161.642 178.576V177.808L160.378 177.856ZM169.122 182.16C168.365 182.16 167.688 182.005 167.09 181.696C166.504 181.387 166.04 180.907 165.698 180.256C165.368 179.605 165.202 178.773 165.202 177.76C165.202 176.704 165.378 175.845 165.73 175.184C166.082 174.523 166.557 174.037 167.154 173.728C167.762 173.419 168.45 173.264 169.218 173.264C169.656 173.264 170.077 173.312 170.482 173.408C170.888 173.493 171.218 173.6 171.474 173.728L171.042 174.896C170.786 174.8 170.488 174.709 170.146 174.624C169.805 174.539 169.485 174.496 169.186 174.496C168.61 174.496 168.136 174.619 167.762 174.864C167.389 175.109 167.112 175.472 166.93 175.952C166.749 176.432 166.658 177.029 166.658 177.744C166.658 178.427 166.749 179.008 166.93 179.488C167.112 179.968 167.384 180.331 167.746 180.576C168.109 180.821 168.562 180.944 169.106 180.944C169.576 180.944 169.986 180.896 170.338 180.8C170.701 180.704 171.032 180.587 171.33 180.448V181.696C171.042 181.845 170.722 181.957 170.37 182.032C170.029 182.117 169.613 182.16 169.122 182.16ZM176.618 173.28C177.663 173.28 178.437 173.509 178.938 173.968C179.439 174.427 179.69 175.157 179.69 176.16V182H178.666L178.394 180.784H178.33C178.085 181.093 177.829 181.355 177.562 181.568C177.306 181.771 177.007 181.92 176.666 182.016C176.335 182.112 175.93 182.16 175.45 182.16C174.938 182.16 174.474 182.069 174.058 181.888C173.653 181.707 173.333 181.429 173.098 181.056C172.863 180.672 172.746 180.192 172.746 179.616C172.746 178.763 173.082 178.107 173.754 177.648C174.426 177.179 175.461 176.923 176.858 176.88L178.314 176.832V176.32C178.314 175.605 178.159 175.109 177.85 174.832C177.541 174.555 177.103 174.416 176.538 174.416C176.09 174.416 175.663 174.485 175.258 174.624C174.853 174.752 174.474 174.901 174.122 175.072L173.69 174.016C174.063 173.813 174.506 173.643 175.018 173.504C175.53 173.355 176.063 173.28 176.618 173.28ZM177.034 177.856C175.967 177.899 175.226 178.069 174.81 178.368C174.405 178.667 174.202 179.088 174.202 179.632C174.202 180.112 174.346 180.464 174.634 180.688C174.933 180.912 175.311 181.024 175.77 181.024C176.495 181.024 177.098 180.827 177.578 180.432C178.058 180.027 178.298 179.408 178.298 178.576V177.808L177.034 177.856Z" fill="#373A3C"/>
<g filter="url(#filter11_d_21_645)">
<rect x="238.588" y="124.527" width="99.4118" height="61.4765" fill="white"/>
</g>
<path d="M251.317 158C251.285 157.808 251.269 157.611 251.269 157.408C251.269 156.715 251.387 156.096 251.621 155.552C251.867 154.997 252.181 154.496 252.565 154.048C252.949 153.589 253.355 153.168 253.781 152.784C254.219 152.389 254.624 152.016 254.997 151.664C255.381 151.301 255.696 150.939 255.941 150.576C256.187 150.213 256.309 149.835 256.309 149.44C256.309 148.992 256.144 148.624 255.813 148.336C255.483 148.037 255.056 147.888 254.533 147.888C254.085 147.888 253.675 147.979 253.301 148.16C252.939 148.331 252.597 148.565 252.277 148.864L251.477 147.888C251.904 147.504 252.373 147.195 252.885 146.96C253.408 146.725 254.011 146.608 254.693 146.608C255.323 146.608 255.872 146.731 256.341 146.976C256.811 147.211 257.173 147.536 257.429 147.952C257.696 148.368 257.829 148.832 257.829 149.344C257.829 149.856 257.717 150.331 257.493 150.768C257.269 151.205 256.981 151.616 256.629 152C256.277 152.384 255.899 152.757 255.493 153.12C255.088 153.472 254.699 153.835 254.325 154.208C253.952 154.581 253.632 154.971 253.365 155.376C253.109 155.781 252.949 156.219 252.885 156.688H257.813V158H251.317ZM264.287 158.192C263.039 158.192 262.09 157.685 261.439 156.672C260.788 155.648 260.463 154.219 260.463 152.384C260.463 150.539 260.794 149.115 261.455 148.112C262.127 147.109 263.082 146.608 264.319 146.608C265.567 146.608 266.516 147.115 267.167 148.128C267.818 149.141 268.143 150.571 268.143 152.416C268.143 154.261 267.807 155.685 267.135 156.688C266.474 157.691 265.524 158.192 264.287 158.192ZM264.303 156.88C264.783 156.88 265.194 156.741 265.535 156.464C265.887 156.176 266.154 155.707 266.335 155.056C266.527 154.405 266.623 153.531 266.623 152.432C266.623 150.96 266.415 149.84 265.999 149.072C265.594 148.304 265.028 147.92 264.303 147.92C263.823 147.92 263.407 148.064 263.055 148.352C262.714 148.629 262.447 149.093 262.255 149.744C262.074 150.384 261.983 151.259 261.983 152.368C261.983 153.84 262.186 154.96 262.591 155.728C263.007 156.496 263.578 156.88 264.303 156.88ZM273.881 158.192C272.633 158.192 271.683 157.685 271.033 156.672C270.382 155.648 270.057 154.219 270.057 152.384C270.057 150.539 270.387 149.115 271.049 148.112C271.721 147.109 272.675 146.608 273.913 146.608C275.161 146.608 276.11 147.115 276.761 148.128C277.411 149.141 277.737 150.571 277.737 152.416C277.737 154.261 277.401 155.685 276.729 156.688C276.067 157.691 275.118 158.192 273.881 158.192ZM273.897 156.88C274.377 156.88 274.787 156.741 275.129 156.464C275.481 156.176 275.747 155.707 275.929 155.056C276.121 154.405 276.217 153.531 276.217 152.432C276.217 150.96 276.009 149.84 275.593 149.072C275.187 148.304 274.622 147.92 273.897 147.92C273.417 147.92 273.001 148.064 272.649 148.352C272.307 148.629 272.041 149.093 271.849 149.744C271.667 150.384 271.577 151.259 271.577 152.368C271.577 153.84 271.779 154.96 272.185 155.728C272.601 156.496 273.171 156.88 273.897 156.88ZM284.131 149.264C285.187 149.264 286.035 149.632 286.675 150.368C287.325 151.104 287.651 152.213 287.651 153.696C287.651 154.667 287.501 155.488 287.203 156.16C286.915 156.821 286.504 157.323 285.971 157.664C285.448 157.995 284.829 158.16 284.115 158.16C283.677 158.16 283.288 158.101 282.947 157.984C282.605 157.867 282.312 157.717 282.067 157.536C281.832 157.344 281.629 157.136 281.459 156.912H281.363C281.384 157.093 281.405 157.323 281.427 157.6C281.448 157.877 281.459 158.117 281.459 158.32V161.84H280.051V149.424H281.203L281.395 150.592H281.459C281.629 150.347 281.832 150.123 282.067 149.92C282.312 149.717 282.6 149.557 282.931 149.44C283.272 149.323 283.672 149.264 284.131 149.264ZM283.875 150.448C283.299 150.448 282.835 150.56 282.483 150.784C282.131 150.997 281.875 151.323 281.715 151.76C281.555 152.197 281.469 152.752 281.459 153.424V153.696C281.459 154.4 281.533 154.997 281.683 155.488C281.832 155.979 282.083 156.352 282.435 156.608C282.797 156.864 283.288 156.992 283.907 156.992C284.429 156.992 284.856 156.848 285.187 156.56C285.528 156.272 285.779 155.883 285.939 155.392C286.109 154.891 286.195 154.32 286.195 153.68C286.195 152.699 286.003 151.915 285.619 151.328C285.245 150.741 284.664 150.448 283.875 150.448ZM295.923 152.544C295.923 153.045 296.062 153.419 296.339 153.664C296.627 153.899 297.038 154.016 297.571 154.016C298.105 154.016 298.59 153.936 299.027 153.776C299.465 153.605 299.913 153.381 300.371 153.104V149.424H301.779V158H300.371V154.176C299.891 154.485 299.417 154.731 298.947 154.912C298.489 155.083 297.934 155.168 297.283 155.168C296.409 155.168 295.726 154.939 295.235 154.48C294.755 154.021 294.515 153.408 294.515 152.64V149.424H295.923V152.544ZM307.752 149.28C308.797 149.28 309.57 149.509 310.072 149.968C310.573 150.427 310.824 151.157 310.824 152.16V158H309.8L309.528 156.784H309.464C309.218 157.093 308.962 157.355 308.696 157.568C308.44 157.771 308.141 157.92 307.8 158.016C307.469 158.112 307.064 158.16 306.584 158.16C306.072 158.16 305.608 158.069 305.192 157.888C304.786 157.707 304.466 157.429 304.232 157.056C303.997 156.672 303.88 156.192 303.88 155.616C303.88 154.763 304.216 154.107 304.888 153.648C305.56 153.179 306.594 152.923 307.992 152.88L309.448 152.832V152.32C309.448 151.605 309.293 151.109 308.984 150.832C308.674 150.555 308.237 150.416 307.672 150.416C307.224 150.416 306.797 150.485 306.392 150.624C305.986 150.752 305.608 150.901 305.256 151.072L304.824 150.016C305.197 149.813 305.64 149.643 306.152 149.504C306.664 149.355 307.197 149.28 307.752 149.28ZM308.168 153.856C307.101 153.899 306.36 154.069 305.944 154.368C305.538 154.667 305.336 155.088 305.336 155.632C305.336 156.112 305.48 156.464 305.768 156.688C306.066 156.912 306.445 157.024 306.904 157.024C307.629 157.024 308.232 156.827 308.712 156.432C309.192 156.027 309.432 155.408 309.432 154.576V153.808L308.168 153.856ZM316.912 158.16C316.155 158.16 315.478 158.005 314.88 157.696C314.294 157.387 313.83 156.907 313.488 156.256C313.158 155.605 312.992 154.773 312.992 153.76C312.992 152.704 313.168 151.845 313.52 151.184C313.872 150.523 314.347 150.037 314.944 149.728C315.552 149.419 316.24 149.264 317.008 149.264C317.446 149.264 317.867 149.312 318.272 149.408C318.678 149.493 319.008 149.6 319.264 149.728L318.832 150.896C318.576 150.8 318.278 150.709 317.936 150.624C317.595 150.539 317.275 150.496 316.976 150.496C316.4 150.496 315.926 150.619 315.552 150.864C315.179 151.109 314.902 151.472 314.72 151.952C314.539 152.432 314.448 153.029 314.448 153.744C314.448 154.427 314.539 155.008 314.72 155.488C314.902 155.968 315.174 156.331 315.536 156.576C315.899 156.821 316.352 156.944 316.896 156.944C317.366 156.944 317.776 156.896 318.128 156.8C318.491 156.704 318.822 156.587 319.12 156.448V157.696C318.832 157.845 318.512 157.957 318.16 158.032C317.819 158.117 317.403 158.16 316.912 158.16Z" fill="#373A3C"/>
<g filter="url(#filter12_d_21_645)">
<rect y="186.004" width="39.7647" height="61.4765" fill="white"/>
</g>
<path d="M10.1087 219.18C9.41539 219.18 8.81272 219.089 8.30072 218.908C7.78872 218.716 7.35139 218.486 6.98872 218.22L7.64472 217.02C7.94339 217.244 8.29006 217.441 8.68472 217.612C9.07939 217.782 9.55939 217.868 10.1247 217.868C10.8287 217.868 11.3834 217.681 11.7887 217.308C12.2047 216.934 12.4127 216.47 12.4127 215.916C12.4127 215.521 12.3061 215.164 12.0927 214.844C11.8794 214.513 11.5487 214.246 11.1007 214.044C10.6634 213.841 10.0927 213.74 9.38872 213.74H8.49272V212.572H9.32472C9.95406 212.572 10.4714 212.476 10.8767 212.284C11.2927 212.092 11.6021 211.841 11.8047 211.532C12.0074 211.222 12.1087 210.897 12.1087 210.556C12.1087 210.054 11.9167 209.649 11.5327 209.34C11.1594 209.03 10.6954 208.876 10.1407 208.876C9.63939 208.876 9.19139 208.961 8.79672 209.132C8.41272 209.292 8.09806 209.473 7.85272 209.676L7.26072 208.54C7.58072 208.326 7.99139 208.118 8.49272 207.916C8.99406 207.702 9.58072 207.596 10.2527 207.596C10.9567 207.596 11.5541 207.724 12.0447 207.98C12.5354 208.236 12.9087 208.577 13.1647 209.004C13.4314 209.42 13.5647 209.873 13.5647 210.364C13.5647 210.993 13.4047 211.521 13.0847 211.948C12.7754 212.374 12.3327 212.726 11.7567 213.004C12.4287 213.26 12.9514 213.638 13.3247 214.14C13.7087 214.63 13.9007 215.206 13.9007 215.868C13.9007 216.422 13.7621 216.956 13.4847 217.468C13.2181 217.969 12.8021 218.38 12.2367 218.7C11.6821 219.02 10.9727 219.18 10.1087 219.18Z" fill="#373A3C"/>
<g filter="url(#filter13_d_21_645)">
<rect x="39.7646" y="186.004" width="99.4118" height="61.4765" fill="white"/>
</g>
<path d="M50.9544 207V198.432H57.3864V207H56.3184V199.38H52.0344V207H50.9544ZM62.6477 200.448C63.4397 200.448 64.0757 200.724 64.5557 201.276C65.0437 201.828 65.2877 202.66 65.2877 203.772C65.2877 204.5 65.1757 205.116 64.9517 205.62C64.7357 206.116 64.4277 206.492 64.0277 206.748C63.6357 206.996 63.1717 207.12 62.6357 207.12C62.3077 207.12 62.0157 207.076 61.7597 206.988C61.5037 206.9 61.2837 206.788 61.0997 206.652C60.9237 206.508 60.7717 206.352 60.6437 206.184H60.5717C60.5877 206.32 60.6037 206.492 60.6197 206.7C60.6357 206.908 60.6437 207.088 60.6437 207.24V209.88H59.5877V200.568H60.4517L60.5957 201.444H60.6437C60.7717 201.26 60.9237 201.092 61.0997 200.94C61.2837 200.788 61.4997 200.668 61.7477 200.58C62.0037 200.492 62.3037 200.448 62.6477 200.448ZM62.4557 201.336C62.0237 201.336 61.6757 201.42 61.4117 201.588C61.1477 201.748 60.9557 201.992 60.8357 202.32C60.7157 202.648 60.6517 203.064 60.6437 203.568V203.772C60.6437 204.3 60.6997 204.748 60.8117 205.116C60.9237 205.484 61.1117 205.764 61.3757 205.956C61.6477 206.148 62.0157 206.244 62.4797 206.244C62.8717 206.244 63.1917 206.136 63.4397 205.92C63.6957 205.704 63.8837 205.412 64.0037 205.044C64.1317 204.668 64.1957 204.24 64.1957 203.76C64.1957 203.024 64.0517 202.436 63.7637 201.996C63.4837 201.556 63.0477 201.336 62.4557 201.336ZM72.5626 203.772C72.5626 204.308 72.4906 204.784 72.3466 205.2C72.2106 205.608 72.0106 205.956 71.7466 206.244C71.4906 206.532 71.1746 206.752 70.7986 206.904C70.4306 207.048 70.0186 207.12 69.5626 207.12C69.1386 207.12 68.7466 207.048 68.3866 206.904C68.0266 206.752 67.7146 206.532 67.4506 206.244C67.1866 205.956 66.9786 205.608 66.8266 205.2C66.6826 204.784 66.6106 204.308 66.6106 203.772C66.6106 203.06 66.7306 202.46 66.9706 201.972C67.2106 201.476 67.5546 201.1 68.0026 200.844C68.4506 200.58 68.9826 200.448 69.5986 200.448C70.1826 200.448 70.6946 200.58 71.1346 200.844C71.5826 201.1 71.9306 201.476 72.1786 201.972C72.4346 202.46 72.5626 203.06 72.5626 203.772ZM67.7026 203.772C67.7026 204.276 67.7666 204.716 67.8946 205.092C68.0306 205.46 68.2386 205.744 68.5186 205.944C68.7986 206.144 69.1546 206.244 69.5866 206.244C70.0186 206.244 70.3746 206.144 70.6546 205.944C70.9346 205.744 71.1386 205.46 71.2666 205.092C71.4026 204.716 71.4706 204.276 71.4706 203.772C71.4706 203.26 71.4026 202.824 71.2666 202.464C71.1306 202.104 70.9226 201.828 70.6426 201.636C70.3706 201.436 70.0146 201.336 69.5746 201.336C68.9186 201.336 68.4426 201.552 68.1466 201.984C67.8506 202.416 67.7026 203.012 67.7026 203.772ZM75.5258 203.712L73.3058 200.568H74.5058L76.1618 202.992L77.8058 200.568H78.9938L76.7738 203.712L79.1138 207H77.9138L76.1618 204.432L74.3858 207H73.1978L75.5258 203.712ZM81.3494 204.492C81.3494 204.564 81.3454 204.668 81.3374 204.804C81.3374 204.932 81.3334 205.072 81.3254 205.224C81.3174 205.368 81.3094 205.508 81.3014 205.644C81.2934 205.772 81.2854 205.876 81.2774 205.956L84.7214 200.568H86.0174V207H85.0334V203.208C85.0334 203.08 85.0334 202.912 85.0334 202.704C85.0414 202.496 85.0494 202.292 85.0574 202.092C85.0654 201.884 85.0734 201.728 85.0814 201.624L81.6614 207H80.3534V200.568H81.3494V204.492ZM92.9603 207H91.8923V201.444H89.9963C89.9163 202.46 89.8163 203.328 89.6963 204.048C89.5763 204.76 89.4243 205.34 89.2403 205.788C89.0563 206.236 88.8363 206.564 88.5803 206.772C88.3243 206.98 88.0243 207.084 87.6803 207.084C87.5763 207.084 87.4723 207.076 87.3683 207.06C87.2723 207.052 87.1923 207.032 87.1283 207V206.208C87.1763 206.224 87.2283 206.236 87.2843 206.244C87.3403 206.252 87.3963 206.256 87.4523 206.256C87.6283 206.256 87.7883 206.184 87.9323 206.04C88.0763 205.896 88.2043 205.676 88.3163 205.38C88.4363 205.084 88.5443 204.712 88.6403 204.264C88.7363 203.808 88.8203 203.272 88.8923 202.656C88.9643 202.04 89.0283 201.344 89.0843 200.568H92.9603V207ZM95.9978 204.492C95.9978 204.564 95.9938 204.668 95.9858 204.804C95.9858 204.932 95.9818 205.072 95.9738 205.224C95.9658 205.368 95.9578 205.508 95.9498 205.644C95.9418 205.772 95.9338 205.876 95.9258 205.956L99.3698 200.568H100.666V207H99.6818V203.208C99.6818 203.08 99.6818 202.912 99.6818 202.704C99.6898 202.496 99.6978 202.292 99.7058 202.092C99.7138 201.884 99.7218 201.728 99.7298 201.624L96.3098 207H95.0018V200.568H95.9978V204.492ZM107.153 201.456H105.053V207H104.009V201.456H101.933V200.568H107.153V201.456ZM111.384 203.208C111.944 203.208 112.408 203.276 112.776 203.412C113.144 203.548 113.42 203.752 113.604 204.024C113.796 204.288 113.892 204.624 113.892 205.032C113.892 205.432 113.8 205.78 113.616 206.076C113.44 206.372 113.164 206.6 112.788 206.76C112.412 206.92 111.928 207 111.336 207H108.42V200.568H109.476V203.208H111.384ZM112.836 205.092C112.836 204.7 112.696 204.436 112.416 204.3C112.144 204.156 111.76 204.084 111.264 204.084H109.476V206.148H111.288C111.736 206.148 112.104 206.068 112.392 205.908C112.688 205.748 112.836 205.476 112.836 205.092ZM51.7344 226.908C51.7344 227.284 51.8384 227.564 52.0464 227.748C52.2624 227.924 52.5704 228.012 52.9704 228.012C53.3704 228.012 53.7344 227.952 54.0624 227.832C54.3904 227.704 54.7264 227.536 55.0704 227.328V224.568H56.1264V231H55.0704V228.132C54.7104 228.364 54.3544 228.548 54.0024 228.684C53.6584 228.812 53.2424 228.876 52.7544 228.876C52.0984 228.876 51.5864 228.704 51.2184 228.36C50.8584 228.016 50.6784 227.556 50.6784 226.98V224.568H51.7344V226.908ZM62.6098 225.456H60.5098V231H59.4658V225.456H57.3898V224.568H62.6098V225.456ZM69.3516 227.772C69.3516 228.308 69.2796 228.784 69.1356 229.2C68.9996 229.608 68.7996 229.956 68.5356 230.244C68.2796 230.532 67.9636 230.752 67.5876 230.904C67.2196 231.048 66.8076 231.12 66.3516 231.12C65.9276 231.12 65.5356 231.048 65.1756 230.904C64.8156 230.752 64.5036 230.532 64.2396 230.244C63.9756 229.956 63.7676 229.608 63.6156 229.2C63.4716 228.784 63.3996 228.308 63.3996 227.772C63.3996 227.06 63.5196 226.46 63.7596 225.972C63.9996 225.476 64.3436 225.1 64.7916 224.844C65.2396 224.58 65.7716 224.448 66.3876 224.448C66.9716 224.448 67.4836 224.58 67.9236 224.844C68.3716 225.1 68.7196 225.476 68.9676 225.972C69.2236 226.46 69.3516 227.06 69.3516 227.772ZM64.4916 227.772C64.4916 228.276 64.5556 228.716 64.6836 229.092C64.8196 229.46 65.0276 229.744 65.3076 229.944C65.5876 230.144 65.9436 230.244 66.3756 230.244C66.8076 230.244 67.1636 230.144 67.4436 229.944C67.7236 229.744 67.9276 229.46 68.0556 229.092C68.1916 228.716 68.2596 228.276 68.2596 227.772C68.2596 227.26 68.1916 226.824 68.0556 226.464C67.9196 226.104 67.7116 225.828 67.4316 225.636C67.1596 225.436 66.8036 225.336 66.3636 225.336C65.7076 225.336 65.2316 225.552 64.9356 225.984C64.6396 226.416 64.4916 227.012 64.4916 227.772ZM71.5652 227.376V226.392H75.6452V227.376H71.5652ZM83.1166 231H82.0486V225.444H80.1526C80.0726 226.46 79.9726 227.328 79.8526 228.048C79.7326 228.76 79.5806 229.34 79.3966 229.788C79.2126 230.236 78.9926 230.564 78.7366 230.772C78.4806 230.98 78.1806 231.084 77.8366 231.084C77.7326 231.084 77.6286 231.076 77.5246 231.06C77.4286 231.052 77.3486 231.032 77.2846 231V230.208C77.3326 230.224 77.3846 230.236 77.4406 230.244C77.4966 230.252 77.5526 230.256 77.6086 230.256C77.7846 230.256 77.9446 230.184 78.0886 230.04C78.2326 229.896 78.3606 229.676 78.4726 229.38C78.5926 229.084 78.7006 228.712 78.7966 228.264C78.8926 227.808 78.9766 227.272 79.0486 226.656C79.1206 226.04 79.1846 225.344 79.2406 224.568H83.1166V231ZM86.1541 228.492C86.1541 228.564 86.1501 228.668 86.1421 228.804C86.1421 228.932 86.1381 229.072 86.1301 229.224C86.1221 229.368 86.1141 229.508 86.1061 229.644C86.0981 229.772 86.0901 229.876 86.0821 229.956L89.5261 224.568H90.8221V231H89.8381V227.208C89.8381 227.08 89.8381 226.912 89.8381 226.704C89.8461 226.496 89.8541 226.292 89.8621 226.092C89.8701 225.884 89.8781 225.728 89.8861 225.624L86.4661 231H85.1581V224.568H86.1541V228.492ZM92.533 227.136C92.533 226.2 92.625 225.404 92.809 224.748C93.001 224.084 93.293 223.556 93.685 223.164C94.085 222.764 94.597 222.496 95.221 222.36C95.741 222.248 96.249 222.148 96.745 222.06C97.241 221.972 97.705 221.892 98.137 221.82L98.317 222.744C98.109 222.776 97.877 222.816 97.621 222.864C97.365 222.904 97.105 222.948 96.841 222.996C96.577 223.036 96.321 223.08 96.073 223.128C95.833 223.168 95.621 223.208 95.437 223.248C95.173 223.304 94.937 223.4 94.729 223.536C94.521 223.664 94.341 223.84 94.189 224.064C94.045 224.288 93.929 224.564 93.841 224.892C93.753 225.22 93.701 225.608 93.685 226.056H93.757C93.869 225.904 94.021 225.748 94.213 225.588C94.413 225.428 94.649 225.292 94.921 225.18C95.201 225.068 95.517 225.012 95.869 225.012C96.429 225.012 96.893 225.136 97.261 225.384C97.637 225.624 97.917 225.96 98.101 226.392C98.293 226.824 98.389 227.328 98.389 227.904C98.389 228.616 98.265 229.212 98.017 229.692C97.769 230.172 97.425 230.532 96.985 230.772C96.545 231.004 96.033 231.12 95.449 231.12C95.009 231.12 94.609 231.036 94.249 230.868C93.889 230.692 93.581 230.436 93.325 230.1C93.069 229.764 92.873 229.348 92.737 228.852C92.601 228.356 92.533 227.784 92.533 227.136ZM95.533 230.244C95.885 230.244 96.189 230.172 96.445 230.028C96.709 229.884 96.913 229.648 97.057 229.32C97.201 228.992 97.273 228.556 97.273 228.012C97.273 227.356 97.149 226.84 96.901 226.464C96.661 226.08 96.261 225.888 95.701 225.888C95.349 225.888 95.029 225.968 94.741 226.128C94.453 226.28 94.213 226.456 94.021 226.656C93.829 226.856 93.693 227.024 93.613 227.16C93.613 227.552 93.641 227.932 93.697 228.3C93.753 228.668 93.849 229 93.985 229.296C94.129 229.584 94.325 229.816 94.573 229.992C94.829 230.16 95.149 230.244 95.533 230.244ZM105.645 227.772C105.645 228.308 105.573 228.784 105.429 229.2C105.293 229.608 105.093 229.956 104.829 230.244C104.573 230.532 104.257 230.752 103.881 230.904C103.513 231.048 103.101 231.12 102.645 231.12C102.221 231.12 101.829 231.048 101.469 230.904C101.109 230.752 100.797 230.532 100.533 230.244C100.269 229.956 100.061 229.608 99.9086 229.2C99.7646 228.784 99.6926 228.308 99.6926 227.772C99.6926 227.06 99.8126 226.46 100.053 225.972C100.293 225.476 100.637 225.1 101.085 224.844C101.533 224.58 102.065 224.448 102.681 224.448C103.265 224.448 103.777 224.58 104.217 224.844C104.665 225.1 105.013 225.476 105.261 225.972C105.517 226.46 105.645 227.06 105.645 227.772ZM100.785 227.772C100.785 228.276 100.849 228.716 100.977 229.092C101.113 229.46 101.321 229.744 101.601 229.944C101.881 230.144 102.237 230.244 102.669 230.244C103.101 230.244 103.457 230.144 103.737 229.944C104.017 229.744 104.221 229.46 104.349 229.092C104.485 228.716 104.553 228.276 104.553 227.772C104.553 227.26 104.485 226.824 104.349 226.464C104.213 226.104 104.005 225.828 103.725 225.636C103.453 225.436 103.097 225.336 102.657 225.336C102.001 225.336 101.525 225.552 101.229 225.984C100.933 226.416 100.785 227.012 100.785 227.772Z" fill="#373A3C"/>
<g filter="url(#filter14_d_21_645)">
<rect x="139.176" y="186.004" width="99.4118" height="61.4765" fill="white"/>
</g>
<path d="M147.845 219V217.72H150.133V209.64L147.989 211.256L147.205 210.184L150.517 207.8H151.573V217.72H153.477V219H147.845ZM157.215 214.168V212.856H162.655V214.168H157.215ZM166.137 219C166.105 218.808 166.089 218.611 166.089 218.408C166.089 217.715 166.206 217.096 166.441 216.552C166.686 215.997 167.001 215.496 167.385 215.048C167.769 214.589 168.174 214.168 168.601 213.784C169.038 213.389 169.443 213.016 169.817 212.664C170.201 212.301 170.515 211.939 170.761 211.576C171.006 211.213 171.129 210.835 171.129 210.44C171.129 209.992 170.963 209.624 170.633 209.336C170.302 209.037 169.875 208.888 169.353 208.888C168.905 208.888 168.494 208.979 168.121 209.16C167.758 209.331 167.417 209.565 167.097 209.864L166.297 208.888C166.723 208.504 167.193 208.195 167.705 207.96C168.227 207.725 168.83 207.608 169.513 207.608C170.142 207.608 170.691 207.731 171.161 207.976C171.63 208.211 171.993 208.536 172.249 208.952C172.515 209.368 172.649 209.832 172.649 210.344C172.649 210.856 172.537 211.331 172.313 211.768C172.089 212.205 171.801 212.616 171.449 213C171.097 213.384 170.718 213.757 170.313 214.12C169.907 214.472 169.518 214.835 169.145 215.208C168.771 215.581 168.451 215.971 168.185 216.376C167.929 216.781 167.769 217.219 167.705 217.688H172.633V219H166.137ZM181.711 213.544C181.711 214.045 181.85 214.419 182.127 214.664C182.415 214.899 182.826 215.016 183.359 215.016C183.893 215.016 184.378 214.936 184.815 214.776C185.253 214.605 185.701 214.381 186.159 214.104V210.424H187.567V219H186.159V215.176C185.679 215.485 185.205 215.731 184.735 215.912C184.277 216.083 183.722 216.168 183.071 216.168C182.197 216.168 181.514 215.939 181.023 215.48C180.543 215.021 180.303 214.408 180.303 213.64V210.424H181.711V213.544ZM193.54 210.28C194.585 210.28 195.358 210.509 195.86 210.968C196.361 211.427 196.612 212.157 196.612 213.16V219H195.588L195.316 217.784H195.252C195.006 218.093 194.75 218.355 194.484 218.568C194.228 218.771 193.929 218.92 193.588 219.016C193.257 219.112 192.852 219.16 192.372 219.16C191.86 219.16 191.396 219.069 190.98 218.888C190.574 218.707 190.254 218.429 190.02 218.056C189.785 217.672 189.668 217.192 189.668 216.616C189.668 215.763 190.004 215.107 190.676 214.648C191.348 214.179 192.382 213.923 193.78 213.88L195.236 213.832V213.32C195.236 212.605 195.081 212.109 194.772 211.832C194.462 211.555 194.025 211.416 193.46 211.416C193.012 211.416 192.585 211.485 192.18 211.624C191.774 211.752 191.396 211.901 191.044 212.072L190.612 211.016C190.985 210.813 191.428 210.643 191.94 210.504C192.452 210.355 192.985 210.28 193.54 210.28ZM193.956 214.856C192.889 214.899 192.148 215.069 191.732 215.368C191.326 215.667 191.124 216.088 191.124 216.632C191.124 217.112 191.268 217.464 191.556 217.688C191.854 217.912 192.233 218.024 192.692 218.024C193.417 218.024 194.02 217.827 194.5 217.432C194.98 217.027 195.22 216.408 195.22 215.576V214.808L193.956 214.856ZM202.701 219.16C201.943 219.16 201.266 219.005 200.669 218.696C200.082 218.387 199.618 217.907 199.277 217.256C198.946 216.605 198.781 215.773 198.781 214.76C198.781 213.704 198.957 212.845 199.309 212.184C199.661 211.523 200.135 211.037 200.733 210.728C201.341 210.419 202.029 210.264 202.797 210.264C203.234 210.264 203.655 210.312 204.061 210.408C204.466 210.493 204.797 210.6 205.053 210.728L204.621 211.896C204.365 211.8 204.066 211.709 203.725 211.624C203.383 211.539 203.063 211.496 202.765 211.496C202.189 211.496 201.714 211.619 201.341 211.864C200.967 212.109 200.69 212.472 200.509 212.952C200.327 213.432 200.237 214.029 200.237 214.744C200.237 215.427 200.327 216.008 200.509 216.488C200.69 216.968 200.962 217.331 201.325 217.576C201.687 217.821 202.141 217.944 202.685 217.944C203.154 217.944 203.565 217.896 203.917 217.8C204.279 217.704 204.61 217.587 204.909 217.448V218.696C204.621 218.845 204.301 218.957 203.949 219.032C203.607 219.117 203.191 219.16 202.701 219.16ZM210.196 210.28C211.241 210.28 212.015 210.509 212.516 210.968C213.017 211.427 213.268 212.157 213.268 213.16V219H212.244L211.972 217.784H211.908C211.663 218.093 211.407 218.355 211.14 218.568C210.884 218.771 210.585 218.92 210.244 219.016C209.913 219.112 209.508 219.16 209.028 219.16C208.516 219.16 208.052 219.069 207.636 218.888C207.231 218.707 206.911 218.429 206.676 218.056C206.441 217.672 206.324 217.192 206.324 216.616C206.324 215.763 206.66 215.107 207.332 214.648C208.004 214.179 209.039 213.923 210.436 213.88L211.892 213.832V213.32C211.892 212.605 211.737 212.109 211.428 211.832C211.119 211.555 210.681 211.416 210.116 211.416C209.668 211.416 209.241 211.485 208.836 211.624C208.431 211.752 208.052 211.901 207.7 212.072L207.268 211.016C207.641 210.813 208.084 210.643 208.596 210.504C209.108 210.355 209.641 210.28 210.196 210.28ZM210.612 214.856C209.545 214.899 208.804 215.069 208.388 215.368C207.983 215.667 207.78 216.088 207.78 216.632C207.78 217.112 207.924 217.464 208.212 217.688C208.511 217.912 208.889 218.024 209.348 218.024C210.073 218.024 210.676 217.827 211.156 217.432C211.636 217.027 211.876 216.408 211.876 215.576V214.808L210.612 214.856Z" fill="#373A3C"/>
<g filter="url(#filter15_d_21_645)">
<rect x="238.588" y="186.004" width="99.4118" height="61.4765" fill="white"/>
</g>
<path d="M251.317 217C251.285 216.808 251.269 216.611 251.269 216.408C251.269 215.715 251.387 215.096 251.621 214.552C251.867 213.997 252.181 213.496 252.565 213.048C252.949 212.589 253.355 212.168 253.781 211.784C254.219 211.389 254.624 211.016 254.997 210.664C255.381 210.301 255.696 209.939 255.941 209.576C256.187 209.213 256.309 208.835 256.309 208.44C256.309 207.992 256.144 207.624 255.813 207.336C255.483 207.037 255.056 206.888 254.533 206.888C254.085 206.888 253.675 206.979 253.301 207.16C252.939 207.331 252.597 207.565 252.277 207.864L251.477 206.888C251.904 206.504 252.373 206.195 252.885 205.96C253.408 205.725 254.011 205.608 254.693 205.608C255.323 205.608 255.872 205.731 256.341 205.976C256.811 206.211 257.173 206.536 257.429 206.952C257.696 207.368 257.829 207.832 257.829 208.344C257.829 208.856 257.717 209.331 257.493 209.768C257.269 210.205 256.981 210.616 256.629 211C256.277 211.384 255.899 211.757 255.493 212.12C255.088 212.472 254.699 212.835 254.325 213.208C253.952 213.581 253.632 213.971 253.365 214.376C253.109 214.781 252.949 215.219 252.885 215.688H257.813V217H251.317ZM264.287 217.192C263.039 217.192 262.09 216.685 261.439 215.672C260.788 214.648 260.463 213.219 260.463 211.384C260.463 209.539 260.794 208.115 261.455 207.112C262.127 206.109 263.082 205.608 264.319 205.608C265.567 205.608 266.516 206.115 267.167 207.128C267.818 208.141 268.143 209.571 268.143 211.416C268.143 213.261 267.807 214.685 267.135 215.688C266.474 216.691 265.524 217.192 264.287 217.192ZM264.303 215.88C264.783 215.88 265.194 215.741 265.535 215.464C265.887 215.176 266.154 214.707 266.335 214.056C266.527 213.405 266.623 212.531 266.623 211.432C266.623 209.96 266.415 208.84 265.999 208.072C265.594 207.304 265.028 206.92 264.303 206.92C263.823 206.92 263.407 207.064 263.055 207.352C262.714 207.629 262.447 208.093 262.255 208.744C262.074 209.384 261.983 210.259 261.983 211.368C261.983 212.84 262.186 213.96 262.591 214.728C263.007 215.496 263.578 215.88 264.303 215.88ZM273.881 217.192C272.633 217.192 271.683 216.685 271.033 215.672C270.382 214.648 270.057 213.219 270.057 211.384C270.057 209.539 270.387 208.115 271.049 207.112C271.721 206.109 272.675 205.608 273.913 205.608C275.161 205.608 276.11 206.115 276.761 207.128C277.411 208.141 277.737 209.571 277.737 211.416C277.737 213.261 277.401 214.685 276.729 215.688C276.067 216.691 275.118 217.192 273.881 217.192ZM273.897 215.88C274.377 215.88 274.787 215.741 275.129 215.464C275.481 215.176 275.747 214.707 275.929 214.056C276.121 213.405 276.217 212.531 276.217 211.432C276.217 209.96 276.009 208.84 275.593 208.072C275.187 207.304 274.622 206.92 273.897 206.92C273.417 206.92 273.001 207.064 272.649 207.352C272.307 207.629 272.041 208.093 271.849 208.744C271.667 209.384 271.577 210.259 271.577 211.368C271.577 212.84 271.779 213.96 272.185 214.728C272.601 215.496 273.171 215.88 273.897 215.88ZM284.131 208.264C285.187 208.264 286.035 208.632 286.675 209.368C287.325 210.104 287.651 211.213 287.651 212.696C287.651 213.667 287.501 214.488 287.203 215.16C286.915 215.821 286.504 216.323 285.971 216.664C285.448 216.995 284.829 217.16 284.115 217.16C283.677 217.16 283.288 217.101 282.947 216.984C282.605 216.867 282.312 216.717 282.067 216.536C281.832 216.344 281.629 216.136 281.459 215.912H281.363C281.384 216.093 281.405 216.323 281.427 216.6C281.448 216.877 281.459 217.117 281.459 217.32V220.84H280.051V208.424H281.203L281.395 209.592H281.459C281.629 209.347 281.832 209.123 282.067 208.92C282.312 208.717 282.6 208.557 282.931 208.44C283.272 208.323 283.672 208.264 284.131 208.264ZM283.875 209.448C283.299 209.448 282.835 209.56 282.483 209.784C282.131 209.997 281.875 210.323 281.715 210.76C281.555 211.197 281.469 211.752 281.459 212.424V212.696C281.459 213.4 281.533 213.997 281.683 214.488C281.832 214.979 282.083 215.352 282.435 215.608C282.797 215.864 283.288 215.992 283.907 215.992C284.429 215.992 284.856 215.848 285.187 215.56C285.528 215.272 285.779 214.883 285.939 214.392C286.109 213.891 286.195 213.32 286.195 212.68C286.195 211.699 286.003 210.915 285.619 210.328C285.245 209.741 284.664 209.448 283.875 209.448ZM295.923 211.544C295.923 212.045 296.062 212.419 296.339 212.664C296.627 212.899 297.038 213.016 297.571 213.016C298.105 213.016 298.59 212.936 299.027 212.776C299.465 212.605 299.913 212.381 300.371 212.104V208.424H301.779V217H300.371V213.176C299.891 213.485 299.417 213.731 298.947 213.912C298.489 214.083 297.934 214.168 297.283 214.168C296.409 214.168 295.726 213.939 295.235 213.48C294.755 213.021 294.515 212.408 294.515 211.64V208.424H295.923V211.544ZM307.752 208.28C308.797 208.28 309.57 208.509 310.072 208.968C310.573 209.427 310.824 210.157 310.824 211.16V217H309.8L309.528 215.784H309.464C309.218 216.093 308.962 216.355 308.696 216.568C308.44 216.771 308.141 216.92 307.8 217.016C307.469 217.112 307.064 217.16 306.584 217.16C306.072 217.16 305.608 217.069 305.192 216.888C304.786 216.707 304.466 216.429 304.232 216.056C303.997 215.672 303.88 215.192 303.88 214.616C303.88 213.763 304.216 213.107 304.888 212.648C305.56 212.179 306.594 211.923 307.992 211.88L309.448 211.832V211.32C309.448 210.605 309.293 210.109 308.984 209.832C308.674 209.555 308.237 209.416 307.672 209.416C307.224 209.416 306.797 209.485 306.392 209.624C305.986 209.752 305.608 209.901 305.256 210.072L304.824 209.016C305.197 208.813 305.64 208.643 306.152 208.504C306.664 208.355 307.197 208.28 307.752 208.28ZM308.168 212.856C307.101 212.899 306.36 213.069 305.944 213.368C305.538 213.667 305.336 214.088 305.336 214.632C305.336 215.112 305.48 215.464 305.768 215.688C306.066 215.912 306.445 216.024 306.904 216.024C307.629 216.024 308.232 215.827 308.712 215.432C309.192 215.027 309.432 214.408 309.432 213.576V212.808L308.168 212.856ZM316.912 217.16C316.155 217.16 315.478 217.005 314.88 216.696C314.294 216.387 313.83 215.907 313.488 215.256C313.158 214.605 312.992 213.773 312.992 212.76C312.992 211.704 313.168 210.845 313.52 210.184C313.872 209.523 314.347 209.037 314.944 208.728C315.552 208.419 316.24 208.264 317.008 208.264C317.446 208.264 317.867 208.312 318.272 208.408C318.678 208.493 319.008 208.6 319.264 208.728L318.832 209.896C318.576 209.8 318.278 209.709 317.936 209.624C317.595 209.539 317.275 209.496 316.976 209.496C316.4 209.496 315.926 209.619 315.552 209.864C315.179 210.109 314.902 210.472 314.72 210.952C314.539 211.432 314.448 212.029 314.448 212.744C314.448 213.427 314.539 214.008 314.72 214.488C314.902 214.968 315.174 215.331 315.536 215.576C315.899 215.821 316.352 215.944 316.896 215.944C317.366 215.944 317.776 215.896 318.128 215.8C318.491 215.704 318.822 215.587 319.12 215.448V216.696C318.832 216.845 318.512 216.957 318.16 217.032C317.819 217.117 317.403 217.16 316.912 217.16Z" fill="#373A3C"/>
<defs>
<filter id="filter0_d_21_645" x="0" y="0.574478" width="39.7646" height="62.4765" filterUnits="userSpaceOnUse" color-interpolation-filters="sRGB">
<feFlood flood-opacity="0" result="BackgroundImageFix"/>
<feColorMatrix in="SourceAlpha" type="matrix" values="0 0 0 0 0 0 0 0 0 0 0 0 0 0 0 0 0 0 127 0" result="hardAlpha"/>
<feOffset dy="-1"/>
<feColorMatrix type="matrix" values="0 0 0 0 0.92549 0 0 0 0 0.933333 0 0 0 0 0.937255 0 0 0 1 0"/>
<feBlend mode="normal" in2="BackgroundImageFix" result="effect1_dropShadow_21_645"/>
<feBlend mode="normal" in="SourceGraphic" in2="effect1_dropShadow_21_645" result="shape"/>
</filter>
<filter id="filter1_d_21_645" x="39.7646" y="0.574478" width="99.4117" height="62.4765" filterUnits="userSpaceOnUse" color-interpolation-filters="sRGB">
<feFlood flood-opacity="0" result="BackgroundImageFix"/>
<feColorMatrix in="SourceAlpha" type="matrix" values="0 0 0 0 0 0 0 0 0 0 0 0 0 0 0 0 0 0 127 0" result="hardAlpha"/>
<feOffset dy="-1"/>
<feColorMatrix type="matrix" values="0 0 0 0 0.92549 0 0 0 0 0.933333 0 0 0 0 0.937255 0 0 0 1 0"/>
<feBlend mode="normal" in2="BackgroundImageFix" result="effect1_dropShadow_21_645"/>
<feBlend mode="normal" in="SourceGraphic" in2="effect1_dropShadow_21_645" result="shape"/>
</filter>
<filter id="filter2_d_21_645" x="139.176" y="0.574478" width="99.4117" height="62.4765" filterUnits="userSpaceOnUse" color-interpolation-filters="sRGB">
<feFlood flood-opacity="0" result="BackgroundImageFix"/>
<feColorMatrix in="SourceAlpha" type="matrix" values="0 0 0 0 0 0 0 0 0 0 0 0 0 0 0 0 0 0 127 0" result="hardAlpha"/>
<feOffset dy="-1"/>
<feColorMatrix type="matrix" values="0 0 0 0 0.92549 0 0 0 0 0.933333 0 0 0 0 0.937255 0 0 0 1 0"/>
<feBlend mode="normal" in2="BackgroundImageFix" result="effect1_dropShadow_21_645"/>
<feBlend mode="normal" in="SourceGraphic" in2="effect1_dropShadow_21_645" result="shape"/>
</filter>
<filter id="filter3_d_21_645" x="238.588" y="0.574478" width="99.4117" height="62.4765" filterUnits="userSpaceOnUse" color-interpolation-filters="sRGB">
<feFlood flood-opacity="0" result="BackgroundImageFix"/>
<feColorMatrix in="SourceAlpha" type="matrix" values="0 0 0 0 0 0 0 0 0 0 0 0 0 0 0 0 0 0 127 0" result="hardAlpha"/>
<feOffset dy="-1"/>
<feColorMatrix type="matrix" values="0 0 0 0 0.92549 0 0 0 0 0.933333 0 0 0 0 0.937255 0 0 0 1 0"/>
<feBlend mode="normal" in2="BackgroundImageFix" result="effect1_dropShadow_21_645"/>
<feBlend mode="normal" in="SourceGraphic" in2="effect1_dropShadow_21_645" result="shape"/>
</filter>
<filter id="filter4_d_21_645" x="0" y="62.051" width="39.7646" height="62.4765" filterUnits="userSpaceOnUse" color-interpolation-filters="sRGB">
<feFlood flood-opacity="0" result="BackgroundImageFix"/>
<feColorMatrix in="SourceAlpha" type="matrix" values="0 0 0 0 0 0 0 0 0 0 0 0 0 0 0 0 0 0 127 0" result="hardAlpha"/>
<feOffset dy="-1"/>
<feColorMatrix type="matrix" values="0 0 0 0 0.92549 0 0 0 0 0.933333 0 0 0 0 0.937255 0 0 0 1 0"/>
<feBlend mode="normal" in2="BackgroundImageFix" result="effect1_dropShadow_21_645"/>
<feBlend mode="normal" in="SourceGraphic" in2="effect1_dropShadow_21_645" result="shape"/>
</filter>
<filter id="filter5_d_21_645" x="39.7646" y="62.0509" width="99.4117" height="62.4765" filterUnits="userSpaceOnUse" color-interpolation-filters="sRGB">
<feFlood flood-opacity="0" result="BackgroundImageFix"/>
<feColorMatrix in="SourceAlpha" type="matrix" values="0 0 0 0 0 0 0 0 0 0 0 0 0 0 0 0 0 0 127 0" result="hardAlpha"/>
<feOffset dy="-1"/>
<feColorMatrix type="matrix" values="0 0 0 0 0.92549 0 0 0 0 0.933333 0 0 0 0 0.937255 0 0 0 1 0"/>
<feBlend mode="normal" in2="BackgroundImageFix" result="effect1_dropShadow_21_645"/>
<feBlend mode="normal" in="SourceGraphic" in2="effect1_dropShadow_21_645" result="shape"/>
</filter>
<filter id="filter6_d_21_645" x="139.176" y="62.0509" width="99.4117" height="62.4765" filterUnits="userSpaceOnUse" color-interpolation-filters="sRGB">
<feFlood flood-opacity="0" result="BackgroundImageFix"/>
<feColorMatrix in="SourceAlpha" type="matrix" values="0 0 0 0 0 0 0 0 0 0 0 0 0 0 0 0 0 0 127 0" result="hardAlpha"/>
<feOffset dy="-1"/>
<feColorMatrix type="matrix" values="0 0 0 0 0.92549 0 0 0 0 0.933333 0 0 0 0 0.937255 0 0 0 1 0"/>
<feBlend mode="normal" in2="BackgroundImageFix" result="effect1_dropShadow_21_645"/>
<feBlend mode="normal" in="SourceGraphic" in2="effect1_dropShadow_21_645" result="shape"/>
</filter>
<filter id="filter7_d_21_645" x="238.588" y="62.0509" width="99.4117" height="62.4765" filterUnits="userSpaceOnUse" color-interpolation-filters="sRGB">
<feFlood flood-opacity="0" result="BackgroundImageFix"/>
<feColorMatrix in="SourceAlpha" type="matrix" values="0 0 0 0 0 0 0 0 0 0 0 0 0 0 0 0 0 0 127 0" result="hardAlpha"/>
<feOffset dy="-1"/>
<feColorMatrix type="matrix" values="0 0 0 0 0.92549 0 0 0 0 0.933333 0 0 0 0 0.937255 0 0 0 1 0"/>
<feBlend mode="normal" in2="BackgroundImageFix" result="effect1_dropShadow_21_645"/>
<feBlend mode="normal" in="SourceGraphic" in2="effect1_dropShadow_21_645" result="shape"/>
</filter>
<filter id="filter8_d_21_645" x="0" y="123.527" width="39.7646" height="62.4765" filterUnits="userSpaceOnUse" color-interpolation-filters="sRGB">
<feFlood flood-opacity="0" result="BackgroundImageFix"/>
<feColorMatrix in="SourceAlpha" type="matrix" values="0 0 0 0 0 0 0 0 0 0 0 0 0 0 0 0 0 0 127 0" result="hardAlpha"/>
<feOffset dy="-1"/>
<feColorMatrix type="matrix" values="0 0 0 0 0.92549 0 0 0 0 0.933333 0 0 0 0 0.937255 0 0 0 1 0"/>
<feBlend mode="normal" in2="BackgroundImageFix" result="effect1_dropShadow_21_645"/>
<feBlend mode="normal" in="SourceGraphic" in2="effect1_dropShadow_21_645" result="shape"/>
</filter>
<filter id="filter9_d_21_645" x="39.7646" y="123.527" width="99.4117" height="62.4765" filterUnits="userSpaceOnUse" color-interpolation-filters="sRGB">
<feFlood flood-opacity="0" result="BackgroundImageFix"/>
<feColorMatrix in="SourceAlpha" type="matrix" values="0 0 0 0 0 0 0 0 0 0 0 0 0 0 0 0 0 0 127 0" result="hardAlpha"/>
<feOffset dy="-1"/>
<feColorMatrix type="matrix" values="0 0 0 0 0.92549 0 0 0 0 0.933333 0 0 0 0 0.937255 0 0 0 1 0"/>
<feBlend mode="normal" in2="BackgroundImageFix" result="effect1_dropShadow_21_645"/>
<feBlend mode="normal" in="SourceGraphic" in2="effect1_dropShadow_21_645" result="shape"/>
</filter>
<filter id="filter10_d_21_645" x="139.176" y="123.527" width="99.4117" height="62.4765" filterUnits="userSpaceOnUse" color-interpolation-filters="sRGB">
<feFlood flood-opacity="0" result="BackgroundImageFix"/>
<feColorMatrix in="SourceAlpha" type="matrix" values="0 0 0 0 0 0 0 0 0 0 0 0 0 0 0 0 0 0 127 0" result="hardAlpha"/>
<feOffset dy="-1"/>
<feColorMatrix type="matrix" values="0 0 0 0 0.92549 0 0 0 0 0.933333 0 0 0 0 0.937255 0 0 0 1 0"/>
<feBlend mode="normal" in2="BackgroundImageFix" result="effect1_dropShadow_21_645"/>
<feBlend mode="normal" in="SourceGraphic" in2="effect1_dropShadow_21_645" result="shape"/>
</filter>
<filter id="filter11_d_21_645" x="238.588" y="123.527" width="99.4117" height="62.4765" filterUnits="userSpaceOnUse" color-interpolation-filters="sRGB">
<feFlood flood-opacity="0" result="BackgroundImageFix"/>
<feColorMatrix in="SourceAlpha" type="matrix" values="0 0 0 0 0 0 0 0 0 0 0 0 0 0 0 0 0 0 127 0" result="hardAlpha"/>
<feOffset dy="-1"/>
<feColorMatrix type="matrix" values="0 0 0 0 0.92549 0 0 0 0 0.933333 0 0 0 0 0.937255 0 0 0 1 0"/>
<feBlend mode="normal" in2="BackgroundImageFix" result="effect1_dropShadow_21_645"/>
<feBlend mode="normal" in="SourceGraphic" in2="effect1_dropShadow_21_645" result="shape"/>
</filter>
<filter id="filter12_d_21_645" x="0" y="185.004" width="39.7646" height="62.4765" filterUnits="userSpaceOnUse" color-interpolation-filters="sRGB">
<feFlood flood-opacity="0" result="BackgroundImageFix"/>
<feColorMatrix in="SourceAlpha" type="matrix" values="0 0 0 0 0 0 0 0 0 0 0 0 0 0 0 0 0 0 127 0" result="hardAlpha"/>
<feOffset dy="-1"/>
<feColorMatrix type="matrix" values="0 0 0 0 0.92549 0 0 0 0 0.933333 0 0 0 0 0.937255 0 0 0 1 0"/>
<feBlend mode="normal" in2="BackgroundImageFix" result="effect1_dropShadow_21_645"/>
<feBlend mode="normal" in="SourceGraphic" in2="effect1_dropShadow_21_645" result="shape"/>
</filter>
<filter id="filter13_d_21_645" x="39.7646" y="185.004" width="99.4117" height="62.4765" filterUnits="userSpaceOnUse" color-interpolation-filters="sRGB">
<feFlood flood-opacity="0" result="BackgroundImageFix"/>
<feColorMatrix in="SourceAlpha" type="matrix" values="0 0 0 0 0 0 0 0 0 0 0 0 0 0 0 0 0 0 127 0" result="hardAlpha"/>
<feOffset dy="-1"/>
<feColorMatrix type="matrix" values="0 0 0 0 0.92549 0 0 0 0 0.933333 0 0 0 0 0.937255 0 0 0 1 0"/>
<feBlend mode="normal" in2="BackgroundImageFix" result="effect1_dropShadow_21_645"/>
<feBlend mode="normal" in="SourceGraphic" in2="effect1_dropShadow_21_645" result="shape"/>
</filter>
<filter id="filter14_d_21_645" x="139.176" y="185.004" width="99.4117" height="62.4765" filterUnits="userSpaceOnUse" color-interpolation-filters="sRGB">
<feFlood flood-opacity="0" result="BackgroundImageFix"/>
<feColorMatrix in="SourceAlpha" type="matrix" values="0 0 0 0 0 0 0 0 0 0 0 0 0 0 0 0 0 0 127 0" result="hardAlpha"/>
<feOffset dy="-1"/>
<feColorMatrix type="matrix" values="0 0 0 0 0.92549 0 0 0 0 0.933333 0 0 0 0 0.937255 0 0 0 1 0"/>
<feBlend mode="normal" in2="BackgroundImageFix" result="effect1_dropShadow_21_645"/>
<feBlend mode="normal" in="SourceGraphic" in2="effect1_dropShadow_21_645" result="shape"/>
</filter>
<filter id="filter15_d_21_645" x="238.588" y="185.004" width="99.4117" height="62.4765" filterUnits="userSpaceOnUse" color-interpolation-filters="sRGB">
<feFlood flood-opacity="0" result="BackgroundImageFix"/>
<feColorMatrix in="SourceAlpha" type="matrix" values="0 0 0 0 0 0 0 0 0 0 0 0 0 0 0 0 0 0 127 0" result="hardAlpha"/>
<feOffset dy="-1"/>
<feColorMatrix type="matrix" values="0 0 0 0 0.92549 0 0 0 0 0.933333 0 0 0 0 0.937255 0 0 0 1 0"/>
<feBlend mode="normal" in2="BackgroundImageFix" result="effect1_dropShadow_21_645"/>
<feBlend mode="normal" in="SourceGraphic" in2="effect1_dropShadow_21_645" result="shape"/>
</filter>
</defs>
</svg>
